<svg xmlns="http://www.w3.org/2000/svg" viewBox="0 0 84 114" width="84" height="114">
  <defs>
    <radialGradient id="nebBack" cx="35%" cy="28%" r="70%">
      <stop offset="0" stop-color="#2b1cff" stop-opacity="0.35"/>
      <stop offset="0.35" stop-color="#ff2bd6" stop-opacity="0.22"/>
      <stop offset="0.75" stop-color="#00e6ff" stop-opacity="0.14"/>
      <stop offset="1" stop-color="#000000" stop-opacity="0"/>
    </radialGradient>
    <linearGradient id="backBase" x1="0" y1="0" x2="0" y2="1">
      <stop offset="0" stop-color="#0b0b12"/>
      <stop offset="1" stop-color="#05050a"/>
    </linearGradient>
    <filter id="softGlow" x="-30%" y="-30%" width="160%" height="160%">
      <feGaussianBlur stdDeviation="0.7" result="b"/>
      <feMerge>
        <feMergeNode in="b"/>
        <feMergeNode in="SourceGraphic"/>
      </feMerge>
    </filter>
  </defs>
<rect x="0" y="0" width="84" height="114" rx="6" ry="6" fill="#ffffff"/>
<g>
<circle cx="21.01" cy="103.66" r="0.29" fill="#111111" opacity="0.09"/>
<circle cx="55.68" cy="100.08" r="0.23" fill="#111111" opacity="0.10"/>
<circle cx="3.82" cy="80.78" r="0.31" fill="#111111" opacity="0.03"/>
<circle cx="71.39" cy="65.98" r="0.27" fill="#111111" opacity="0.13"/>
<circle cx="75.84" cy="58.77" r="0.29" fill="#111111" opacity="0.11"/>
<circle cx="69.87" cy="6.76" r="0.14" fill="#111111" opacity="0.12"/>
<circle cx="66.68" cy="113.49" r="0.51" fill="#111111" opacity="0.04"/>
<circle cx="39.71" cy="20.76" r="0.43" fill="#111111" opacity="0.10"/>
<circle cx="60.20" cy="80.85" r="0.33" fill="#111111" opacity="0.07"/>
<circle cx="76.88" cy="33.26" r="0.14" fill="#111111" opacity="0.09"/>
<circle cx="67.56" cy="66.99" r="0.45" fill="#111111" opacity="0.07"/>
<circle cx="8.26" cy="107.74" r="0.23" fill="#111111" opacity="0.11"/>
<circle cx="64.27" cy="43.05" r="0.49" fill="#111111" opacity="0.05"/>
<circle cx="72.43" cy="17.69" r="0.24" fill="#111111" opacity="0.04"/>
<circle cx="52.47" cy="112.28" r="0.24" fill="#111111" opacity="0.04"/>
<circle cx="8.16" cy="82.04" r="0.49" fill="#111111" opacity="0.12"/>
<circle cx="48.96" cy="113.56" r="0.51" fill="#111111" opacity="0.13"/>
<circle cx="79.55" cy="101.39" r="0.17" fill="#111111" opacity="0.08"/>
<circle cx="28.71" cy="43.66" r="0.16" fill="#111111" opacity="0.03"/>
<circle cx="73.97" cy="56.44" r="0.42" fill="#111111" opacity="0.10"/>
<circle cx="5.59" cy="54.81" r="0.25" fill="#111111" opacity="0.05"/>
<circle cx="34.23" cy="0.85" r="0.16" fill="#111111" opacity="0.03"/>
<circle cx="32.70" cy="103.07" r="0.51" fill="#111111" opacity="0.12"/>
<circle cx="9.81" cy="16.08" r="0.14" fill="#111111" opacity="0.11"/>
<circle cx="70.51" cy="39.14" r="0.31" fill="#111111" opacity="0.09"/>
<circle cx="80.27" cy="88.15" r="0.20" fill="#111111" opacity="0.04"/>
<circle cx="69.86" cy="102.26" r="0.30" fill="#111111" opacity="0.03"/>
<circle cx="77.68" cy="67.42" r="0.44" fill="#111111" opacity="0.08"/>
<circle cx="36.88" cy="27.44" r="0.32" fill="#111111" opacity="0.04"/>
<circle cx="65.36" cy="90.71" r="0.24" fill="#111111" opacity="0.07"/>
<circle cx="56.74" cy="42.53" r="0.36" fill="#111111" opacity="0.04"/>
<circle cx="71.25" cy="91.27" r="0.48" fill="#111111" opacity="0.07"/>
<circle cx="0.01" cy="85.54" r="0.30" fill="#111111" opacity="0.09"/>
<circle cx="15.64" cy="74.37" r="0.34" fill="#111111" opacity="0.08"/>
<circle cx="48.78" cy="45.59" r="0.47" fill="#111111" opacity="0.06"/>
<circle cx="23.99" cy="56.74" r="0.32" fill="#111111" opacity="0.03"/>
</g>
<rect x="1.6" y="1.6" width="80.8" height="110.8" rx="5.0" ry="5.0" fill="none" stroke="#2a2f3a" stroke-width="1.2"/>
<rect x="3.4" y="3.4" width="77.2" height="107.2" rx="4.2" ry="4.2" fill="none" stroke="#b9bec9" stroke-width="0.9" opacity="0.95"/>
<g>
<rect x="4.0" y="4.0" width="21.5" height="18.5" rx="2.2" ry="2.2" fill="#ffffff" stroke="#c8ccd6" stroke-width="0.6" opacity="0.98"/>

<g>
<rect x="11.98" y="5.90" width="1.22" height="11.78" rx="0.61" ry="0.61" fill="#111111"/>
<rect x="6.90" y="16.46" width="5.59" height="1.22" rx="0.61" ry="0.61" fill="#111111"/>
</g>
<g>
<rect x="14.29" y="5.90" width="6.99" height="1.22" rx="0.61" ry="0.61" fill="#111111"/>
<rect x="14.29" y="16.46" width="6.99" height="1.22" rx="0.61" ry="0.61" fill="#111111"/>
<rect x="14.29" y="5.90" width="1.22" height="11.78" rx="0.61" ry="0.61" fill="#111111"/>
<rect x="20.06" y="5.90" width="1.22" height="11.78" rx="0.61" ry="0.61" fill="#111111"/>
</g>
<circle cx="26.0784" cy="13.450000000000001" r="1.716" fill="#111111"/>
<circle cx="24.1284" cy="15.556000000000001" r="1.716" fill="#111111"/>
<circle cx="28.028399999999998" cy="15.556000000000001" r="1.716" fill="#111111"/>
<path d="M 26.0784 15.790000000000001 C 26.4684 17.116, 26.4684 19.144, 26.0784 20.236 C 25.688399999999998 19.144, 25.688399999999998 17.116, 26.0784 15.790000000000001 Z" fill="#111111"/>
</g>
<g transform="rotate(180 68.00 97.00)">
<rect x="56.0" y="84.0" width="21.5" height="18.5" rx="2.2" ry="2.2" fill="#ffffff" stroke="#c8ccd6" stroke-width="0.6" opacity="0.98"/>

<g>
<rect x="63.98" y="85.90" width="1.22" height="11.78" rx="0.61" ry="0.61" fill="#111111"/>
<rect x="58.90" y="96.46" width="5.59" height="1.22" rx="0.61" ry="0.61" fill="#111111"/>
</g>
<g>
<rect x="66.29" y="85.90" width="6.99" height="1.22" rx="0.61" ry="0.61" fill="#111111"/>
<rect x="66.29" y="96.46" width="6.99" height="1.22" rx="0.61" ry="0.61" fill="#111111"/>
<rect x="66.29" y="85.90" width="1.22" height="11.78" rx="0.61" ry="0.61" fill="#111111"/>
<rect x="72.06" y="85.90" width="1.22" height="11.78" rx="0.61" ry="0.61" fill="#111111"/>
</g>
<circle cx="78.0784" cy="93.45" r="1.716" fill="#111111"/>
<circle cx="76.1284" cy="95.55600000000001" r="1.716" fill="#111111"/>
<circle cx="80.0284" cy="95.55600000000001" r="1.716" fill="#111111"/>
<path d="M 78.0784 95.79 C 78.4684 97.116, 78.4684 99.144, 78.0784 100.236 C 77.6884 99.144, 77.6884 97.116, 78.0784 95.79 Z" fill="#111111"/>
</g>
<g>
<circle cx="19.0" cy="24.9" r="1.848" fill="#111111"/>
<circle cx="16.9" cy="27.168" r="1.848" fill="#111111"/>
<circle cx="21.1" cy="27.168" r="1.848" fill="#111111"/>
<path d="M 19.0 27.42 C 19.42 28.848, 19.42 31.032, 19.0 32.208 C 18.58 31.032, 18.58 28.848, 19.0 27.42 Z" fill="#111111"/>
<circle cx="65.0" cy="24.9" r="1.848" fill="#111111"/>
<circle cx="62.9" cy="27.168" r="1.848" fill="#111111"/>
<circle cx="67.1" cy="27.168" r="1.848" fill="#111111"/>
<path d="M 65.0 27.42 C 65.42 28.848, 65.42 31.032, 65.0 32.208 C 64.58 31.032, 64.58 28.848, 65.0 27.42 Z" fill="#111111"/>
<circle cx="42.0" cy="38.699999999999996" r="1.848" fill="#111111"/>
<circle cx="39.9" cy="40.967999999999996" r="1.848" fill="#111111"/>
<circle cx="44.1" cy="40.967999999999996" r="1.848" fill="#111111"/>
<path d="M 42.0 41.22 C 42.42 42.647999999999996, 42.42 44.831999999999994, 42.0 46.007999999999996 C 41.58 44.831999999999994, 41.58 42.647999999999996, 42.0 41.22 Z" fill="#111111"/>
<circle cx="19.0" cy="38.699999999999996" r="1.848" fill="#111111"/>
<circle cx="16.9" cy="40.967999999999996" r="1.848" fill="#111111"/>
<circle cx="21.1" cy="40.967999999999996" r="1.848" fill="#111111"/>
<path d="M 19.0 41.22 C 19.42 42.647999999999996, 19.42 44.831999999999994, 19.0 46.007999999999996 C 18.58 44.831999999999994, 18.58 42.647999999999996, 19.0 41.22 Z" fill="#111111"/>
<circle cx="65.0" cy="38.699999999999996" r="1.848" fill="#111111"/>
<circle cx="62.9" cy="40.967999999999996" r="1.848" fill="#111111"/>
<circle cx="67.1" cy="40.967999999999996" r="1.848" fill="#111111"/>
<path d="M 65.0 41.22 C 65.42 42.647999999999996, 65.42 44.831999999999994, 65.0 46.007999999999996 C 64.58 44.831999999999994, 64.58 42.647999999999996, 65.0 41.22 Z" fill="#111111"/>
<circle cx="19.0" cy="71.10000000000001" r="1.848" fill="#111111"/>
<circle cx="16.9" cy="73.36800000000001" r="1.848" fill="#111111"/>
<circle cx="21.1" cy="73.36800000000001" r="1.848" fill="#111111"/>
<path d="M 19.0 73.62 C 19.42 75.048, 19.42 77.232, 19.0 78.408 C 18.58 77.232, 18.58 75.048, 19.0 73.62 Z" fill="#111111"/>
<circle cx="65.0" cy="71.10000000000001" r="1.848" fill="#111111"/>
<circle cx="62.9" cy="73.36800000000001" r="1.848" fill="#111111"/>
<circle cx="67.1" cy="73.36800000000001" r="1.848" fill="#111111"/>
<path d="M 65.0 73.62 C 65.42 75.048, 65.42 77.232, 65.0 78.408 C 64.58 77.232, 64.58 75.048, 65.0 73.62 Z" fill="#111111"/>
<circle cx="42.0" cy="71.10000000000001" r="1.848" fill="#111111"/>
<circle cx="39.9" cy="73.36800000000001" r="1.848" fill="#111111"/>
<circle cx="44.1" cy="73.36800000000001" r="1.848" fill="#111111"/>
<path d="M 42.0 73.62 C 42.42 75.048, 42.42 77.232, 42.0 78.408 C 41.58 77.232, 41.58 75.048, 42.0 73.62 Z" fill="#111111"/>
<circle cx="19.0" cy="84.9" r="1.848" fill="#111111"/>
<circle cx="16.9" cy="87.168" r="1.848" fill="#111111"/>
<circle cx="21.1" cy="87.168" r="1.848" fill="#111111"/>
<path d="M 19.0 87.42 C 19.42 88.848, 19.42 91.032, 19.0 92.208 C 18.58 91.032, 18.58 88.848, 19.0 87.42 Z" fill="#111111"/>
<circle cx="65.0" cy="84.9" r="1.848" fill="#111111"/>
<circle cx="62.9" cy="87.168" r="1.848" fill="#111111"/>
<circle cx="67.1" cy="87.168" r="1.848" fill="#111111"/>
<path d="M 65.0 87.42 C 65.42 88.848, 65.42 91.032, 65.0 92.208 C 64.58 91.032, 64.58 88.848, 65.0 87.42 Z" fill="#111111"/>
</g>
</svg>
