<svg xmlns="http://www.w3.org/2000/svg" viewBox="0 0 84 114" width="84" height="114">
  <defs>
    <radialGradient id="nebBack" cx="35%" cy="28%" r="70%">
      <stop offset="0" stop-color="#2b1cff" stop-opacity="0.35"/>
      <stop offset="0.35" stop-color="#ff2bd6" stop-opacity="0.22"/>
      <stop offset="0.75" stop-color="#00e6ff" stop-opacity="0.14"/>
      <stop offset="1" stop-color="#000000" stop-opacity="0"/>
    </radialGradient>
    <linearGradient id="backBase" x1="0" y1="0" x2="0" y2="1">
      <stop offset="0" stop-color="#0b0b12"/>
      <stop offset="1" stop-color="#05050a"/>
    </linearGradient>
    <filter id="softGlow" x="-30%" y="-30%" width="160%" height="160%">
      <feGaussianBlur stdDeviation="0.7" result="b"/>
      <feMerge>
        <feMergeNode in="b"/>
        <feMergeNode in="SourceGraphic"/>
      </feMerge>
    </filter>
  </defs>
<rect x="0" y="0" width="84" height="114" rx="6" ry="6" fill="#ffffff"/>
<g>
<circle cx="33.88" cy="76.47" r="0.52" fill="#111111" opacity="0.10"/>
<circle cx="64.04" cy="8.33" r="0.31" fill="#111111" opacity="0.07"/>
<circle cx="33.32" cy="48.98" r="0.34" fill="#111111" opacity="0.08"/>
<circle cx="71.38" cy="81.43" r="0.44" fill="#111111" opacity="0.11"/>
<circle cx="51.22" cy="29.61" r="0.36" fill="#111111" opacity="0.10"/>
<circle cx="71.65" cy="103.47" r="0.43" fill="#111111" opacity="0.03"/>
<circle cx="67.54" cy="64.82" r="0.31" fill="#111111" opacity="0.10"/>
<circle cx="6.70" cy="74.66" r="0.37" fill="#111111" opacity="0.04"/>
<circle cx="3.47" cy="10.19" r="0.47" fill="#111111" opacity="0.08"/>
<circle cx="47.10" cy="62.99" r="0.24" fill="#111111" opacity="0.10"/>
<circle cx="11.49" cy="29.65" r="0.49" fill="#111111" opacity="0.12"/>
<circle cx="18.37" cy="73.08" r="0.39" fill="#111111" opacity="0.04"/>
<circle cx="15.78" cy="36.06" r="0.46" fill="#111111" opacity="0.05"/>
<circle cx="56.01" cy="49.26" r="0.41" fill="#111111" opacity="0.07"/>
<circle cx="77.01" cy="107.07" r="0.42" fill="#111111" opacity="0.04"/>
<circle cx="4.07" cy="100.19" r="0.52" fill="#111111" opacity="0.05"/>
<circle cx="57.72" cy="27.41" r="0.55" fill="#111111" opacity="0.04"/>
<circle cx="26.45" cy="15.93" r="0.16" fill="#111111" opacity="0.09"/>
<circle cx="32.01" cy="59.00" r="0.28" fill="#111111" opacity="0.05"/>
<circle cx="27.71" cy="67.13" r="0.51" fill="#111111" opacity="0.10"/>
<circle cx="13.38" cy="29.69" r="0.20" fill="#111111" opacity="0.11"/>
<circle cx="77.20" cy="41.88" r="0.51" fill="#111111" opacity="0.10"/>
<circle cx="26.71" cy="111.15" r="0.20" fill="#111111" opacity="0.08"/>
<circle cx="13.49" cy="81.21" r="0.21" fill="#111111" opacity="0.08"/>
<circle cx="49.81" cy="109.58" r="0.33" fill="#111111" opacity="0.07"/>
<circle cx="43.88" cy="4.51" r="0.21" fill="#111111" opacity="0.13"/>
<circle cx="12.41" cy="100.89" r="0.14" fill="#111111" opacity="0.11"/>
<circle cx="39.83" cy="12.37" r="0.35" fill="#111111" opacity="0.07"/>
<circle cx="63.05" cy="11.41" r="0.50" fill="#111111" opacity="0.06"/>
<circle cx="63.84" cy="23.51" r="0.33" fill="#111111" opacity="0.09"/>
<circle cx="10.87" cy="47.83" r="0.38" fill="#111111" opacity="0.11"/>
<circle cx="64.69" cy="55.15" r="0.33" fill="#111111" opacity="0.09"/>
<circle cx="51.43" cy="87.38" r="0.22" fill="#111111" opacity="0.05"/>
<circle cx="11.91" cy="43.12" r="0.24" fill="#111111" opacity="0.06"/>
<circle cx="75.12" cy="61.13" r="0.38" fill="#111111" opacity="0.08"/>
<circle cx="36.16" cy="88.11" r="0.36" fill="#111111" opacity="0.12"/>
</g>
<rect x="1.6" y="1.6" width="80.8" height="110.8" rx="5.0" ry="5.0" fill="none" stroke="#2a2f3a" stroke-width="1.2"/>
<rect x="3.4" y="3.4" width="77.2" height="107.2" rx="4.2" ry="4.2" fill="none" stroke="#b9bec9" stroke-width="0.9" opacity="0.95"/>
<g>
<rect x="4.0" y="4.0" width="21.5" height="18.5" rx="2.2" ry="2.2" fill="#ffffff" stroke="#c8ccd6" stroke-width="0.6" opacity="0.98"/>

<g>
<rect x="11.98" y="5.90" width="1.22" height="11.78" rx="0.61" ry="0.61" fill="#c40010"/>
<rect x="6.90" y="16.46" width="5.59" height="1.22" rx="0.61" ry="0.61" fill="#c40010"/>
</g>
<g>
<rect x="14.29" y="5.90" width="6.99" height="1.22" rx="0.61" ry="0.61" fill="#c40010"/>
<rect x="14.29" y="16.46" width="6.99" height="1.22" rx="0.61" ry="0.61" fill="#c40010"/>
<rect x="14.29" y="5.90" width="1.22" height="11.78" rx="0.61" ry="0.61" fill="#c40010"/>
<rect x="20.06" y="5.90" width="1.22" height="11.78" rx="0.61" ry="0.61" fill="#c40010"/>
</g>
<path d="M 26.0784 10.33 L 30.368399999999998 15.4 L 26.0784 20.47 L 21.7884 15.4 Z" fill="#c40010"/>
</g>
<g transform="rotate(180 68.00 97.00)">
<rect x="56.0" y="84.0" width="21.5" height="18.5" rx="2.2" ry="2.2" fill="#ffffff" stroke="#c8ccd6" stroke-width="0.6" opacity="0.98"/>

<g>
<rect x="63.98" y="85.90" width="1.22" height="11.78" rx="0.61" ry="0.61" fill="#c40010"/>
<rect x="58.90" y="96.46" width="5.59" height="1.22" rx="0.61" ry="0.61" fill="#c40010"/>
</g>
<g>
<rect x="66.29" y="85.90" width="6.99" height="1.22" rx="0.61" ry="0.61" fill="#c40010"/>
<rect x="66.29" y="96.46" width="6.99" height="1.22" rx="0.61" ry="0.61" fill="#c40010"/>
<rect x="66.29" y="85.90" width="1.22" height="11.78" rx="0.61" ry="0.61" fill="#c40010"/>
<rect x="72.06" y="85.90" width="1.22" height="11.78" rx="0.61" ry="0.61" fill="#c40010"/>
</g>
<path d="M 78.0784 90.33000000000001 L 82.36840000000001 95.4 L 78.0784 100.47 L 73.7884 95.4 Z" fill="#c40010"/>
</g>
<g>
<path d="M 19.0 21.54 L 23.62 27.0 L 19.0 32.46 L 14.379999999999999 27.0 Z" fill="#c40010"/>
<path d="M 65.0 21.54 L 69.62 27.0 L 65.0 32.46 L 60.379999999999995 27.0 Z" fill="#c40010"/>
<path d="M 42.0 35.339999999999996 L 46.620000000000005 40.8 L 42.0 46.26 L 37.379999999999995 40.8 Z" fill="#c40010"/>
<path d="M 19.0 35.339999999999996 L 23.62 40.8 L 19.0 46.26 L 14.379999999999999 40.8 Z" fill="#c40010"/>
<path d="M 65.0 35.339999999999996 L 69.62 40.8 L 65.0 46.26 L 60.379999999999995 40.8 Z" fill="#c40010"/>
<path d="M 19.0 67.74000000000001 L 23.62 73.2 L 19.0 78.66 L 14.379999999999999 73.2 Z" fill="#c40010"/>
<path d="M 65.0 67.74000000000001 L 69.62 73.2 L 65.0 78.66 L 60.379999999999995 73.2 Z" fill="#c40010"/>
<path d="M 42.0 67.74000000000001 L 46.620000000000005 73.2 L 42.0 78.66 L 37.379999999999995 73.2 Z" fill="#c40010"/>
<path d="M 19.0 81.53999999999999 L 23.62 87.0 L 19.0 92.46000000000001 L 14.379999999999999 87.0 Z" fill="#c40010"/>
<path d="M 65.0 81.53999999999999 L 69.62 87.0 L 65.0 92.46000000000001 L 60.379999999999995 87.0 Z" fill="#c40010"/>
</g>
</svg>
