<svg xmlns="http://www.w3.org/2000/svg" viewBox="0 0 84 114" width="84" height="114">
  <defs>
    <radialGradient id="nebBack" cx="35%" cy="28%" r="70%">
      <stop offset="0" stop-color="#2b1cff" stop-opacity="0.35"/>
      <stop offset="0.35" stop-color="#ff2bd6" stop-opacity="0.22"/>
      <stop offset="0.75" stop-color="#00e6ff" stop-opacity="0.14"/>
      <stop offset="1" stop-color="#000000" stop-opacity="0"/>
    </radialGradient>
    <linearGradient id="backBase" x1="0" y1="0" x2="0" y2="1">
      <stop offset="0" stop-color="#0b0b12"/>
      <stop offset="1" stop-color="#05050a"/>
    </linearGradient>
    <filter id="softGlow" x="-30%" y="-30%" width="160%" height="160%">
      <feGaussianBlur stdDeviation="0.7" result="b"/>
      <feMerge>
        <feMergeNode in="b"/>
        <feMergeNode in="SourceGraphic"/>
      </feMerge>
    </filter>
  </defs>
<rect x="0" y="0" width="84" height="114" rx="6" ry="6" fill="#ffffff"/>
<g>
<circle cx="45.03" cy="24.00" r="0.22" fill="#111111" opacity="0.08"/>
<circle cx="60.32" cy="57.85" r="0.53" fill="#111111" opacity="0.05"/>
<circle cx="6.05" cy="81.33" r="0.22" fill="#111111" opacity="0.10"/>
<circle cx="8.61" cy="2.02" r="0.25" fill="#111111" opacity="0.04"/>
<circle cx="62.23" cy="42.63" r="0.33" fill="#111111" opacity="0.07"/>
<circle cx="74.36" cy="94.88" r="0.51" fill="#111111" opacity="0.07"/>
<circle cx="39.39" cy="95.83" r="0.39" fill="#111111" opacity="0.07"/>
<circle cx="57.08" cy="21.61" r="0.44" fill="#111111" opacity="0.11"/>
<circle cx="22.25" cy="89.43" r="0.47" fill="#111111" opacity="0.12"/>
<circle cx="72.80" cy="37.17" r="0.13" fill="#111111" opacity="0.08"/>
<circle cx="74.22" cy="85.90" r="0.49" fill="#111111" opacity="0.09"/>
<circle cx="39.84" cy="2.80" r="0.41" fill="#111111" opacity="0.11"/>
<circle cx="75.97" cy="100.27" r="0.50" fill="#111111" opacity="0.12"/>
<circle cx="19.82" cy="55.21" r="0.30" fill="#111111" opacity="0.09"/>
<circle cx="9.97" cy="91.40" r="0.29" fill="#111111" opacity="0.07"/>
<circle cx="42.27" cy="67.73" r="0.13" fill="#111111" opacity="0.04"/>
<circle cx="12.12" cy="111.82" r="0.16" fill="#111111" opacity="0.05"/>
<circle cx="59.53" cy="43.85" r="0.20" fill="#111111" opacity="0.08"/>
<circle cx="37.05" cy="88.87" r="0.55" fill="#111111" opacity="0.08"/>
<circle cx="34.97" cy="31.50" r="0.49" fill="#111111" opacity="0.08"/>
<circle cx="57.31" cy="56.11" r="0.24" fill="#111111" opacity="0.12"/>
<circle cx="16.90" cy="41.50" r="0.40" fill="#111111" opacity="0.09"/>
<circle cx="73.71" cy="93.20" r="0.30" fill="#111111" opacity="0.07"/>
<circle cx="71.33" cy="26.80" r="0.47" fill="#111111" opacity="0.06"/>
<circle cx="0.73" cy="26.44" r="0.35" fill="#111111" opacity="0.09"/>
<circle cx="36.12" cy="29.44" r="0.51" fill="#111111" opacity="0.05"/>
<circle cx="52.52" cy="111.69" r="0.26" fill="#111111" opacity="0.12"/>
<circle cx="73.93" cy="81.21" r="0.35" fill="#111111" opacity="0.04"/>
<circle cx="1.93" cy="22.51" r="0.23" fill="#111111" opacity="0.12"/>
<circle cx="41.39" cy="45.15" r="0.53" fill="#111111" opacity="0.08"/>
<circle cx="0.79" cy="25.26" r="0.30" fill="#111111" opacity="0.05"/>
<circle cx="14.60" cy="101.15" r="0.33" fill="#111111" opacity="0.10"/>
<circle cx="25.73" cy="3.20" r="0.34" fill="#111111" opacity="0.05"/>
<circle cx="5.10" cy="44.40" r="0.54" fill="#111111" opacity="0.10"/>
<circle cx="2.11" cy="57.86" r="0.34" fill="#111111" opacity="0.09"/>
<circle cx="52.48" cy="17.55" r="0.13" fill="#111111" opacity="0.10"/>
</g>
<rect x="1.6" y="1.6" width="80.8" height="110.8" rx="5.0" ry="5.0" fill="none" stroke="#2a2f3a" stroke-width="1.2"/>
<rect x="3.4" y="3.4" width="77.2" height="107.2" rx="4.2" ry="4.2" fill="none" stroke="#b9bec9" stroke-width="0.9" opacity="0.95"/>
<g>
<rect x="4.0" y="4.0" width="21.5" height="18.5" rx="2.2" ry="2.2" fill="#ffffff" stroke="#c8ccd6" stroke-width="0.6" opacity="0.98"/>

<g>
<rect x="11.98" y="5.90" width="1.22" height="11.78" rx="0.61" ry="0.61" fill="#c40010"/>
<rect x="6.90" y="16.46" width="5.59" height="1.22" rx="0.61" ry="0.61" fill="#c40010"/>
</g>
<g>
<rect x="14.29" y="5.90" width="6.99" height="1.22" rx="0.61" ry="0.61" fill="#c40010"/>
<rect x="14.29" y="16.46" width="6.99" height="1.22" rx="0.61" ry="0.61" fill="#c40010"/>
<rect x="14.29" y="5.90" width="1.22" height="11.78" rx="0.61" ry="0.61" fill="#c40010"/>
<rect x="20.06" y="5.90" width="1.22" height="11.78" rx="0.61" ry="0.61" fill="#c40010"/>
</g>
<path d="M 26.0784 18.832 C 21.3984 16.18, 22.568399999999997 11.11, 26.0784 13.996 C 29.5884 11.11, 30.758399999999998 16.18, 26.0784 18.832 Z" fill="#c40010"/>
</g>
<g transform="rotate(180 68.00 97.00)">
<rect x="56.0" y="84.0" width="21.5" height="18.5" rx="2.2" ry="2.2" fill="#ffffff" stroke="#c8ccd6" stroke-width="0.6" opacity="0.98"/>

<g>
<rect x="63.98" y="85.90" width="1.22" height="11.78" rx="0.61" ry="0.61" fill="#c40010"/>
<rect x="58.90" y="96.46" width="5.59" height="1.22" rx="0.61" ry="0.61" fill="#c40010"/>
</g>
<g>
<rect x="66.29" y="85.90" width="6.99" height="1.22" rx="0.61" ry="0.61" fill="#c40010"/>
<rect x="66.29" y="96.46" width="6.99" height="1.22" rx="0.61" ry="0.61" fill="#c40010"/>
<rect x="66.29" y="85.90" width="1.22" height="11.78" rx="0.61" ry="0.61" fill="#c40010"/>
<rect x="72.06" y="85.90" width="1.22" height="11.78" rx="0.61" ry="0.61" fill="#c40010"/>
</g>
<path d="M 78.0784 98.83200000000001 C 73.39840000000001 96.18, 74.5684 91.11, 78.0784 93.99600000000001 C 81.58840000000001 91.11, 82.7584 96.18, 78.0784 98.83200000000001 Z" fill="#c40010"/>
</g>
<g>
<path d="M 19.0 30.696 C 13.96 27.84, 15.219999999999999 22.38, 19.0 25.488 C 22.78 22.38, 24.04 27.84, 19.0 30.696 Z" fill="#c40010"/>
<path d="M 65.0 30.696 C 59.96 27.84, 61.22 22.38, 65.0 25.488 C 68.78 22.38, 70.04 27.84, 65.0 30.696 Z" fill="#c40010"/>
<path d="M 42.0 44.495999999999995 C 36.96 41.64, 38.22 36.17999999999999, 42.0 39.288 C 45.78 36.17999999999999, 47.04 41.64, 42.0 44.495999999999995 Z" fill="#c40010"/>
<path d="M 19.0 44.495999999999995 C 13.96 41.64, 15.219999999999999 36.17999999999999, 19.0 39.288 C 22.78 36.17999999999999, 24.04 41.64, 19.0 44.495999999999995 Z" fill="#c40010"/>
<path d="M 65.0 44.495999999999995 C 59.96 41.64, 61.22 36.17999999999999, 65.0 39.288 C 68.78 36.17999999999999, 70.04 41.64, 65.0 44.495999999999995 Z" fill="#c40010"/>
<path d="M 19.0 76.896 C 13.96 74.04, 15.219999999999999 68.58, 19.0 71.688 C 22.78 68.58, 24.04 74.04, 19.0 76.896 Z" fill="#c40010"/>
<path d="M 65.0 76.896 C 59.96 74.04, 61.22 68.58, 65.0 71.688 C 68.78 68.58, 70.04 74.04, 65.0 76.896 Z" fill="#c40010"/>
<path d="M 42.0 76.896 C 36.96 74.04, 38.22 68.58, 42.0 71.688 C 45.78 68.58, 47.04 74.04, 42.0 76.896 Z" fill="#c40010"/>
<path d="M 19.0 90.696 C 13.96 87.84, 15.219999999999999 82.38, 19.0 85.488 C 22.78 82.38, 24.04 87.84, 19.0 90.696 Z" fill="#c40010"/>
<path d="M 65.0 90.696 C 59.96 87.84, 61.22 82.38, 65.0 85.488 C 68.78 82.38, 70.04 87.84, 65.0 90.696 Z" fill="#c40010"/>
</g>
</svg>
