<svg xmlns="http://www.w3.org/2000/svg" viewBox="0 0 84 114" width="84" height="114">
  <defs>
    <radialGradient id="nebBack" cx="35%" cy="28%" r="70%">
      <stop offset="0" stop-color="#2b1cff" stop-opacity="0.35"/>
      <stop offset="0.35" stop-color="#ff2bd6" stop-opacity="0.22"/>
      <stop offset="0.75" stop-color="#00e6ff" stop-opacity="0.14"/>
      <stop offset="1" stop-color="#000000" stop-opacity="0"/>
    </radialGradient>
    <linearGradient id="backBase" x1="0" y1="0" x2="0" y2="1">
      <stop offset="0" stop-color="#0b0b12"/>
      <stop offset="1" stop-color="#05050a"/>
    </linearGradient>
    <filter id="softGlow" x="-30%" y="-30%" width="160%" height="160%">
      <feGaussianBlur stdDeviation="0.7" result="b"/>
      <feMerge>
        <feMergeNode in="b"/>
        <feMergeNode in="SourceGraphic"/>
      </feMerge>
    </filter>
  </defs>
<rect x="0" y="0" width="84" height="114" rx="6" ry="6" fill="#ffffff"/>
<g>
<circle cx="12.68" cy="86.13" r="0.13" fill="#111111" opacity="0.06"/>
<circle cx="22.42" cy="23.15" r="0.47" fill="#111111" opacity="0.06"/>
<circle cx="3.52" cy="27.70" r="0.48" fill="#111111" opacity="0.06"/>
<circle cx="67.86" cy="60.77" r="0.15" fill="#111111" opacity="0.06"/>
<circle cx="44.57" cy="54.66" r="0.50" fill="#111111" opacity="0.07"/>
<circle cx="25.55" cy="78.36" r="0.35" fill="#111111" opacity="0.04"/>
<circle cx="14.58" cy="28.45" r="0.30" fill="#111111" opacity="0.08"/>
<circle cx="52.47" cy="20.89" r="0.32" fill="#111111" opacity="0.06"/>
<circle cx="12.78" cy="38.13" r="0.38" fill="#111111" opacity="0.07"/>
<circle cx="59.20" cy="75.09" r="0.14" fill="#111111" opacity="0.07"/>
<circle cx="19.30" cy="92.36" r="0.46" fill="#111111" opacity="0.12"/>
<circle cx="38.39" cy="86.20" r="0.30" fill="#111111" opacity="0.04"/>
<circle cx="28.77" cy="8.60" r="0.43" fill="#111111" opacity="0.08"/>
<circle cx="50.08" cy="96.61" r="0.47" fill="#111111" opacity="0.10"/>
<circle cx="22.51" cy="89.42" r="0.19" fill="#111111" opacity="0.03"/>
<circle cx="57.23" cy="7.19" r="0.16" fill="#111111" opacity="0.12"/>
<circle cx="51.95" cy="65.02" r="0.17" fill="#111111" opacity="0.07"/>
<circle cx="67.06" cy="67.55" r="0.39" fill="#111111" opacity="0.09"/>
<circle cx="72.18" cy="29.45" r="0.32" fill="#111111" opacity="0.13"/>
<circle cx="16.57" cy="83.08" r="0.52" fill="#111111" opacity="0.08"/>
<circle cx="45.95" cy="19.76" r="0.53" fill="#111111" opacity="0.09"/>
<circle cx="82.37" cy="46.39" r="0.20" fill="#111111" opacity="0.05"/>
<circle cx="79.49" cy="75.04" r="0.38" fill="#111111" opacity="0.06"/>
<circle cx="33.02" cy="45.91" r="0.15" fill="#111111" opacity="0.08"/>
<circle cx="82.76" cy="42.19" r="0.20" fill="#111111" opacity="0.11"/>
<circle cx="50.59" cy="6.46" r="0.13" fill="#111111" opacity="0.07"/>
<circle cx="50.75" cy="27.85" r="0.38" fill="#111111" opacity="0.10"/>
<circle cx="62.53" cy="103.00" r="0.14" fill="#111111" opacity="0.11"/>
<circle cx="9.52" cy="0.82" r="0.20" fill="#111111" opacity="0.09"/>
<circle cx="46.76" cy="10.31" r="0.16" fill="#111111" opacity="0.08"/>
<circle cx="56.43" cy="86.64" r="0.49" fill="#111111" opacity="0.04"/>
<circle cx="30.04" cy="112.57" r="0.17" fill="#111111" opacity="0.10"/>
<circle cx="83.11" cy="85.99" r="0.40" fill="#111111" opacity="0.09"/>
<circle cx="78.78" cy="22.83" r="0.57" fill="#111111" opacity="0.10"/>
<circle cx="49.82" cy="40.41" r="0.18" fill="#111111" opacity="0.06"/>
<circle cx="6.71" cy="33.29" r="0.21" fill="#111111" opacity="0.05"/>
</g>
<rect x="1.6" y="1.6" width="80.8" height="110.8" rx="5.0" ry="5.0" fill="none" stroke="#2a2f3a" stroke-width="1.2"/>
<rect x="3.4" y="3.4" width="77.2" height="107.2" rx="4.2" ry="4.2" fill="none" stroke="#b9bec9" stroke-width="0.9" opacity="0.95"/>
<g>
<rect x="4.0" y="4.0" width="21.5" height="18.5" rx="2.2" ry="2.2" fill="#ffffff" stroke="#c8ccd6" stroke-width="0.6" opacity="0.98"/>

<g>
<rect x="11.98" y="5.90" width="1.22" height="11.78" rx="0.61" ry="0.61" fill="#111111"/>
<rect x="6.90" y="16.46" width="5.59" height="1.22" rx="0.61" ry="0.61" fill="#111111"/>
</g>
<g>
<rect x="14.29" y="5.90" width="6.99" height="1.22" rx="0.61" ry="0.61" fill="#111111"/>
<rect x="14.29" y="16.46" width="6.99" height="1.22" rx="0.61" ry="0.61" fill="#111111"/>
<rect x="14.29" y="5.90" width="1.22" height="11.78" rx="0.61" ry="0.61" fill="#111111"/>
<rect x="20.06" y="5.90" width="1.22" height="11.78" rx="0.61" ry="0.61" fill="#111111"/>
</g>
<path d="M 26.0784 11.11 C 21.554399999999998 15.01, 24.0504 18.13, 26.0784 16.18 C 28.106399999999997 18.13, 30.6024 15.01, 26.0784 11.11 Z" fill="#111111"/><path d="M 25.1424 16.336 C 25.6104 17.584, 25.6104 18.832, 24.5184 20.236 L 27.638399999999997 20.236 C 26.5464 18.832, 26.5464 17.584, 27.0144 16.336 Z" fill="#111111"/>
</g>
<g transform="rotate(180 68.00 97.00)">
<rect x="56.0" y="84.0" width="21.5" height="18.5" rx="2.2" ry="2.2" fill="#ffffff" stroke="#c8ccd6" stroke-width="0.6" opacity="0.98"/>

<g>
<rect x="63.98" y="85.90" width="1.22" height="11.78" rx="0.61" ry="0.61" fill="#111111"/>
<rect x="58.90" y="96.46" width="5.59" height="1.22" rx="0.61" ry="0.61" fill="#111111"/>
</g>
<g>
<rect x="66.29" y="85.90" width="6.99" height="1.22" rx="0.61" ry="0.61" fill="#111111"/>
<rect x="66.29" y="96.46" width="6.99" height="1.22" rx="0.61" ry="0.61" fill="#111111"/>
<rect x="66.29" y="85.90" width="1.22" height="11.78" rx="0.61" ry="0.61" fill="#111111"/>
<rect x="72.06" y="85.90" width="1.22" height="11.78" rx="0.61" ry="0.61" fill="#111111"/>
</g>
<path d="M 78.0784 91.11 C 73.5544 95.01, 76.0504 98.13000000000001, 78.0784 96.18 C 80.10640000000001 98.13000000000001, 82.6024 95.01, 78.0784 91.11 Z" fill="#111111"/><path d="M 77.14240000000001 96.33600000000001 C 77.6104 97.584, 77.6104 98.83200000000001, 76.5184 100.236 L 79.6384 100.236 C 78.5464 98.83200000000001, 78.5464 97.584, 79.0144 96.33600000000001 Z" fill="#111111"/>
</g>
<g>
<path d="M 19.0 22.38 C 14.128 26.58, 16.816 29.94, 19.0 27.84 C 21.184 29.94, 23.872 26.58, 19.0 22.38 Z" fill="#111111"/><path d="M 17.992 28.008 C 18.496 29.352, 18.496 30.696, 17.32 32.208 L 20.68 32.208 C 19.504 30.696, 19.504 29.352, 20.008 28.008 Z" fill="#111111"/>
<path d="M 65.0 22.38 C 60.128 26.58, 62.816 29.94, 65.0 27.84 C 67.184 29.94, 69.872 26.58, 65.0 22.38 Z" fill="#111111"/><path d="M 63.992 28.008 C 64.496 29.352, 64.496 30.696, 63.32 32.208 L 66.68 32.208 C 65.504 30.696, 65.504 29.352, 66.008 28.008 Z" fill="#111111"/>
<path d="M 42.0 36.17999999999999 C 37.128 40.379999999999995, 39.816 43.739999999999995, 42.0 41.64 C 44.184 43.739999999999995, 46.872 40.379999999999995, 42.0 36.17999999999999 Z" fill="#111111"/><path d="M 40.992 41.808 C 41.496 43.152, 41.496 44.495999999999995, 40.32 46.007999999999996 L 43.68 46.007999999999996 C 42.504 44.495999999999995, 42.504 43.152, 43.008 41.808 Z" fill="#111111"/>
<path d="M 19.0 36.17999999999999 C 14.128 40.379999999999995, 16.816 43.739999999999995, 19.0 41.64 C 21.184 43.739999999999995, 23.872 40.379999999999995, 19.0 36.17999999999999 Z" fill="#111111"/><path d="M 17.992 41.808 C 18.496 43.152, 18.496 44.495999999999995, 17.32 46.007999999999996 L 20.68 46.007999999999996 C 19.504 44.495999999999995, 19.504 43.152, 20.008 41.808 Z" fill="#111111"/>
<path d="M 65.0 36.17999999999999 C 60.128 40.379999999999995, 62.816 43.739999999999995, 65.0 41.64 C 67.184 43.739999999999995, 69.872 40.379999999999995, 65.0 36.17999999999999 Z" fill="#111111"/><path d="M 63.992 41.808 C 64.496 43.152, 64.496 44.495999999999995, 63.32 46.007999999999996 L 66.68 46.007999999999996 C 65.504 44.495999999999995, 65.504 43.152, 66.008 41.808 Z" fill="#111111"/>
<path d="M 19.0 68.58 C 14.128 72.78, 16.816 76.14, 19.0 74.04 C 21.184 76.14, 23.872 72.78, 19.0 68.58 Z" fill="#111111"/><path d="M 17.992 74.208 C 18.496 75.552, 18.496 76.896, 17.32 78.408 L 20.68 78.408 C 19.504 76.896, 19.504 75.552, 20.008 74.208 Z" fill="#111111"/>
<path d="M 65.0 68.58 C 60.128 72.78, 62.816 76.14, 65.0 74.04 C 67.184 76.14, 69.872 72.78, 65.0 68.58 Z" fill="#111111"/><path d="M 63.992 74.208 C 64.496 75.552, 64.496 76.896, 63.32 78.408 L 66.68 78.408 C 65.504 76.896, 65.504 75.552, 66.008 74.208 Z" fill="#111111"/>
<path d="M 42.0 68.58 C 37.128 72.78, 39.816 76.14, 42.0 74.04 C 44.184 76.14, 46.872 72.78, 42.0 68.58 Z" fill="#111111"/><path d="M 40.992 74.208 C 41.496 75.552, 41.496 76.896, 40.32 78.408 L 43.68 78.408 C 42.504 76.896, 42.504 75.552, 43.008 74.208 Z" fill="#111111"/>
<path d="M 19.0 82.38 C 14.128 86.58, 16.816 89.94, 19.0 87.84 C 21.184 89.94, 23.872 86.58, 19.0 82.38 Z" fill="#111111"/><path d="M 17.992 88.008 C 18.496 89.352, 18.496 90.696, 17.32 92.208 L 20.68 92.208 C 19.504 90.696, 19.504 89.352, 20.008 88.008 Z" fill="#111111"/>
<path d="M 65.0 82.38 C 60.128 86.58, 62.816 89.94, 65.0 87.84 C 67.184 89.94, 69.872 86.58, 65.0 82.38 Z" fill="#111111"/><path d="M 63.992 88.008 C 64.496 89.352, 64.496 90.696, 63.32 92.208 L 66.68 92.208 C 65.504 90.696, 65.504 89.352, 66.008 88.008 Z" fill="#111111"/>
</g>
</svg>
