<svg xmlns="http://www.w3.org/2000/svg" viewBox="0 0 84 114" width="84" height="114">
  <defs>
    <radialGradient id="nebBack" cx="35%" cy="28%" r="70%">
      <stop offset="0" stop-color="#2b1cff" stop-opacity="0.35"/>
      <stop offset="0.35" stop-color="#ff2bd6" stop-opacity="0.22"/>
      <stop offset="0.75" stop-color="#00e6ff" stop-opacity="0.14"/>
      <stop offset="1" stop-color="#000000" stop-opacity="0"/>
    </radialGradient>
    <linearGradient id="backBase" x1="0" y1="0" x2="0" y2="1">
      <stop offset="0" stop-color="#0b0b12"/>
      <stop offset="1" stop-color="#05050a"/>
    </linearGradient>
    <filter id="softGlow" x="-30%" y="-30%" width="160%" height="160%">
      <feGaussianBlur stdDeviation="0.7" result="b"/>
      <feMerge>
        <feMergeNode in="b"/>
        <feMergeNode in="SourceGraphic"/>
      </feMerge>
    </filter>
  </defs>
<rect x="0" y="0" width="84" height="114" rx="6" ry="6" fill="#ffffff"/>
<g>
<circle cx="38.16" cy="78.32" r="0.42" fill="#111111" opacity="0.04"/>
<circle cx="40.48" cy="16.03" r="0.18" fill="#111111" opacity="0.10"/>
<circle cx="79.67" cy="2.06" r="0.41" fill="#111111" opacity="0.04"/>
<circle cx="43.35" cy="44.37" r="0.43" fill="#111111" opacity="0.06"/>
<circle cx="20.58" cy="95.54" r="0.15" fill="#111111" opacity="0.04"/>
<circle cx="46.40" cy="81.00" r="0.44" fill="#111111" opacity="0.08"/>
<circle cx="31.07" cy="84.17" r="0.36" fill="#111111" opacity="0.07"/>
<circle cx="28.78" cy="18.80" r="0.32" fill="#111111" opacity="0.05"/>
<circle cx="39.48" cy="43.84" r="0.47" fill="#111111" opacity="0.09"/>
<circle cx="74.21" cy="63.95" r="0.45" fill="#111111" opacity="0.07"/>
<circle cx="28.59" cy="59.95" r="0.51" fill="#111111" opacity="0.07"/>
<circle cx="54.90" cy="91.98" r="0.23" fill="#111111" opacity="0.11"/>
<circle cx="48.80" cy="21.12" r="0.23" fill="#111111" opacity="0.10"/>
<circle cx="18.94" cy="104.63" r="0.41" fill="#111111" opacity="0.10"/>
<circle cx="6.60" cy="55.73" r="0.38" fill="#111111" opacity="0.12"/>
<circle cx="20.22" cy="31.31" r="0.54" fill="#111111" opacity="0.06"/>
<circle cx="59.09" cy="77.18" r="0.48" fill="#111111" opacity="0.12"/>
<circle cx="58.72" cy="1.02" r="0.37" fill="#111111" opacity="0.09"/>
<circle cx="26.03" cy="36.20" r="0.26" fill="#111111" opacity="0.03"/>
<circle cx="22.77" cy="18.00" r="0.21" fill="#111111" opacity="0.03"/>
<circle cx="6.24" cy="75.88" r="0.30" fill="#111111" opacity="0.05"/>
<circle cx="35.63" cy="13.34" r="0.22" fill="#111111" opacity="0.04"/>
<circle cx="57.35" cy="25.94" r="0.51" fill="#111111" opacity="0.06"/>
<circle cx="42.36" cy="105.09" r="0.32" fill="#111111" opacity="0.11"/>
<circle cx="40.97" cy="68.36" r="0.19" fill="#111111" opacity="0.12"/>
<circle cx="43.13" cy="28.47" r="0.39" fill="#111111" opacity="0.08"/>
<circle cx="10.68" cy="5.14" r="0.14" fill="#111111" opacity="0.06"/>
<circle cx="52.30" cy="90.42" r="0.35" fill="#111111" opacity="0.06"/>
<circle cx="76.35" cy="13.60" r="0.42" fill="#111111" opacity="0.06"/>
<circle cx="71.96" cy="95.68" r="0.22" fill="#111111" opacity="0.07"/>
<circle cx="63.70" cy="32.63" r="0.31" fill="#111111" opacity="0.08"/>
<circle cx="29.81" cy="79.42" r="0.17" fill="#111111" opacity="0.05"/>
<circle cx="51.56" cy="47.16" r="0.27" fill="#111111" opacity="0.11"/>
<circle cx="42.51" cy="5.29" r="0.22" fill="#111111" opacity="0.10"/>
<circle cx="15.56" cy="37.91" r="0.26" fill="#111111" opacity="0.08"/>
<circle cx="32.16" cy="111.53" r="0.23" fill="#111111" opacity="0.11"/>
</g>
<rect x="1.6" y="1.6" width="80.8" height="110.8" rx="5.0" ry="5.0" fill="none" stroke="#2a2f3a" stroke-width="1.2"/>
<rect x="3.4" y="3.4" width="77.2" height="107.2" rx="4.2" ry="4.2" fill="none" stroke="#b9bec9" stroke-width="0.9" opacity="0.95"/>
<g>
<rect x="4.0" y="4.0" width="21.5" height="18.5" rx="2.2" ry="2.2" fill="#ffffff" stroke="#c8ccd6" stroke-width="0.6" opacity="0.98"/>

<g>
<rect x="6.20" y="5.90" width="6.99" height="1.22" rx="0.61" ry="0.61" fill="#c40010"/>
<rect x="6.20" y="11.79" width="6.99" height="1.22" rx="0.61" ry="0.61" fill="#c40010"/>
<rect x="6.20" y="16.46" width="6.99" height="1.22" rx="0.61" ry="0.61" fill="#c40010"/>
<rect x="11.98" y="5.90" width="1.22" height="6.13" rx="0.61" ry="0.61" fill="#c40010"/>
<rect x="6.20" y="12.03" width="1.22" height="5.65" rx="0.61" ry="0.61" fill="#c40010"/>
</g>
<path d="M 17.992 10.33 L 22.282 15.4 L 17.992 20.47 L 13.702000000000002 15.4 Z" fill="#c40010"/>
</g>
<g transform="rotate(180 68.00 97.00)">
<rect x="56.0" y="84.0" width="21.5" height="18.5" rx="2.2" ry="2.2" fill="#ffffff" stroke="#c8ccd6" stroke-width="0.6" opacity="0.98"/>

<g>
<rect x="58.20" y="85.90" width="6.99" height="1.22" rx="0.61" ry="0.61" fill="#c40010"/>
<rect x="58.20" y="91.79" width="6.99" height="1.22" rx="0.61" ry="0.61" fill="#c40010"/>
<rect x="58.20" y="96.46" width="6.99" height="1.22" rx="0.61" ry="0.61" fill="#c40010"/>
<rect x="63.98" y="85.90" width="1.22" height="6.13" rx="0.61" ry="0.61" fill="#c40010"/>
<rect x="58.20" y="92.03" width="1.22" height="5.65" rx="0.61" ry="0.61" fill="#c40010"/>
</g>
<path d="M 69.99199999999999 90.33000000000001 L 74.282 95.4 L 69.99199999999999 100.47 L 65.70199999999998 95.4 Z" fill="#c40010"/>
</g>
<g>
<path d="M 42.0 20.37 L 47.61 27.0 L 42.0 33.63 L 36.39 27.0 Z" fill="#c40010"/>
<path d="M 42.0 80.37 L 47.61 87.0 L 42.0 93.63 L 36.39 87.0 Z" fill="#c40010"/>
</g>
</svg>
