<svg xmlns="http://www.w3.org/2000/svg" viewBox="0 0 84 114" width="84" height="114">
  <defs>
    <radialGradient id="nebBack" cx="35%" cy="28%" r="70%">
      <stop offset="0" stop-color="#2b1cff" stop-opacity="0.35"/>
      <stop offset="0.35" stop-color="#ff2bd6" stop-opacity="0.22"/>
      <stop offset="0.75" stop-color="#00e6ff" stop-opacity="0.14"/>
      <stop offset="1" stop-color="#000000" stop-opacity="0"/>
    </radialGradient>
    <linearGradient id="backBase" x1="0" y1="0" x2="0" y2="1">
      <stop offset="0" stop-color="#0b0b12"/>
      <stop offset="1" stop-color="#05050a"/>
    </linearGradient>
    <filter id="softGlow" x="-30%" y="-30%" width="160%" height="160%">
      <feGaussianBlur stdDeviation="0.7" result="b"/>
      <feMerge>
        <feMergeNode in="b"/>
        <feMergeNode in="SourceGraphic"/>
      </feMerge>
    </filter>
  </defs>
<rect x="0" y="0" width="84" height="114" rx="6" ry="6" fill="#ffffff"/>
<g>
<circle cx="37.87" cy="89.60" r="0.48" fill="#111111" opacity="0.07"/>
<circle cx="57.16" cy="102.27" r="0.30" fill="#111111" opacity="0.06"/>
<circle cx="40.16" cy="1.34" r="0.57" fill="#111111" opacity="0.09"/>
<circle cx="1.21" cy="17.86" r="0.27" fill="#111111" opacity="0.08"/>
<circle cx="53.92" cy="94.77" r="0.26" fill="#111111" opacity="0.10"/>
<circle cx="57.61" cy="12.75" r="0.32" fill="#111111" opacity="0.05"/>
<circle cx="4.61" cy="107.96" r="0.13" fill="#111111" opacity="0.08"/>
<circle cx="73.07" cy="76.25" r="0.19" fill="#111111" opacity="0.07"/>
<circle cx="79.32" cy="6.30" r="0.23" fill="#111111" opacity="0.07"/>
<circle cx="38.00" cy="70.97" r="0.44" fill="#111111" opacity="0.13"/>
<circle cx="6.56" cy="102.16" r="0.30" fill="#111111" opacity="0.07"/>
<circle cx="65.86" cy="48.46" r="0.33" fill="#111111" opacity="0.08"/>
<circle cx="61.90" cy="96.29" r="0.33" fill="#111111" opacity="0.09"/>
<circle cx="32.90" cy="37.24" r="0.14" fill="#111111" opacity="0.03"/>
<circle cx="83.63" cy="52.37" r="0.36" fill="#111111" opacity="0.09"/>
<circle cx="47.26" cy="31.22" r="0.47" fill="#111111" opacity="0.12"/>
<circle cx="49.64" cy="69.25" r="0.42" fill="#111111" opacity="0.05"/>
<circle cx="19.08" cy="49.35" r="0.20" fill="#111111" opacity="0.09"/>
<circle cx="68.42" cy="14.74" r="0.13" fill="#111111" opacity="0.05"/>
<circle cx="78.53" cy="17.42" r="0.31" fill="#111111" opacity="0.10"/>
<circle cx="53.12" cy="38.27" r="0.13" fill="#111111" opacity="0.13"/>
<circle cx="80.23" cy="0.04" r="0.54" fill="#111111" opacity="0.10"/>
<circle cx="24.70" cy="43.21" r="0.45" fill="#111111" opacity="0.05"/>
<circle cx="65.80" cy="5.83" r="0.54" fill="#111111" opacity="0.06"/>
<circle cx="63.82" cy="2.85" r="0.41" fill="#111111" opacity="0.04"/>
<circle cx="15.13" cy="19.85" r="0.31" fill="#111111" opacity="0.03"/>
<circle cx="68.19" cy="113.80" r="0.32" fill="#111111" opacity="0.06"/>
<circle cx="21.62" cy="0.06" r="0.36" fill="#111111" opacity="0.08"/>
<circle cx="39.53" cy="104.07" r="0.13" fill="#111111" opacity="0.05"/>
<circle cx="6.21" cy="95.94" r="0.13" fill="#111111" opacity="0.13"/>
<circle cx="30.20" cy="67.85" r="0.46" fill="#111111" opacity="0.06"/>
<circle cx="28.89" cy="13.41" r="0.37" fill="#111111" opacity="0.03"/>
<circle cx="20.11" cy="93.69" r="0.41" fill="#111111" opacity="0.07"/>
<circle cx="71.22" cy="92.70" r="0.21" fill="#111111" opacity="0.07"/>
<circle cx="39.79" cy="90.87" r="0.41" fill="#111111" opacity="0.03"/>
<circle cx="7.93" cy="66.52" r="0.42" fill="#111111" opacity="0.06"/>
</g>
<rect x="1.6" y="1.6" width="80.8" height="110.8" rx="5.0" ry="5.0" fill="none" stroke="#2a2f3a" stroke-width="1.2"/>
<rect x="3.4" y="3.4" width="77.2" height="107.2" rx="4.2" ry="4.2" fill="none" stroke="#b9bec9" stroke-width="0.9" opacity="0.95"/>
<g>
<rect x="4.0" y="4.0" width="21.5" height="18.5" rx="2.2" ry="2.2" fill="#ffffff" stroke="#c8ccd6" stroke-width="0.6" opacity="0.98"/>

<g>
<rect x="6.20" y="5.90" width="6.99" height="1.22" rx="0.61" ry="0.61" fill="#c40010"/>
<rect x="6.20" y="11.79" width="6.99" height="1.22" rx="0.61" ry="0.61" fill="#c40010"/>
<rect x="6.20" y="16.46" width="6.99" height="1.22" rx="0.61" ry="0.61" fill="#c40010"/>
<rect x="11.98" y="5.90" width="1.22" height="6.13" rx="0.61" ry="0.61" fill="#c40010"/>
<rect x="6.20" y="12.03" width="1.22" height="5.65" rx="0.61" ry="0.61" fill="#c40010"/>
</g>
<path d="M 17.992 18.832 C 13.312000000000001 16.18, 14.482000000000001 11.11, 17.992 13.996 C 21.502000000000002 11.11, 22.672 16.18, 17.992 18.832 Z" fill="#c40010"/>
</g>
<g transform="rotate(180 68.00 97.00)">
<rect x="56.0" y="84.0" width="21.5" height="18.5" rx="2.2" ry="2.2" fill="#ffffff" stroke="#c8ccd6" stroke-width="0.6" opacity="0.98"/>

<g>
<rect x="58.20" y="85.90" width="6.99" height="1.22" rx="0.61" ry="0.61" fill="#c40010"/>
<rect x="58.20" y="91.79" width="6.99" height="1.22" rx="0.61" ry="0.61" fill="#c40010"/>
<rect x="58.20" y="96.46" width="6.99" height="1.22" rx="0.61" ry="0.61" fill="#c40010"/>
<rect x="63.98" y="85.90" width="1.22" height="6.13" rx="0.61" ry="0.61" fill="#c40010"/>
<rect x="58.20" y="92.03" width="1.22" height="5.65" rx="0.61" ry="0.61" fill="#c40010"/>
</g>
<path d="M 69.99199999999999 98.83200000000001 C 65.31199999999998 96.18, 66.48199999999999 91.11, 69.99199999999999 93.99600000000001 C 73.502 91.11, 74.672 96.18, 69.99199999999999 98.83200000000001 Z" fill="#c40010"/>
</g>
<g>
<path d="M 42.0 31.488 C 35.88 28.02, 37.41 21.39, 42.0 25.164 C 46.59 21.39, 48.12 28.02, 42.0 31.488 Z" fill="#c40010"/>
<path d="M 42.0 91.488 C 35.88 88.02, 37.41 81.39, 42.0 85.164 C 46.59 81.39, 48.12 88.02, 42.0 91.488 Z" fill="#c40010"/>
</g>
</svg>
