<svg xmlns="http://www.w3.org/2000/svg" viewBox="0 0 84 114" width="84" height="114">
  <defs>
    <radialGradient id="nebBack" cx="35%" cy="28%" r="70%">
      <stop offset="0" stop-color="#2b1cff" stop-opacity="0.35"/>
      <stop offset="0.35" stop-color="#ff2bd6" stop-opacity="0.22"/>
      <stop offset="0.75" stop-color="#00e6ff" stop-opacity="0.14"/>
      <stop offset="1" stop-color="#000000" stop-opacity="0"/>
    </radialGradient>
    <linearGradient id="backBase" x1="0" y1="0" x2="0" y2="1">
      <stop offset="0" stop-color="#0b0b12"/>
      <stop offset="1" stop-color="#05050a"/>
    </linearGradient>
    <filter id="softGlow" x="-30%" y="-30%" width="160%" height="160%">
      <feGaussianBlur stdDeviation="0.7" result="b"/>
      <feMerge>
        <feMergeNode in="b"/>
        <feMergeNode in="SourceGraphic"/>
      </feMerge>
    </filter>
  </defs>
<rect x="0" y="0" width="84" height="114" rx="6" ry="6" fill="#ffffff"/>
<g>
<circle cx="31.30" cy="60.53" r="0.37" fill="#111111" opacity="0.05"/>
<circle cx="0.16" cy="25.66" r="0.36" fill="#111111" opacity="0.13"/>
<circle cx="0.66" cy="97.46" r="0.13" fill="#111111" opacity="0.07"/>
<circle cx="75.24" cy="69.71" r="0.28" fill="#111111" opacity="0.08"/>
<circle cx="24.47" cy="77.62" r="0.20" fill="#111111" opacity="0.08"/>
<circle cx="5.46" cy="83.72" r="0.47" fill="#111111" opacity="0.06"/>
<circle cx="27.51" cy="90.94" r="0.51" fill="#111111" opacity="0.05"/>
<circle cx="79.11" cy="107.53" r="0.54" fill="#111111" opacity="0.09"/>
<circle cx="56.19" cy="26.22" r="0.33" fill="#111111" opacity="0.08"/>
<circle cx="67.59" cy="66.92" r="0.42" fill="#111111" opacity="0.06"/>
<circle cx="45.69" cy="0.04" r="0.36" fill="#111111" opacity="0.09"/>
<circle cx="5.60" cy="89.64" r="0.33" fill="#111111" opacity="0.09"/>
<circle cx="16.99" cy="23.26" r="0.54" fill="#111111" opacity="0.11"/>
<circle cx="53.39" cy="98.28" r="0.17" fill="#111111" opacity="0.04"/>
<circle cx="69.47" cy="79.80" r="0.48" fill="#111111" opacity="0.08"/>
<circle cx="26.79" cy="82.20" r="0.40" fill="#111111" opacity="0.12"/>
<circle cx="66.57" cy="10.11" r="0.17" fill="#111111" opacity="0.09"/>
<circle cx="42.56" cy="75.44" r="0.34" fill="#111111" opacity="0.11"/>
<circle cx="49.16" cy="56.49" r="0.37" fill="#111111" opacity="0.04"/>
<circle cx="45.90" cy="70.26" r="0.55" fill="#111111" opacity="0.04"/>
<circle cx="43.47" cy="88.84" r="0.45" fill="#111111" opacity="0.10"/>
<circle cx="81.60" cy="0.14" r="0.34" fill="#111111" opacity="0.08"/>
<circle cx="83.81" cy="100.01" r="0.42" fill="#111111" opacity="0.03"/>
<circle cx="33.03" cy="17.07" r="0.24" fill="#111111" opacity="0.05"/>
<circle cx="6.78" cy="25.37" r="0.49" fill="#111111" opacity="0.07"/>
<circle cx="39.98" cy="4.35" r="0.13" fill="#111111" opacity="0.08"/>
<circle cx="39.27" cy="43.77" r="0.47" fill="#111111" opacity="0.11"/>
<circle cx="39.74" cy="30.16" r="0.12" fill="#111111" opacity="0.05"/>
<circle cx="65.48" cy="101.35" r="0.30" fill="#111111" opacity="0.05"/>
<circle cx="9.70" cy="3.02" r="0.31" fill="#111111" opacity="0.06"/>
<circle cx="20.97" cy="49.66" r="0.31" fill="#111111" opacity="0.09"/>
<circle cx="23.11" cy="71.11" r="0.25" fill="#111111" opacity="0.09"/>
<circle cx="0.21" cy="16.77" r="0.44" fill="#111111" opacity="0.05"/>
<circle cx="61.27" cy="23.56" r="0.56" fill="#111111" opacity="0.11"/>
<circle cx="75.56" cy="57.87" r="0.13" fill="#111111" opacity="0.09"/>
<circle cx="9.45" cy="72.83" r="0.49" fill="#111111" opacity="0.10"/>
</g>
<rect x="1.6" y="1.6" width="80.8" height="110.8" rx="5.0" ry="5.0" fill="none" stroke="#2a2f3a" stroke-width="1.2"/>
<rect x="3.4" y="3.4" width="77.2" height="107.2" rx="4.2" ry="4.2" fill="none" stroke="#b9bec9" stroke-width="0.9" opacity="0.95"/>
<g>
<rect x="4.0" y="4.0" width="21.5" height="18.5" rx="2.2" ry="2.2" fill="#ffffff" stroke="#c8ccd6" stroke-width="0.6" opacity="0.98"/>

<g>
<rect x="6.20" y="5.90" width="6.99" height="1.22" rx="0.61" ry="0.61" fill="#111111"/>
<rect x="6.20" y="11.79" width="6.99" height="1.22" rx="0.61" ry="0.61" fill="#111111"/>
<rect x="6.20" y="16.46" width="6.99" height="1.22" rx="0.61" ry="0.61" fill="#111111"/>
<rect x="11.98" y="5.90" width="1.22" height="6.13" rx="0.61" ry="0.61" fill="#111111"/>
<rect x="6.20" y="12.03" width="1.22" height="5.65" rx="0.61" ry="0.61" fill="#111111"/>
</g>
<path d="M 17.992 11.11 C 13.468 15.01, 15.964 18.13, 17.992 16.18 C 20.02 18.13, 22.516000000000002 15.01, 17.992 11.11 Z" fill="#111111"/><path d="M 17.056 16.336 C 17.524 17.584, 17.524 18.832, 16.432000000000002 20.236 L 19.552 20.236 C 18.46 18.832, 18.46 17.584, 18.928 16.336 Z" fill="#111111"/>
</g>
<g transform="rotate(180 68.00 97.00)">
<rect x="56.0" y="84.0" width="21.5" height="18.5" rx="2.2" ry="2.2" fill="#ffffff" stroke="#c8ccd6" stroke-width="0.6" opacity="0.98"/>

<g>
<rect x="58.20" y="85.90" width="6.99" height="1.22" rx="0.61" ry="0.61" fill="#111111"/>
<rect x="58.20" y="91.79" width="6.99" height="1.22" rx="0.61" ry="0.61" fill="#111111"/>
<rect x="58.20" y="96.46" width="6.99" height="1.22" rx="0.61" ry="0.61" fill="#111111"/>
<rect x="63.98" y="85.90" width="1.22" height="6.13" rx="0.61" ry="0.61" fill="#111111"/>
<rect x="58.20" y="92.03" width="1.22" height="5.65" rx="0.61" ry="0.61" fill="#111111"/>
</g>
<path d="M 69.99199999999999 91.11 C 65.46799999999999 95.01, 67.96399999999998 98.13000000000001, 69.99199999999999 96.18 C 72.02 98.13000000000001, 74.51599999999999 95.01, 69.99199999999999 91.11 Z" fill="#111111"/><path d="M 69.05599999999998 96.33600000000001 C 69.52399999999999 97.584, 69.52399999999999 98.83200000000001, 68.43199999999999 100.236 L 71.55199999999999 100.236 C 70.46 98.83200000000001, 70.46 97.584, 70.928 96.33600000000001 Z" fill="#111111"/>
</g>
<g>
<path d="M 42.0 21.39 C 36.084 26.49, 39.348 30.57, 42.0 28.02 C 44.652 30.57, 47.916 26.49, 42.0 21.39 Z" fill="#111111"/><path d="M 40.776 28.224 C 41.388 29.856, 41.388 31.488, 39.96 33.324 L 44.04 33.324 C 42.612 31.488, 42.612 29.856, 43.224 28.224 Z" fill="#111111"/>
<path d="M 42.0 81.39 C 36.084 86.49, 39.348 90.57, 42.0 88.02 C 44.652 90.57, 47.916 86.49, 42.0 81.39 Z" fill="#111111"/><path d="M 40.776 88.224 C 41.388 89.856, 41.388 91.488, 39.96 93.324 L 44.04 93.324 C 42.612 91.488, 42.612 89.856, 43.224 88.224 Z" fill="#111111"/>
</g>
</svg>
