<svg xmlns="http://www.w3.org/2000/svg" viewBox="0 0 84 114" width="84" height="114">
  <defs>
    <radialGradient id="nebBack" cx="35%" cy="28%" r="70%">
      <stop offset="0" stop-color="#2b1cff" stop-opacity="0.35"/>
      <stop offset="0.35" stop-color="#ff2bd6" stop-opacity="0.22"/>
      <stop offset="0.75" stop-color="#00e6ff" stop-opacity="0.14"/>
      <stop offset="1" stop-color="#000000" stop-opacity="0"/>
    </radialGradient>
    <linearGradient id="backBase" x1="0" y1="0" x2="0" y2="1">
      <stop offset="0" stop-color="#0b0b12"/>
      <stop offset="1" stop-color="#05050a"/>
    </linearGradient>
    <filter id="softGlow" x="-30%" y="-30%" width="160%" height="160%">
      <feGaussianBlur stdDeviation="0.7" result="b"/>
      <feMerge>
        <feMergeNode in="b"/>
        <feMergeNode in="SourceGraphic"/>
      </feMerge>
    </filter>
  </defs>
<rect x="0" y="0" width="84" height="114" rx="6" ry="6" fill="#ffffff"/>
<g>
<circle cx="42.47" cy="36.52" r="0.14" fill="#111111" opacity="0.05"/>
<circle cx="54.33" cy="28.45" r="0.22" fill="#111111" opacity="0.03"/>
<circle cx="50.84" cy="86.98" r="0.38" fill="#111111" opacity="0.12"/>
<circle cx="48.31" cy="110.86" r="0.54" fill="#111111" opacity="0.09"/>
<circle cx="9.73" cy="11.07" r="0.15" fill="#111111" opacity="0.05"/>
<circle cx="21.94" cy="62.17" r="0.55" fill="#111111" opacity="0.10"/>
<circle cx="72.81" cy="9.79" r="0.34" fill="#111111" opacity="0.13"/>
<circle cx="3.03" cy="103.25" r="0.22" fill="#111111" opacity="0.05"/>
<circle cx="28.15" cy="73.39" r="0.17" fill="#111111" opacity="0.04"/>
<circle cx="3.56" cy="61.02" r="0.36" fill="#111111" opacity="0.11"/>
<circle cx="21.65" cy="61.51" r="0.23" fill="#111111" opacity="0.06"/>
<circle cx="46.81" cy="85.27" r="0.48" fill="#111111" opacity="0.09"/>
<circle cx="81.09" cy="98.43" r="0.49" fill="#111111" opacity="0.11"/>
<circle cx="25.68" cy="39.58" r="0.50" fill="#111111" opacity="0.03"/>
<circle cx="20.89" cy="43.95" r="0.29" fill="#111111" opacity="0.06"/>
<circle cx="25.29" cy="63.12" r="0.50" fill="#111111" opacity="0.09"/>
<circle cx="49.59" cy="95.99" r="0.49" fill="#111111" opacity="0.09"/>
<circle cx="3.27" cy="25.29" r="0.56" fill="#111111" opacity="0.06"/>
<circle cx="67.04" cy="71.81" r="0.36" fill="#111111" opacity="0.11"/>
<circle cx="0.15" cy="60.26" r="0.15" fill="#111111" opacity="0.08"/>
<circle cx="4.60" cy="15.63" r="0.46" fill="#111111" opacity="0.13"/>
<circle cx="23.02" cy="21.91" r="0.41" fill="#111111" opacity="0.11"/>
<circle cx="72.44" cy="49.49" r="0.31" fill="#111111" opacity="0.05"/>
<circle cx="3.76" cy="100.34" r="0.56" fill="#111111" opacity="0.12"/>
<circle cx="11.60" cy="59.45" r="0.33" fill="#111111" opacity="0.09"/>
<circle cx="70.64" cy="55.48" r="0.13" fill="#111111" opacity="0.10"/>
<circle cx="71.21" cy="10.35" r="0.32" fill="#111111" opacity="0.13"/>
<circle cx="29.66" cy="90.32" r="0.44" fill="#111111" opacity="0.12"/>
<circle cx="13.34" cy="16.81" r="0.23" fill="#111111" opacity="0.12"/>
<circle cx="0.91" cy="13.30" r="0.44" fill="#111111" opacity="0.04"/>
<circle cx="70.53" cy="62.77" r="0.44" fill="#111111" opacity="0.08"/>
<circle cx="69.21" cy="28.33" r="0.31" fill="#111111" opacity="0.07"/>
<circle cx="37.29" cy="0.83" r="0.33" fill="#111111" opacity="0.09"/>
<circle cx="49.43" cy="57.84" r="0.37" fill="#111111" opacity="0.06"/>
<circle cx="83.72" cy="7.90" r="0.53" fill="#111111" opacity="0.10"/>
<circle cx="61.09" cy="79.80" r="0.56" fill="#111111" opacity="0.06"/>
</g>
<rect x="1.6" y="1.6" width="80.8" height="110.8" rx="5.0" ry="5.0" fill="none" stroke="#2a2f3a" stroke-width="1.2"/>
<rect x="3.4" y="3.4" width="77.2" height="107.2" rx="4.2" ry="4.2" fill="none" stroke="#b9bec9" stroke-width="0.9" opacity="0.95"/>
<g>
<rect x="4.0" y="4.0" width="21.5" height="18.5" rx="2.2" ry="2.2" fill="#ffffff" stroke="#c8ccd6" stroke-width="0.6" opacity="0.98"/>

<g>
<rect x="6.20" y="5.90" width="6.99" height="1.22" rx="0.61" ry="0.61" fill="#111111"/>
<rect x="6.20" y="11.79" width="6.99" height="1.22" rx="0.61" ry="0.61" fill="#111111"/>
<rect x="6.20" y="16.46" width="6.99" height="1.22" rx="0.61" ry="0.61" fill="#111111"/>
<rect x="11.98" y="5.90" width="1.22" height="11.78" rx="0.61" ry="0.61" fill="#111111"/>
</g>
<circle cx="17.992" cy="13.450000000000001" r="1.716" fill="#111111"/>
<circle cx="16.042" cy="15.556000000000001" r="1.716" fill="#111111"/>
<circle cx="19.942" cy="15.556000000000001" r="1.716" fill="#111111"/>
<path d="M 17.992 15.790000000000001 C 18.382 17.116, 18.382 19.144, 17.992 20.236 C 17.602 19.144, 17.602 17.116, 17.992 15.790000000000001 Z" fill="#111111"/>
</g>
<g transform="rotate(180 68.00 97.00)">
<rect x="56.0" y="84.0" width="21.5" height="18.5" rx="2.2" ry="2.2" fill="#ffffff" stroke="#c8ccd6" stroke-width="0.6" opacity="0.98"/>

<g>
<rect x="58.20" y="85.90" width="6.99" height="1.22" rx="0.61" ry="0.61" fill="#111111"/>
<rect x="58.20" y="91.79" width="6.99" height="1.22" rx="0.61" ry="0.61" fill="#111111"/>
<rect x="58.20" y="96.46" width="6.99" height="1.22" rx="0.61" ry="0.61" fill="#111111"/>
<rect x="63.98" y="85.90" width="1.22" height="11.78" rx="0.61" ry="0.61" fill="#111111"/>
</g>
<circle cx="69.99199999999999" cy="93.45" r="1.716" fill="#111111"/>
<circle cx="68.04199999999999" cy="95.55600000000001" r="1.716" fill="#111111"/>
<circle cx="71.942" cy="95.55600000000001" r="1.716" fill="#111111"/>
<path d="M 69.99199999999999 95.79 C 70.38199999999999 97.116, 70.38199999999999 99.144, 69.99199999999999 100.236 C 69.60199999999999 99.144, 69.60199999999999 97.116, 69.99199999999999 95.79 Z" fill="#111111"/>
</g>
<g>
<circle cx="42.0" cy="24.45" r="2.2439999999999998" fill="#111111"/>
<circle cx="39.45" cy="27.204" r="2.2439999999999998" fill="#111111"/>
<circle cx="44.55" cy="27.204" r="2.2439999999999998" fill="#111111"/>
<path d="M 42.0 27.51 C 42.51 29.244, 42.51 31.896, 42.0 33.324 C 41.49 31.896, 41.49 29.244, 42.0 27.51 Z" fill="#111111"/>
<circle cx="42.0" cy="54.45" r="2.2439999999999998" fill="#111111"/>
<circle cx="39.45" cy="57.204" r="2.2439999999999998" fill="#111111"/>
<circle cx="44.55" cy="57.204" r="2.2439999999999998" fill="#111111"/>
<path d="M 42.0 57.51 C 42.51 59.244, 42.51 61.896, 42.0 63.324 C 41.49 61.896, 41.49 59.244, 42.0 57.51 Z" fill="#111111"/>
<circle cx="42.0" cy="84.45" r="2.2439999999999998" fill="#111111"/>
<circle cx="39.45" cy="87.204" r="2.2439999999999998" fill="#111111"/>
<circle cx="44.55" cy="87.204" r="2.2439999999999998" fill="#111111"/>
<path d="M 42.0 87.51 C 42.51 89.244, 42.51 91.896, 42.0 93.324 C 41.49 91.896, 41.49 89.244, 42.0 87.51 Z" fill="#111111"/>
</g>
</svg>
