<svg xmlns="http://www.w3.org/2000/svg" viewBox="0 0 84 114" width="84" height="114">
  <defs>
    <radialGradient id="nebBack" cx="35%" cy="28%" r="70%">
      <stop offset="0" stop-color="#2b1cff" stop-opacity="0.35"/>
      <stop offset="0.35" stop-color="#ff2bd6" stop-opacity="0.22"/>
      <stop offset="0.75" stop-color="#00e6ff" stop-opacity="0.14"/>
      <stop offset="1" stop-color="#000000" stop-opacity="0"/>
    </radialGradient>
    <linearGradient id="backBase" x1="0" y1="0" x2="0" y2="1">
      <stop offset="0" stop-color="#0b0b12"/>
      <stop offset="1" stop-color="#05050a"/>
    </linearGradient>
    <filter id="softGlow" x="-30%" y="-30%" width="160%" height="160%">
      <feGaussianBlur stdDeviation="0.7" result="b"/>
      <feMerge>
        <feMergeNode in="b"/>
        <feMergeNode in="SourceGraphic"/>
      </feMerge>
    </filter>
  </defs>
<rect x="0" y="0" width="84" height="114" rx="6" ry="6" fill="#ffffff"/>
<g>
<circle cx="20.38" cy="85.58" r="0.22" fill="#111111" opacity="0.06"/>
<circle cx="38.61" cy="44.00" r="0.56" fill="#111111" opacity="0.09"/>
<circle cx="39.74" cy="23.79" r="0.38" fill="#111111" opacity="0.04"/>
<circle cx="54.71" cy="44.81" r="0.30" fill="#111111" opacity="0.06"/>
<circle cx="26.89" cy="111.79" r="0.13" fill="#111111" opacity="0.04"/>
<circle cx="17.94" cy="57.05" r="0.37" fill="#111111" opacity="0.11"/>
<circle cx="5.11" cy="81.94" r="0.21" fill="#111111" opacity="0.11"/>
<circle cx="8.83" cy="63.21" r="0.45" fill="#111111" opacity="0.09"/>
<circle cx="64.93" cy="26.93" r="0.19" fill="#111111" opacity="0.06"/>
<circle cx="51.52" cy="73.13" r="0.22" fill="#111111" opacity="0.10"/>
<circle cx="18.75" cy="107.43" r="0.56" fill="#111111" opacity="0.09"/>
<circle cx="21.72" cy="88.27" r="0.47" fill="#111111" opacity="0.08"/>
<circle cx="54.07" cy="46.36" r="0.47" fill="#111111" opacity="0.12"/>
<circle cx="44.97" cy="30.62" r="0.47" fill="#111111" opacity="0.07"/>
<circle cx="32.86" cy="83.26" r="0.55" fill="#111111" opacity="0.06"/>
<circle cx="74.66" cy="82.89" r="0.30" fill="#111111" opacity="0.04"/>
<circle cx="29.73" cy="94.19" r="0.46" fill="#111111" opacity="0.12"/>
<circle cx="30.52" cy="56.75" r="0.25" fill="#111111" opacity="0.04"/>
<circle cx="15.63" cy="2.77" r="0.38" fill="#111111" opacity="0.09"/>
<circle cx="17.41" cy="29.30" r="0.43" fill="#111111" opacity="0.13"/>
<circle cx="53.48" cy="65.90" r="0.14" fill="#111111" opacity="0.08"/>
<circle cx="31.84" cy="31.22" r="0.38" fill="#111111" opacity="0.03"/>
<circle cx="81.47" cy="85.38" r="0.55" fill="#111111" opacity="0.10"/>
<circle cx="27.30" cy="33.31" r="0.22" fill="#111111" opacity="0.07"/>
<circle cx="46.24" cy="58.95" r="0.44" fill="#111111" opacity="0.09"/>
<circle cx="48.89" cy="105.54" r="0.28" fill="#111111" opacity="0.03"/>
<circle cx="49.25" cy="69.51" r="0.41" fill="#111111" opacity="0.03"/>
<circle cx="30.01" cy="45.28" r="0.29" fill="#111111" opacity="0.04"/>
<circle cx="57.03" cy="35.26" r="0.51" fill="#111111" opacity="0.11"/>
<circle cx="78.41" cy="54.35" r="0.22" fill="#111111" opacity="0.09"/>
<circle cx="16.82" cy="77.75" r="0.26" fill="#111111" opacity="0.04"/>
<circle cx="50.01" cy="113.43" r="0.53" fill="#111111" opacity="0.07"/>
<circle cx="4.85" cy="2.87" r="0.53" fill="#111111" opacity="0.05"/>
<circle cx="8.94" cy="101.77" r="0.25" fill="#111111" opacity="0.07"/>
<circle cx="71.75" cy="45.61" r="0.37" fill="#111111" opacity="0.05"/>
<circle cx="53.29" cy="28.42" r="0.24" fill="#111111" opacity="0.12"/>
</g>
<rect x="1.6" y="1.6" width="80.8" height="110.8" rx="5.0" ry="5.0" fill="none" stroke="#2a2f3a" stroke-width="1.2"/>
<rect x="3.4" y="3.4" width="77.2" height="107.2" rx="4.2" ry="4.2" fill="none" stroke="#b9bec9" stroke-width="0.9" opacity="0.95"/>
<g>
<rect x="4.0" y="4.0" width="21.5" height="18.5" rx="2.2" ry="2.2" fill="#ffffff" stroke="#c8ccd6" stroke-width="0.6" opacity="0.98"/>

<g>
<rect x="6.20" y="5.90" width="6.99" height="1.22" rx="0.61" ry="0.61" fill="#c40010"/>
<rect x="6.20" y="11.79" width="6.99" height="1.22" rx="0.61" ry="0.61" fill="#c40010"/>
<rect x="6.20" y="16.46" width="6.99" height="1.22" rx="0.61" ry="0.61" fill="#c40010"/>
<rect x="11.98" y="5.90" width="1.22" height="11.78" rx="0.61" ry="0.61" fill="#c40010"/>
</g>
<path d="M 17.992 10.33 L 22.282 15.4 L 17.992 20.47 L 13.702000000000002 15.4 Z" fill="#c40010"/>
</g>
<g transform="rotate(180 68.00 97.00)">
<rect x="56.0" y="84.0" width="21.5" height="18.5" rx="2.2" ry="2.2" fill="#ffffff" stroke="#c8ccd6" stroke-width="0.6" opacity="0.98"/>

<g>
<rect x="58.20" y="85.90" width="6.99" height="1.22" rx="0.61" ry="0.61" fill="#c40010"/>
<rect x="58.20" y="91.79" width="6.99" height="1.22" rx="0.61" ry="0.61" fill="#c40010"/>
<rect x="58.20" y="96.46" width="6.99" height="1.22" rx="0.61" ry="0.61" fill="#c40010"/>
<rect x="63.98" y="85.90" width="1.22" height="11.78" rx="0.61" ry="0.61" fill="#c40010"/>
</g>
<path d="M 69.99199999999999 90.33000000000001 L 74.282 95.4 L 69.99199999999999 100.47 L 65.70199999999998 95.4 Z" fill="#c40010"/>
</g>
<g>
<path d="M 42.0 20.37 L 47.61 27.0 L 42.0 33.63 L 36.39 27.0 Z" fill="#c40010"/>
<path d="M 42.0 50.37 L 47.61 57.0 L 42.0 63.63 L 36.39 57.0 Z" fill="#c40010"/>
<path d="M 42.0 80.37 L 47.61 87.0 L 42.0 93.63 L 36.39 87.0 Z" fill="#c40010"/>
</g>
</svg>
