<svg xmlns="http://www.w3.org/2000/svg" viewBox="0 0 84 114" width="84" height="114">
  <defs>
    <radialGradient id="nebBack" cx="35%" cy="28%" r="70%">
      <stop offset="0" stop-color="#2b1cff" stop-opacity="0.35"/>
      <stop offset="0.35" stop-color="#ff2bd6" stop-opacity="0.22"/>
      <stop offset="0.75" stop-color="#00e6ff" stop-opacity="0.14"/>
      <stop offset="1" stop-color="#000000" stop-opacity="0"/>
    </radialGradient>
    <linearGradient id="backBase" x1="0" y1="0" x2="0" y2="1">
      <stop offset="0" stop-color="#0b0b12"/>
      <stop offset="1" stop-color="#05050a"/>
    </linearGradient>
    <filter id="softGlow" x="-30%" y="-30%" width="160%" height="160%">
      <feGaussianBlur stdDeviation="0.7" result="b"/>
      <feMerge>
        <feMergeNode in="b"/>
        <feMergeNode in="SourceGraphic"/>
      </feMerge>
    </filter>
  </defs>
<rect x="0" y="0" width="84" height="114" rx="6" ry="6" fill="#ffffff"/>
<g>
<circle cx="21.24" cy="49.35" r="0.51" fill="#111111" opacity="0.12"/>
<circle cx="70.71" cy="22.20" r="0.38" fill="#111111" opacity="0.05"/>
<circle cx="54.94" cy="34.68" r="0.23" fill="#111111" opacity="0.07"/>
<circle cx="68.02" cy="11.77" r="0.31" fill="#111111" opacity="0.05"/>
<circle cx="12.98" cy="104.40" r="0.54" fill="#111111" opacity="0.06"/>
<circle cx="32.88" cy="67.77" r="0.37" fill="#111111" opacity="0.11"/>
<circle cx="10.37" cy="64.11" r="0.52" fill="#111111" opacity="0.12"/>
<circle cx="24.89" cy="100.74" r="0.51" fill="#111111" opacity="0.12"/>
<circle cx="80.25" cy="107.27" r="0.52" fill="#111111" opacity="0.08"/>
<circle cx="9.80" cy="73.35" r="0.38" fill="#111111" opacity="0.13"/>
<circle cx="46.41" cy="113.73" r="0.25" fill="#111111" opacity="0.11"/>
<circle cx="0.28" cy="38.41" r="0.28" fill="#111111" opacity="0.07"/>
<circle cx="4.59" cy="0.30" r="0.13" fill="#111111" opacity="0.08"/>
<circle cx="65.30" cy="15.04" r="0.39" fill="#111111" opacity="0.12"/>
<circle cx="33.29" cy="87.68" r="0.16" fill="#111111" opacity="0.11"/>
<circle cx="56.79" cy="1.90" r="0.44" fill="#111111" opacity="0.12"/>
<circle cx="2.73" cy="68.51" r="0.33" fill="#111111" opacity="0.04"/>
<circle cx="71.60" cy="59.15" r="0.19" fill="#111111" opacity="0.10"/>
<circle cx="59.46" cy="57.29" r="0.24" fill="#111111" opacity="0.07"/>
<circle cx="29.03" cy="8.32" r="0.22" fill="#111111" opacity="0.10"/>
<circle cx="25.99" cy="60.90" r="0.33" fill="#111111" opacity="0.09"/>
<circle cx="20.23" cy="80.22" r="0.17" fill="#111111" opacity="0.09"/>
<circle cx="8.63" cy="6.88" r="0.27" fill="#111111" opacity="0.06"/>
<circle cx="45.47" cy="52.26" r="0.38" fill="#111111" opacity="0.05"/>
<circle cx="64.44" cy="38.40" r="0.39" fill="#111111" opacity="0.12"/>
<circle cx="75.60" cy="71.41" r="0.33" fill="#111111" opacity="0.10"/>
<circle cx="7.54" cy="32.81" r="0.44" fill="#111111" opacity="0.12"/>
<circle cx="21.96" cy="3.11" r="0.31" fill="#111111" opacity="0.10"/>
<circle cx="0.68" cy="2.44" r="0.54" fill="#111111" opacity="0.10"/>
<circle cx="6.61" cy="6.48" r="0.34" fill="#111111" opacity="0.12"/>
<circle cx="64.21" cy="53.49" r="0.50" fill="#111111" opacity="0.05"/>
<circle cx="60.25" cy="59.75" r="0.26" fill="#111111" opacity="0.08"/>
<circle cx="1.06" cy="30.58" r="0.56" fill="#111111" opacity="0.11"/>
<circle cx="56.90" cy="82.81" r="0.48" fill="#111111" opacity="0.05"/>
<circle cx="59.90" cy="100.66" r="0.55" fill="#111111" opacity="0.04"/>
<circle cx="28.29" cy="94.23" r="0.41" fill="#111111" opacity="0.06"/>
</g>
<rect x="1.6" y="1.6" width="80.8" height="110.8" rx="5.0" ry="5.0" fill="none" stroke="#2a2f3a" stroke-width="1.2"/>
<rect x="3.4" y="3.4" width="77.2" height="107.2" rx="4.2" ry="4.2" fill="none" stroke="#b9bec9" stroke-width="0.9" opacity="0.95"/>
<g>
<rect x="4.0" y="4.0" width="21.5" height="18.5" rx="2.2" ry="2.2" fill="#ffffff" stroke="#c8ccd6" stroke-width="0.6" opacity="0.98"/>

<g>
<rect x="6.20" y="5.90" width="6.99" height="1.22" rx="0.61" ry="0.61" fill="#c40010"/>
<rect x="6.20" y="11.79" width="6.99" height="1.22" rx="0.61" ry="0.61" fill="#c40010"/>
<rect x="6.20" y="16.46" width="6.99" height="1.22" rx="0.61" ry="0.61" fill="#c40010"/>
<rect x="11.98" y="5.90" width="1.22" height="11.78" rx="0.61" ry="0.61" fill="#c40010"/>
</g>
<path d="M 17.992 18.832 C 13.312000000000001 16.18, 14.482000000000001 11.11, 17.992 13.996 C 21.502000000000002 11.11, 22.672 16.18, 17.992 18.832 Z" fill="#c40010"/>
</g>
<g transform="rotate(180 68.00 97.00)">
<rect x="56.0" y="84.0" width="21.5" height="18.5" rx="2.2" ry="2.2" fill="#ffffff" stroke="#c8ccd6" stroke-width="0.6" opacity="0.98"/>

<g>
<rect x="58.20" y="85.90" width="6.99" height="1.22" rx="0.61" ry="0.61" fill="#c40010"/>
<rect x="58.20" y="91.79" width="6.99" height="1.22" rx="0.61" ry="0.61" fill="#c40010"/>
<rect x="58.20" y="96.46" width="6.99" height="1.22" rx="0.61" ry="0.61" fill="#c40010"/>
<rect x="63.98" y="85.90" width="1.22" height="11.78" rx="0.61" ry="0.61" fill="#c40010"/>
</g>
<path d="M 69.99199999999999 98.83200000000001 C 65.31199999999998 96.18, 66.48199999999999 91.11, 69.99199999999999 93.99600000000001 C 73.502 91.11, 74.672 96.18, 69.99199999999999 98.83200000000001 Z" fill="#c40010"/>
</g>
<g>
<path d="M 42.0 31.488 C 35.88 28.02, 37.41 21.39, 42.0 25.164 C 46.59 21.39, 48.12 28.02, 42.0 31.488 Z" fill="#c40010"/>
<path d="M 42.0 61.488 C 35.88 58.02, 37.41 51.39, 42.0 55.164 C 46.59 51.39, 48.12 58.02, 42.0 61.488 Z" fill="#c40010"/>
<path d="M 42.0 91.488 C 35.88 88.02, 37.41 81.39, 42.0 85.164 C 46.59 81.39, 48.12 88.02, 42.0 91.488 Z" fill="#c40010"/>
</g>
</svg>
