<svg xmlns="http://www.w3.org/2000/svg" viewBox="0 0 84 114" width="84" height="114">
  <defs>
    <radialGradient id="nebBack" cx="35%" cy="28%" r="70%">
      <stop offset="0" stop-color="#2b1cff" stop-opacity="0.35"/>
      <stop offset="0.35" stop-color="#ff2bd6" stop-opacity="0.22"/>
      <stop offset="0.75" stop-color="#00e6ff" stop-opacity="0.14"/>
      <stop offset="1" stop-color="#000000" stop-opacity="0"/>
    </radialGradient>
    <linearGradient id="backBase" x1="0" y1="0" x2="0" y2="1">
      <stop offset="0" stop-color="#0b0b12"/>
      <stop offset="1" stop-color="#05050a"/>
    </linearGradient>
    <filter id="softGlow" x="-30%" y="-30%" width="160%" height="160%">
      <feGaussianBlur stdDeviation="0.7" result="b"/>
      <feMerge>
        <feMergeNode in="b"/>
        <feMergeNode in="SourceGraphic"/>
      </feMerge>
    </filter>
  </defs>
<rect x="0" y="0" width="84" height="114" rx="6" ry="6" fill="#ffffff"/>
<g>
<circle cx="1.92" cy="33.90" r="0.53" fill="#111111" opacity="0.07"/>
<circle cx="31.34" cy="93.29" r="0.17" fill="#111111" opacity="0.04"/>
<circle cx="7.91" cy="85.00" r="0.57" fill="#111111" opacity="0.05"/>
<circle cx="20.29" cy="6.78" r="0.16" fill="#111111" opacity="0.10"/>
<circle cx="11.45" cy="99.70" r="0.21" fill="#111111" opacity="0.08"/>
<circle cx="46.10" cy="104.65" r="0.18" fill="#111111" opacity="0.05"/>
<circle cx="47.53" cy="18.17" r="0.15" fill="#111111" opacity="0.07"/>
<circle cx="83.20" cy="72.89" r="0.53" fill="#111111" opacity="0.06"/>
<circle cx="18.81" cy="26.16" r="0.39" fill="#111111" opacity="0.07"/>
<circle cx="24.61" cy="8.75" r="0.44" fill="#111111" opacity="0.06"/>
<circle cx="39.26" cy="67.88" r="0.43" fill="#111111" opacity="0.08"/>
<circle cx="52.60" cy="51.82" r="0.29" fill="#111111" opacity="0.04"/>
<circle cx="70.95" cy="10.97" r="0.41" fill="#111111" opacity="0.10"/>
<circle cx="25.44" cy="64.81" r="0.43" fill="#111111" opacity="0.04"/>
<circle cx="65.41" cy="72.69" r="0.34" fill="#111111" opacity="0.05"/>
<circle cx="50.27" cy="70.34" r="0.13" fill="#111111" opacity="0.09"/>
<circle cx="78.78" cy="8.25" r="0.31" fill="#111111" opacity="0.06"/>
<circle cx="6.31" cy="50.09" r="0.40" fill="#111111" opacity="0.08"/>
<circle cx="80.06" cy="94.35" r="0.25" fill="#111111" opacity="0.10"/>
<circle cx="28.94" cy="74.29" r="0.56" fill="#111111" opacity="0.06"/>
<circle cx="28.50" cy="103.59" r="0.13" fill="#111111" opacity="0.07"/>
<circle cx="31.62" cy="57.49" r="0.40" fill="#111111" opacity="0.07"/>
<circle cx="49.67" cy="95.26" r="0.57" fill="#111111" opacity="0.11"/>
<circle cx="28.16" cy="49.62" r="0.40" fill="#111111" opacity="0.12"/>
<circle cx="68.76" cy="43.25" r="0.51" fill="#111111" opacity="0.08"/>
<circle cx="11.38" cy="23.56" r="0.56" fill="#111111" opacity="0.05"/>
<circle cx="18.46" cy="36.74" r="0.47" fill="#111111" opacity="0.11"/>
<circle cx="51.14" cy="24.49" r="0.14" fill="#111111" opacity="0.09"/>
<circle cx="44.15" cy="76.18" r="0.38" fill="#111111" opacity="0.06"/>
<circle cx="26.92" cy="54.83" r="0.28" fill="#111111" opacity="0.10"/>
<circle cx="69.77" cy="101.05" r="0.31" fill="#111111" opacity="0.09"/>
<circle cx="63.96" cy="42.71" r="0.51" fill="#111111" opacity="0.07"/>
<circle cx="31.44" cy="67.20" r="0.27" fill="#111111" opacity="0.07"/>
<circle cx="54.05" cy="82.64" r="0.37" fill="#111111" opacity="0.08"/>
<circle cx="12.99" cy="19.91" r="0.36" fill="#111111" opacity="0.05"/>
<circle cx="51.14" cy="51.00" r="0.19" fill="#111111" opacity="0.08"/>
</g>
<rect x="1.6" y="1.6" width="80.8" height="110.8" rx="5.0" ry="5.0" fill="none" stroke="#2a2f3a" stroke-width="1.2"/>
<rect x="3.4" y="3.4" width="77.2" height="107.2" rx="4.2" ry="4.2" fill="none" stroke="#b9bec9" stroke-width="0.9" opacity="0.95"/>
<g>
<rect x="4.0" y="4.0" width="21.5" height="18.5" rx="2.2" ry="2.2" fill="#ffffff" stroke="#c8ccd6" stroke-width="0.6" opacity="0.98"/>

<g>
<rect x="6.20" y="5.90" width="6.99" height="1.22" rx="0.61" ry="0.61" fill="#111111"/>
<rect x="6.20" y="11.79" width="6.99" height="1.22" rx="0.61" ry="0.61" fill="#111111"/>
<rect x="6.20" y="16.46" width="6.99" height="1.22" rx="0.61" ry="0.61" fill="#111111"/>
<rect x="11.98" y="5.90" width="1.22" height="11.78" rx="0.61" ry="0.61" fill="#111111"/>
</g>
<path d="M 17.992 11.11 C 13.468 15.01, 15.964 18.13, 17.992 16.18 C 20.02 18.13, 22.516000000000002 15.01, 17.992 11.11 Z" fill="#111111"/><path d="M 17.056 16.336 C 17.524 17.584, 17.524 18.832, 16.432000000000002 20.236 L 19.552 20.236 C 18.46 18.832, 18.46 17.584, 18.928 16.336 Z" fill="#111111"/>
</g>
<g transform="rotate(180 68.00 97.00)">
<rect x="56.0" y="84.0" width="21.5" height="18.5" rx="2.2" ry="2.2" fill="#ffffff" stroke="#c8ccd6" stroke-width="0.6" opacity="0.98"/>

<g>
<rect x="58.20" y="85.90" width="6.99" height="1.22" rx="0.61" ry="0.61" fill="#111111"/>
<rect x="58.20" y="91.79" width="6.99" height="1.22" rx="0.61" ry="0.61" fill="#111111"/>
<rect x="58.20" y="96.46" width="6.99" height="1.22" rx="0.61" ry="0.61" fill="#111111"/>
<rect x="63.98" y="85.90" width="1.22" height="11.78" rx="0.61" ry="0.61" fill="#111111"/>
</g>
<path d="M 69.99199999999999 91.11 C 65.46799999999999 95.01, 67.96399999999998 98.13000000000001, 69.99199999999999 96.18 C 72.02 98.13000000000001, 74.51599999999999 95.01, 69.99199999999999 91.11 Z" fill="#111111"/><path d="M 69.05599999999998 96.33600000000001 C 69.52399999999999 97.584, 69.52399999999999 98.83200000000001, 68.43199999999999 100.236 L 71.55199999999999 100.236 C 70.46 98.83200000000001, 70.46 97.584, 70.928 96.33600000000001 Z" fill="#111111"/>
</g>
<g>
<path d="M 42.0 21.39 C 36.084 26.49, 39.348 30.57, 42.0 28.02 C 44.652 30.57, 47.916 26.49, 42.0 21.39 Z" fill="#111111"/><path d="M 40.776 28.224 C 41.388 29.856, 41.388 31.488, 39.96 33.324 L 44.04 33.324 C 42.612 31.488, 42.612 29.856, 43.224 28.224 Z" fill="#111111"/>
<path d="M 42.0 51.39 C 36.084 56.49, 39.348 60.57, 42.0 58.02 C 44.652 60.57, 47.916 56.49, 42.0 51.39 Z" fill="#111111"/><path d="M 40.776 58.224 C 41.388 59.856, 41.388 61.488, 39.96 63.324 L 44.04 63.324 C 42.612 61.488, 42.612 59.856, 43.224 58.224 Z" fill="#111111"/>
<path d="M 42.0 81.39 C 36.084 86.49, 39.348 90.57, 42.0 88.02 C 44.652 90.57, 47.916 86.49, 42.0 81.39 Z" fill="#111111"/><path d="M 40.776 88.224 C 41.388 89.856, 41.388 91.488, 39.96 93.324 L 44.04 93.324 C 42.612 91.488, 42.612 89.856, 43.224 88.224 Z" fill="#111111"/>
</g>
</svg>
