<svg xmlns="http://www.w3.org/2000/svg" viewBox="0 0 84 114" width="84" height="114">
  <defs>
    <radialGradient id="nebBack" cx="35%" cy="28%" r="70%">
      <stop offset="0" stop-color="#2b1cff" stop-opacity="0.35"/>
      <stop offset="0.35" stop-color="#ff2bd6" stop-opacity="0.22"/>
      <stop offset="0.75" stop-color="#00e6ff" stop-opacity="0.14"/>
      <stop offset="1" stop-color="#000000" stop-opacity="0"/>
    </radialGradient>
    <linearGradient id="backBase" x1="0" y1="0" x2="0" y2="1">
      <stop offset="0" stop-color="#0b0b12"/>
      <stop offset="1" stop-color="#05050a"/>
    </linearGradient>
    <filter id="softGlow" x="-30%" y="-30%" width="160%" height="160%">
      <feGaussianBlur stdDeviation="0.7" result="b"/>
      <feMerge>
        <feMergeNode in="b"/>
        <feMergeNode in="SourceGraphic"/>
      </feMerge>
    </filter>
  </defs>
<rect x="0" y="0" width="84" height="114" rx="6" ry="6" fill="#ffffff"/>
<g>
<circle cx="66.25" cy="25.85" r="0.42" fill="#111111" opacity="0.07"/>
<circle cx="76.54" cy="78.34" r="0.47" fill="#111111" opacity="0.10"/>
<circle cx="81.55" cy="87.63" r="0.26" fill="#111111" opacity="0.12"/>
<circle cx="40.87" cy="91.59" r="0.22" fill="#111111" opacity="0.08"/>
<circle cx="4.41" cy="4.34" r="0.52" fill="#111111" opacity="0.09"/>
<circle cx="6.85" cy="104.17" r="0.53" fill="#111111" opacity="0.10"/>
<circle cx="7.38" cy="84.57" r="0.30" fill="#111111" opacity="0.09"/>
<circle cx="23.64" cy="88.13" r="0.54" fill="#111111" opacity="0.06"/>
<circle cx="53.97" cy="58.21" r="0.53" fill="#111111" opacity="0.09"/>
<circle cx="23.27" cy="24.86" r="0.19" fill="#111111" opacity="0.10"/>
<circle cx="65.90" cy="24.54" r="0.41" fill="#111111" opacity="0.11"/>
<circle cx="0.01" cy="105.33" r="0.49" fill="#111111" opacity="0.10"/>
<circle cx="31.26" cy="69.25" r="0.25" fill="#111111" opacity="0.07"/>
<circle cx="68.86" cy="17.43" r="0.31" fill="#111111" opacity="0.13"/>
<circle cx="7.68" cy="40.29" r="0.47" fill="#111111" opacity="0.12"/>
<circle cx="76.56" cy="46.21" r="0.57" fill="#111111" opacity="0.06"/>
<circle cx="37.66" cy="74.89" r="0.42" fill="#111111" opacity="0.10"/>
<circle cx="41.46" cy="28.29" r="0.30" fill="#111111" opacity="0.05"/>
<circle cx="10.92" cy="29.50" r="0.56" fill="#111111" opacity="0.07"/>
<circle cx="54.21" cy="1.61" r="0.12" fill="#111111" opacity="0.07"/>
<circle cx="8.86" cy="62.35" r="0.28" fill="#111111" opacity="0.06"/>
<circle cx="18.15" cy="57.20" r="0.38" fill="#111111" opacity="0.08"/>
<circle cx="41.93" cy="54.31" r="0.30" fill="#111111" opacity="0.09"/>
<circle cx="69.36" cy="105.10" r="0.54" fill="#111111" opacity="0.11"/>
<circle cx="81.02" cy="7.48" r="0.16" fill="#111111" opacity="0.05"/>
<circle cx="2.17" cy="10.20" r="0.51" fill="#111111" opacity="0.13"/>
<circle cx="59.86" cy="65.76" r="0.17" fill="#111111" opacity="0.05"/>
<circle cx="0.84" cy="99.63" r="0.52" fill="#111111" opacity="0.07"/>
<circle cx="55.98" cy="97.60" r="0.57" fill="#111111" opacity="0.05"/>
<circle cx="63.67" cy="12.31" r="0.51" fill="#111111" opacity="0.08"/>
<circle cx="24.29" cy="49.96" r="0.27" fill="#111111" opacity="0.06"/>
<circle cx="58.59" cy="13.28" r="0.19" fill="#111111" opacity="0.12"/>
<circle cx="8.85" cy="50.62" r="0.50" fill="#111111" opacity="0.05"/>
<circle cx="76.61" cy="98.31" r="0.42" fill="#111111" opacity="0.05"/>
<circle cx="20.01" cy="38.29" r="0.42" fill="#111111" opacity="0.05"/>
<circle cx="25.90" cy="50.88" r="0.24" fill="#111111" opacity="0.05"/>
</g>
<rect x="1.6" y="1.6" width="80.8" height="110.8" rx="5.0" ry="5.0" fill="none" stroke="#2a2f3a" stroke-width="1.2"/>
<rect x="3.4" y="3.4" width="77.2" height="107.2" rx="4.2" ry="4.2" fill="none" stroke="#b9bec9" stroke-width="0.9" opacity="0.95"/>
<g>
<rect x="4.0" y="4.0" width="21.5" height="18.5" rx="2.2" ry="2.2" fill="#ffffff" stroke="#c8ccd6" stroke-width="0.6" opacity="0.98"/>

<g>
<rect x="6.20" y="11.79" width="6.99" height="1.22" rx="0.61" ry="0.61" fill="#111111"/>
<rect x="6.20" y="5.90" width="1.22" height="6.48" rx="0.61" ry="0.61" fill="#111111"/>
<rect x="11.98" y="5.90" width="1.22" height="11.78" rx="0.61" ry="0.61" fill="#111111"/>
</g>
<circle cx="17.992" cy="13.450000000000001" r="1.716" fill="#111111"/>
<circle cx="16.042" cy="15.556000000000001" r="1.716" fill="#111111"/>
<circle cx="19.942" cy="15.556000000000001" r="1.716" fill="#111111"/>
<path d="M 17.992 15.790000000000001 C 18.382 17.116, 18.382 19.144, 17.992 20.236 C 17.602 19.144, 17.602 17.116, 17.992 15.790000000000001 Z" fill="#111111"/>
</g>
<g transform="rotate(180 68.00 97.00)">
<rect x="56.0" y="84.0" width="21.5" height="18.5" rx="2.2" ry="2.2" fill="#ffffff" stroke="#c8ccd6" stroke-width="0.6" opacity="0.98"/>

<g>
<rect x="58.20" y="91.79" width="6.99" height="1.22" rx="0.61" ry="0.61" fill="#111111"/>
<rect x="58.20" y="85.90" width="1.22" height="6.48" rx="0.61" ry="0.61" fill="#111111"/>
<rect x="63.98" y="85.90" width="1.22" height="11.78" rx="0.61" ry="0.61" fill="#111111"/>
</g>
<circle cx="69.99199999999999" cy="93.45" r="1.716" fill="#111111"/>
<circle cx="68.04199999999999" cy="95.55600000000001" r="1.716" fill="#111111"/>
<circle cx="71.942" cy="95.55600000000001" r="1.716" fill="#111111"/>
<path d="M 69.99199999999999 95.79 C 70.38199999999999 97.116, 70.38199999999999 99.144, 69.99199999999999 100.236 C 69.60199999999999 99.144, 69.60199999999999 97.116, 69.99199999999999 95.79 Z" fill="#111111"/>
</g>
<g>
<circle cx="19.0" cy="24.45" r="2.2439999999999998" fill="#111111"/>
<circle cx="16.45" cy="27.204" r="2.2439999999999998" fill="#111111"/>
<circle cx="21.55" cy="27.204" r="2.2439999999999998" fill="#111111"/>
<path d="M 19.0 27.51 C 19.51 29.244, 19.51 31.896, 19.0 33.324 C 18.49 31.896, 18.49 29.244, 19.0 27.51 Z" fill="#111111"/>
<circle cx="65.0" cy="24.45" r="2.2439999999999998" fill="#111111"/>
<circle cx="62.45" cy="27.204" r="2.2439999999999998" fill="#111111"/>
<circle cx="67.55" cy="27.204" r="2.2439999999999998" fill="#111111"/>
<path d="M 65.0 27.51 C 65.51 29.244, 65.51 31.896, 65.0 33.324 C 64.49 31.896, 64.49 29.244, 65.0 27.51 Z" fill="#111111"/>
<circle cx="19.0" cy="84.45" r="2.2439999999999998" fill="#111111"/>
<circle cx="16.45" cy="87.204" r="2.2439999999999998" fill="#111111"/>
<circle cx="21.55" cy="87.204" r="2.2439999999999998" fill="#111111"/>
<path d="M 19.0 87.51 C 19.51 89.244, 19.51 91.896, 19.0 93.324 C 18.49 91.896, 18.49 89.244, 19.0 87.51 Z" fill="#111111"/>
<circle cx="65.0" cy="84.45" r="2.2439999999999998" fill="#111111"/>
<circle cx="62.45" cy="87.204" r="2.2439999999999998" fill="#111111"/>
<circle cx="67.55" cy="87.204" r="2.2439999999999998" fill="#111111"/>
<path d="M 65.0 87.51 C 65.51 89.244, 65.51 91.896, 65.0 93.324 C 64.49 91.896, 64.49 89.244, 65.0 87.51 Z" fill="#111111"/>
</g>
</svg>
