<svg xmlns="http://www.w3.org/2000/svg" viewBox="0 0 84 114" width="84" height="114">
  <defs>
    <radialGradient id="nebBack" cx="35%" cy="28%" r="70%">
      <stop offset="0" stop-color="#2b1cff" stop-opacity="0.35"/>
      <stop offset="0.35" stop-color="#ff2bd6" stop-opacity="0.22"/>
      <stop offset="0.75" stop-color="#00e6ff" stop-opacity="0.14"/>
      <stop offset="1" stop-color="#000000" stop-opacity="0"/>
    </radialGradient>
    <linearGradient id="backBase" x1="0" y1="0" x2="0" y2="1">
      <stop offset="0" stop-color="#0b0b12"/>
      <stop offset="1" stop-color="#05050a"/>
    </linearGradient>
    <filter id="softGlow" x="-30%" y="-30%" width="160%" height="160%">
      <feGaussianBlur stdDeviation="0.7" result="b"/>
      <feMerge>
        <feMergeNode in="b"/>
        <feMergeNode in="SourceGraphic"/>
      </feMerge>
    </filter>
  </defs>
<rect x="0" y="0" width="84" height="114" rx="6" ry="6" fill="#ffffff"/>
<g>
<circle cx="41.00" cy="20.71" r="0.49" fill="#111111" opacity="0.10"/>
<circle cx="79.15" cy="107.12" r="0.46" fill="#111111" opacity="0.05"/>
<circle cx="39.52" cy="79.04" r="0.30" fill="#111111" opacity="0.06"/>
<circle cx="62.87" cy="101.79" r="0.54" fill="#111111" opacity="0.06"/>
<circle cx="58.25" cy="72.95" r="0.17" fill="#111111" opacity="0.07"/>
<circle cx="51.05" cy="19.82" r="0.15" fill="#111111" opacity="0.11"/>
<circle cx="19.79" cy="75.81" r="0.45" fill="#111111" opacity="0.05"/>
<circle cx="35.96" cy="20.79" r="0.37" fill="#111111" opacity="0.07"/>
<circle cx="30.59" cy="88.94" r="0.42" fill="#111111" opacity="0.04"/>
<circle cx="30.25" cy="107.34" r="0.20" fill="#111111" opacity="0.13"/>
<circle cx="15.46" cy="69.15" r="0.25" fill="#111111" opacity="0.08"/>
<circle cx="45.60" cy="14.84" r="0.21" fill="#111111" opacity="0.10"/>
<circle cx="1.09" cy="49.37" r="0.49" fill="#111111" opacity="0.09"/>
<circle cx="33.93" cy="41.72" r="0.44" fill="#111111" opacity="0.11"/>
<circle cx="72.87" cy="77.79" r="0.31" fill="#111111" opacity="0.04"/>
<circle cx="19.47" cy="96.85" r="0.48" fill="#111111" opacity="0.10"/>
<circle cx="10.78" cy="65.42" r="0.47" fill="#111111" opacity="0.04"/>
<circle cx="81.65" cy="45.21" r="0.36" fill="#111111" opacity="0.08"/>
<circle cx="73.73" cy="8.94" r="0.52" fill="#111111" opacity="0.05"/>
<circle cx="38.92" cy="103.79" r="0.30" fill="#111111" opacity="0.08"/>
<circle cx="4.90" cy="37.72" r="0.46" fill="#111111" opacity="0.07"/>
<circle cx="67.50" cy="25.18" r="0.35" fill="#111111" opacity="0.07"/>
<circle cx="17.99" cy="95.61" r="0.35" fill="#111111" opacity="0.13"/>
<circle cx="56.05" cy="106.55" r="0.48" fill="#111111" opacity="0.12"/>
<circle cx="6.29" cy="73.53" r="0.38" fill="#111111" opacity="0.05"/>
<circle cx="67.82" cy="79.12" r="0.46" fill="#111111" opacity="0.04"/>
<circle cx="21.45" cy="108.09" r="0.22" fill="#111111" opacity="0.10"/>
<circle cx="2.44" cy="69.56" r="0.56" fill="#111111" opacity="0.04"/>
<circle cx="1.52" cy="97.01" r="0.44" fill="#111111" opacity="0.09"/>
<circle cx="30.23" cy="92.17" r="0.57" fill="#111111" opacity="0.11"/>
<circle cx="19.22" cy="57.27" r="0.15" fill="#111111" opacity="0.09"/>
<circle cx="66.60" cy="20.25" r="0.35" fill="#111111" opacity="0.11"/>
<circle cx="46.38" cy="107.63" r="0.51" fill="#111111" opacity="0.04"/>
<circle cx="61.74" cy="105.92" r="0.48" fill="#111111" opacity="0.04"/>
<circle cx="50.69" cy="85.01" r="0.32" fill="#111111" opacity="0.07"/>
<circle cx="3.61" cy="71.86" r="0.18" fill="#111111" opacity="0.06"/>
</g>
<rect x="1.6" y="1.6" width="80.8" height="110.8" rx="5.0" ry="5.0" fill="none" stroke="#2a2f3a" stroke-width="1.2"/>
<rect x="3.4" y="3.4" width="77.2" height="107.2" rx="4.2" ry="4.2" fill="none" stroke="#b9bec9" stroke-width="0.9" opacity="0.95"/>
<g>
<rect x="4.0" y="4.0" width="21.5" height="18.5" rx="2.2" ry="2.2" fill="#ffffff" stroke="#c8ccd6" stroke-width="0.6" opacity="0.98"/>

<g>
<rect x="6.20" y="11.79" width="6.99" height="1.22" rx="0.61" ry="0.61" fill="#c40010"/>
<rect x="6.20" y="5.90" width="1.22" height="6.48" rx="0.61" ry="0.61" fill="#c40010"/>
<rect x="11.98" y="5.90" width="1.22" height="11.78" rx="0.61" ry="0.61" fill="#c40010"/>
</g>
<path d="M 17.992 10.33 L 22.282 15.4 L 17.992 20.47 L 13.702000000000002 15.4 Z" fill="#c40010"/>
</g>
<g transform="rotate(180 68.00 97.00)">
<rect x="56.0" y="84.0" width="21.5" height="18.5" rx="2.2" ry="2.2" fill="#ffffff" stroke="#c8ccd6" stroke-width="0.6" opacity="0.98"/>

<g>
<rect x="58.20" y="91.79" width="6.99" height="1.22" rx="0.61" ry="0.61" fill="#c40010"/>
<rect x="58.20" y="85.90" width="1.22" height="6.48" rx="0.61" ry="0.61" fill="#c40010"/>
<rect x="63.98" y="85.90" width="1.22" height="11.78" rx="0.61" ry="0.61" fill="#c40010"/>
</g>
<path d="M 69.99199999999999 90.33000000000001 L 74.282 95.4 L 69.99199999999999 100.47 L 65.70199999999998 95.4 Z" fill="#c40010"/>
</g>
<g>
<path d="M 19.0 20.37 L 24.61 27.0 L 19.0 33.63 L 13.39 27.0 Z" fill="#c40010"/>
<path d="M 65.0 20.37 L 70.61 27.0 L 65.0 33.63 L 59.39 27.0 Z" fill="#c40010"/>
<path d="M 19.0 80.37 L 24.61 87.0 L 19.0 93.63 L 13.39 87.0 Z" fill="#c40010"/>
<path d="M 65.0 80.37 L 70.61 87.0 L 65.0 93.63 L 59.39 87.0 Z" fill="#c40010"/>
</g>
</svg>
