<svg xmlns="http://www.w3.org/2000/svg" viewBox="0 0 84 114" width="84" height="114">
  <defs>
    <radialGradient id="nebBack" cx="35%" cy="28%" r="70%">
      <stop offset="0" stop-color="#2b1cff" stop-opacity="0.35"/>
      <stop offset="0.35" stop-color="#ff2bd6" stop-opacity="0.22"/>
      <stop offset="0.75" stop-color="#00e6ff" stop-opacity="0.14"/>
      <stop offset="1" stop-color="#000000" stop-opacity="0"/>
    </radialGradient>
    <linearGradient id="backBase" x1="0" y1="0" x2="0" y2="1">
      <stop offset="0" stop-color="#0b0b12"/>
      <stop offset="1" stop-color="#05050a"/>
    </linearGradient>
    <filter id="softGlow" x="-30%" y="-30%" width="160%" height="160%">
      <feGaussianBlur stdDeviation="0.7" result="b"/>
      <feMerge>
        <feMergeNode in="b"/>
        <feMergeNode in="SourceGraphic"/>
      </feMerge>
    </filter>
  </defs>
<rect x="0" y="0" width="84" height="114" rx="6" ry="6" fill="#ffffff"/>
<g>
<circle cx="40.77" cy="81.83" r="0.34" fill="#111111" opacity="0.11"/>
<circle cx="23.66" cy="101.27" r="0.46" fill="#111111" opacity="0.10"/>
<circle cx="77.47" cy="12.79" r="0.21" fill="#111111" opacity="0.06"/>
<circle cx="56.28" cy="89.33" r="0.38" fill="#111111" opacity="0.12"/>
<circle cx="43.54" cy="75.85" r="0.53" fill="#111111" opacity="0.06"/>
<circle cx="36.19" cy="44.00" r="0.40" fill="#111111" opacity="0.03"/>
<circle cx="70.95" cy="5.14" r="0.33" fill="#111111" opacity="0.09"/>
<circle cx="3.26" cy="93.80" r="0.17" fill="#111111" opacity="0.09"/>
<circle cx="60.73" cy="28.99" r="0.20" fill="#111111" opacity="0.04"/>
<circle cx="20.88" cy="99.23" r="0.28" fill="#111111" opacity="0.09"/>
<circle cx="16.02" cy="113.86" r="0.51" fill="#111111" opacity="0.06"/>
<circle cx="18.15" cy="94.55" r="0.29" fill="#111111" opacity="0.06"/>
<circle cx="23.45" cy="110.72" r="0.36" fill="#111111" opacity="0.10"/>
<circle cx="14.07" cy="26.27" r="0.15" fill="#111111" opacity="0.12"/>
<circle cx="53.30" cy="6.80" r="0.18" fill="#111111" opacity="0.12"/>
<circle cx="47.72" cy="90.88" r="0.33" fill="#111111" opacity="0.12"/>
<circle cx="64.71" cy="6.91" r="0.26" fill="#111111" opacity="0.08"/>
<circle cx="57.22" cy="51.42" r="0.40" fill="#111111" opacity="0.07"/>
<circle cx="64.56" cy="72.14" r="0.45" fill="#111111" opacity="0.11"/>
<circle cx="48.11" cy="51.62" r="0.15" fill="#111111" opacity="0.05"/>
<circle cx="5.77" cy="0.04" r="0.51" fill="#111111" opacity="0.06"/>
<circle cx="37.25" cy="24.40" r="0.18" fill="#111111" opacity="0.11"/>
<circle cx="39.44" cy="85.46" r="0.28" fill="#111111" opacity="0.04"/>
<circle cx="58.15" cy="91.19" r="0.25" fill="#111111" opacity="0.05"/>
<circle cx="7.33" cy="1.90" r="0.45" fill="#111111" opacity="0.04"/>
<circle cx="4.49" cy="112.75" r="0.16" fill="#111111" opacity="0.10"/>
<circle cx="16.17" cy="51.30" r="0.23" fill="#111111" opacity="0.11"/>
<circle cx="4.43" cy="29.21" r="0.35" fill="#111111" opacity="0.12"/>
<circle cx="68.89" cy="58.17" r="0.43" fill="#111111" opacity="0.08"/>
<circle cx="78.19" cy="35.54" r="0.56" fill="#111111" opacity="0.12"/>
<circle cx="21.43" cy="97.76" r="0.37" fill="#111111" opacity="0.11"/>
<circle cx="42.82" cy="21.90" r="0.44" fill="#111111" opacity="0.08"/>
<circle cx="40.48" cy="69.78" r="0.36" fill="#111111" opacity="0.06"/>
<circle cx="34.36" cy="111.66" r="0.14" fill="#111111" opacity="0.09"/>
<circle cx="66.07" cy="69.21" r="0.38" fill="#111111" opacity="0.11"/>
<circle cx="13.76" cy="34.31" r="0.45" fill="#111111" opacity="0.07"/>
</g>
<rect x="1.6" y="1.6" width="80.8" height="110.8" rx="5.0" ry="5.0" fill="none" stroke="#2a2f3a" stroke-width="1.2"/>
<rect x="3.4" y="3.4" width="77.2" height="107.2" rx="4.2" ry="4.2" fill="none" stroke="#b9bec9" stroke-width="0.9" opacity="0.95"/>
<g>
<rect x="4.0" y="4.0" width="21.5" height="18.5" rx="2.2" ry="2.2" fill="#ffffff" stroke="#c8ccd6" stroke-width="0.6" opacity="0.98"/>

<g>
<rect x="6.20" y="11.79" width="6.99" height="1.22" rx="0.61" ry="0.61" fill="#c40010"/>
<rect x="6.20" y="5.90" width="1.22" height="6.48" rx="0.61" ry="0.61" fill="#c40010"/>
<rect x="11.98" y="5.90" width="1.22" height="11.78" rx="0.61" ry="0.61" fill="#c40010"/>
</g>
<path d="M 17.992 18.832 C 13.312000000000001 16.18, 14.482000000000001 11.11, 17.992 13.996 C 21.502000000000002 11.11, 22.672 16.18, 17.992 18.832 Z" fill="#c40010"/>
</g>
<g transform="rotate(180 68.00 97.00)">
<rect x="56.0" y="84.0" width="21.5" height="18.5" rx="2.2" ry="2.2" fill="#ffffff" stroke="#c8ccd6" stroke-width="0.6" opacity="0.98"/>

<g>
<rect x="58.20" y="91.79" width="6.99" height="1.22" rx="0.61" ry="0.61" fill="#c40010"/>
<rect x="58.20" y="85.90" width="1.22" height="6.48" rx="0.61" ry="0.61" fill="#c40010"/>
<rect x="63.98" y="85.90" width="1.22" height="11.78" rx="0.61" ry="0.61" fill="#c40010"/>
</g>
<path d="M 69.99199999999999 98.83200000000001 C 65.31199999999998 96.18, 66.48199999999999 91.11, 69.99199999999999 93.99600000000001 C 73.502 91.11, 74.672 96.18, 69.99199999999999 98.83200000000001 Z" fill="#c40010"/>
</g>
<g>
<path d="M 19.0 31.488 C 12.88 28.02, 14.41 21.39, 19.0 25.164 C 23.59 21.39, 25.119999999999997 28.02, 19.0 31.488 Z" fill="#c40010"/>
<path d="M 65.0 31.488 C 58.88 28.02, 60.41 21.39, 65.0 25.164 C 69.59 21.39, 71.12 28.02, 65.0 31.488 Z" fill="#c40010"/>
<path d="M 19.0 91.488 C 12.88 88.02, 14.41 81.39, 19.0 85.164 C 23.59 81.39, 25.119999999999997 88.02, 19.0 91.488 Z" fill="#c40010"/>
<path d="M 65.0 91.488 C 58.88 88.02, 60.41 81.39, 65.0 85.164 C 69.59 81.39, 71.12 88.02, 65.0 91.488 Z" fill="#c40010"/>
</g>
</svg>
