<svg xmlns="http://www.w3.org/2000/svg" viewBox="0 0 84 114" width="84" height="114">
  <defs>
    <radialGradient id="nebBack" cx="35%" cy="28%" r="70%">
      <stop offset="0" stop-color="#2b1cff" stop-opacity="0.35"/>
      <stop offset="0.35" stop-color="#ff2bd6" stop-opacity="0.22"/>
      <stop offset="0.75" stop-color="#00e6ff" stop-opacity="0.14"/>
      <stop offset="1" stop-color="#000000" stop-opacity="0"/>
    </radialGradient>
    <linearGradient id="backBase" x1="0" y1="0" x2="0" y2="1">
      <stop offset="0" stop-color="#0b0b12"/>
      <stop offset="1" stop-color="#05050a"/>
    </linearGradient>
    <filter id="softGlow" x="-30%" y="-30%" width="160%" height="160%">
      <feGaussianBlur stdDeviation="0.7" result="b"/>
      <feMerge>
        <feMergeNode in="b"/>
        <feMergeNode in="SourceGraphic"/>
      </feMerge>
    </filter>
  </defs>
<rect x="0" y="0" width="84" height="114" rx="6" ry="6" fill="#ffffff"/>
<g>
<circle cx="65.04" cy="80.69" r="0.35" fill="#111111" opacity="0.04"/>
<circle cx="48.45" cy="29.04" r="0.12" fill="#111111" opacity="0.10"/>
<circle cx="21.32" cy="37.45" r="0.13" fill="#111111" opacity="0.09"/>
<circle cx="24.23" cy="111.43" r="0.29" fill="#111111" opacity="0.03"/>
<circle cx="35.25" cy="75.80" r="0.13" fill="#111111" opacity="0.13"/>
<circle cx="28.41" cy="93.86" r="0.35" fill="#111111" opacity="0.12"/>
<circle cx="24.92" cy="88.07" r="0.17" fill="#111111" opacity="0.12"/>
<circle cx="62.37" cy="90.72" r="0.52" fill="#111111" opacity="0.08"/>
<circle cx="16.21" cy="68.15" r="0.40" fill="#111111" opacity="0.06"/>
<circle cx="80.74" cy="66.52" r="0.29" fill="#111111" opacity="0.05"/>
<circle cx="78.14" cy="32.28" r="0.15" fill="#111111" opacity="0.04"/>
<circle cx="74.39" cy="67.22" r="0.29" fill="#111111" opacity="0.08"/>
<circle cx="64.12" cy="53.33" r="0.47" fill="#111111" opacity="0.13"/>
<circle cx="51.74" cy="44.03" r="0.19" fill="#111111" opacity="0.06"/>
<circle cx="43.18" cy="78.96" r="0.45" fill="#111111" opacity="0.05"/>
<circle cx="76.89" cy="103.58" r="0.53" fill="#111111" opacity="0.07"/>
<circle cx="76.65" cy="27.21" r="0.29" fill="#111111" opacity="0.09"/>
<circle cx="29.20" cy="34.45" r="0.37" fill="#111111" opacity="0.09"/>
<circle cx="43.58" cy="66.48" r="0.39" fill="#111111" opacity="0.03"/>
<circle cx="34.45" cy="21.04" r="0.56" fill="#111111" opacity="0.11"/>
<circle cx="31.93" cy="57.78" r="0.27" fill="#111111" opacity="0.13"/>
<circle cx="12.97" cy="55.31" r="0.39" fill="#111111" opacity="0.09"/>
<circle cx="44.58" cy="45.74" r="0.32" fill="#111111" opacity="0.04"/>
<circle cx="36.96" cy="15.87" r="0.20" fill="#111111" opacity="0.04"/>
<circle cx="30.65" cy="100.10" r="0.16" fill="#111111" opacity="0.09"/>
<circle cx="26.83" cy="38.44" r="0.22" fill="#111111" opacity="0.11"/>
<circle cx="25.63" cy="59.48" r="0.35" fill="#111111" opacity="0.12"/>
<circle cx="39.66" cy="30.50" r="0.26" fill="#111111" opacity="0.06"/>
<circle cx="15.69" cy="15.08" r="0.52" fill="#111111" opacity="0.09"/>
<circle cx="47.77" cy="41.41" r="0.52" fill="#111111" opacity="0.07"/>
<circle cx="14.45" cy="87.38" r="0.27" fill="#111111" opacity="0.06"/>
<circle cx="4.11" cy="38.09" r="0.13" fill="#111111" opacity="0.06"/>
<circle cx="57.84" cy="88.47" r="0.55" fill="#111111" opacity="0.10"/>
<circle cx="52.98" cy="17.60" r="0.36" fill="#111111" opacity="0.08"/>
<circle cx="54.51" cy="111.07" r="0.21" fill="#111111" opacity="0.05"/>
<circle cx="56.89" cy="50.70" r="0.56" fill="#111111" opacity="0.12"/>
</g>
<rect x="1.6" y="1.6" width="80.8" height="110.8" rx="5.0" ry="5.0" fill="none" stroke="#2a2f3a" stroke-width="1.2"/>
<rect x="3.4" y="3.4" width="77.2" height="107.2" rx="4.2" ry="4.2" fill="none" stroke="#b9bec9" stroke-width="0.9" opacity="0.95"/>
<g>
<rect x="4.0" y="4.0" width="21.5" height="18.5" rx="2.2" ry="2.2" fill="#ffffff" stroke="#c8ccd6" stroke-width="0.6" opacity="0.98"/>

<g>
<rect x="6.20" y="11.79" width="6.99" height="1.22" rx="0.61" ry="0.61" fill="#111111"/>
<rect x="6.20" y="5.90" width="1.22" height="6.48" rx="0.61" ry="0.61" fill="#111111"/>
<rect x="11.98" y="5.90" width="1.22" height="11.78" rx="0.61" ry="0.61" fill="#111111"/>
</g>
<path d="M 17.992 11.11 C 13.468 15.01, 15.964 18.13, 17.992 16.18 C 20.02 18.13, 22.516000000000002 15.01, 17.992 11.11 Z" fill="#111111"/><path d="M 17.056 16.336 C 17.524 17.584, 17.524 18.832, 16.432000000000002 20.236 L 19.552 20.236 C 18.46 18.832, 18.46 17.584, 18.928 16.336 Z" fill="#111111"/>
</g>
<g transform="rotate(180 68.00 97.00)">
<rect x="56.0" y="84.0" width="21.5" height="18.5" rx="2.2" ry="2.2" fill="#ffffff" stroke="#c8ccd6" stroke-width="0.6" opacity="0.98"/>

<g>
<rect x="58.20" y="91.79" width="6.99" height="1.22" rx="0.61" ry="0.61" fill="#111111"/>
<rect x="58.20" y="85.90" width="1.22" height="6.48" rx="0.61" ry="0.61" fill="#111111"/>
<rect x="63.98" y="85.90" width="1.22" height="11.78" rx="0.61" ry="0.61" fill="#111111"/>
</g>
<path d="M 69.99199999999999 91.11 C 65.46799999999999 95.01, 67.96399999999998 98.13000000000001, 69.99199999999999 96.18 C 72.02 98.13000000000001, 74.51599999999999 95.01, 69.99199999999999 91.11 Z" fill="#111111"/><path d="M 69.05599999999998 96.33600000000001 C 69.52399999999999 97.584, 69.52399999999999 98.83200000000001, 68.43199999999999 100.236 L 71.55199999999999 100.236 C 70.46 98.83200000000001, 70.46 97.584, 70.928 96.33600000000001 Z" fill="#111111"/>
</g>
<g>
<path d="M 19.0 21.39 C 13.084 26.49, 16.348 30.57, 19.0 28.02 C 21.652 30.57, 24.916 26.49, 19.0 21.39 Z" fill="#111111"/><path d="M 17.776 28.224 C 18.388 29.856, 18.388 31.488, 16.96 33.324 L 21.04 33.324 C 19.612 31.488, 19.612 29.856, 20.224 28.224 Z" fill="#111111"/>
<path d="M 65.0 21.39 C 59.084 26.49, 62.348 30.57, 65.0 28.02 C 67.652 30.57, 70.916 26.49, 65.0 21.39 Z" fill="#111111"/><path d="M 63.776 28.224 C 64.388 29.856, 64.388 31.488, 62.96 33.324 L 67.04 33.324 C 65.612 31.488, 65.612 29.856, 66.224 28.224 Z" fill="#111111"/>
<path d="M 19.0 81.39 C 13.084 86.49, 16.348 90.57, 19.0 88.02 C 21.652 90.57, 24.916 86.49, 19.0 81.39 Z" fill="#111111"/><path d="M 17.776 88.224 C 18.388 89.856, 18.388 91.488, 16.96 93.324 L 21.04 93.324 C 19.612 91.488, 19.612 89.856, 20.224 88.224 Z" fill="#111111"/>
<path d="M 65.0 81.39 C 59.084 86.49, 62.348 90.57, 65.0 88.02 C 67.652 90.57, 70.916 86.49, 65.0 81.39 Z" fill="#111111"/><path d="M 63.776 88.224 C 64.388 89.856, 64.388 91.488, 62.96 93.324 L 67.04 93.324 C 65.612 91.488, 65.612 89.856, 66.224 88.224 Z" fill="#111111"/>
</g>
</svg>
