<svg xmlns="http://www.w3.org/2000/svg" viewBox="0 0 84 114" width="84" height="114">
  <defs>
    <radialGradient id="nebBack" cx="35%" cy="28%" r="70%">
      <stop offset="0" stop-color="#2b1cff" stop-opacity="0.35"/>
      <stop offset="0.35" stop-color="#ff2bd6" stop-opacity="0.22"/>
      <stop offset="0.75" stop-color="#00e6ff" stop-opacity="0.14"/>
      <stop offset="1" stop-color="#000000" stop-opacity="0"/>
    </radialGradient>
    <linearGradient id="backBase" x1="0" y1="0" x2="0" y2="1">
      <stop offset="0" stop-color="#0b0b12"/>
      <stop offset="1" stop-color="#05050a"/>
    </linearGradient>
    <filter id="softGlow" x="-30%" y="-30%" width="160%" height="160%">
      <feGaussianBlur stdDeviation="0.7" result="b"/>
      <feMerge>
        <feMergeNode in="b"/>
        <feMergeNode in="SourceGraphic"/>
      </feMerge>
    </filter>
  </defs>
<rect x="0" y="0" width="84" height="114" rx="6" ry="6" fill="#ffffff"/>
<g>
<circle cx="51.93" cy="91.76" r="0.27" fill="#111111" opacity="0.13"/>
<circle cx="71.92" cy="112.53" r="0.28" fill="#111111" opacity="0.12"/>
<circle cx="25.55" cy="68.83" r="0.45" fill="#111111" opacity="0.06"/>
<circle cx="12.21" cy="55.54" r="0.54" fill="#111111" opacity="0.12"/>
<circle cx="56.50" cy="69.46" r="0.36" fill="#111111" opacity="0.06"/>
<circle cx="8.41" cy="60.69" r="0.17" fill="#111111" opacity="0.11"/>
<circle cx="29.68" cy="65.64" r="0.22" fill="#111111" opacity="0.11"/>
<circle cx="20.11" cy="58.19" r="0.19" fill="#111111" opacity="0.04"/>
<circle cx="68.12" cy="12.43" r="0.54" fill="#111111" opacity="0.12"/>
<circle cx="42.73" cy="64.55" r="0.21" fill="#111111" opacity="0.07"/>
<circle cx="76.91" cy="52.50" r="0.24" fill="#111111" opacity="0.12"/>
<circle cx="72.63" cy="50.63" r="0.38" fill="#111111" opacity="0.03"/>
<circle cx="9.92" cy="55.50" r="0.19" fill="#111111" opacity="0.05"/>
<circle cx="52.51" cy="52.01" r="0.54" fill="#111111" opacity="0.09"/>
<circle cx="63.47" cy="61.80" r="0.43" fill="#111111" opacity="0.08"/>
<circle cx="17.30" cy="28.39" r="0.19" fill="#111111" opacity="0.10"/>
<circle cx="22.36" cy="103.11" r="0.36" fill="#111111" opacity="0.11"/>
<circle cx="9.97" cy="78.42" r="0.40" fill="#111111" opacity="0.03"/>
<circle cx="40.70" cy="47.95" r="0.38" fill="#111111" opacity="0.10"/>
<circle cx="35.70" cy="69.68" r="0.30" fill="#111111" opacity="0.09"/>
<circle cx="25.94" cy="54.40" r="0.23" fill="#111111" opacity="0.04"/>
<circle cx="67.71" cy="2.55" r="0.42" fill="#111111" opacity="0.07"/>
<circle cx="13.87" cy="85.21" r="0.24" fill="#111111" opacity="0.12"/>
<circle cx="70.35" cy="6.65" r="0.54" fill="#111111" opacity="0.03"/>
<circle cx="46.54" cy="104.20" r="0.56" fill="#111111" opacity="0.11"/>
<circle cx="46.20" cy="34.43" r="0.14" fill="#111111" opacity="0.12"/>
<circle cx="41.49" cy="28.39" r="0.21" fill="#111111" opacity="0.04"/>
<circle cx="49.17" cy="50.09" r="0.30" fill="#111111" opacity="0.11"/>
<circle cx="13.09" cy="98.48" r="0.14" fill="#111111" opacity="0.04"/>
<circle cx="2.80" cy="35.85" r="0.50" fill="#111111" opacity="0.11"/>
<circle cx="72.45" cy="76.28" r="0.23" fill="#111111" opacity="0.07"/>
<circle cx="37.71" cy="48.05" r="0.34" fill="#111111" opacity="0.07"/>
<circle cx="24.48" cy="26.60" r="0.27" fill="#111111" opacity="0.08"/>
<circle cx="81.44" cy="37.85" r="0.46" fill="#111111" opacity="0.10"/>
<circle cx="44.67" cy="31.46" r="0.45" fill="#111111" opacity="0.10"/>
<circle cx="65.27" cy="103.00" r="0.12" fill="#111111" opacity="0.10"/>
</g>
<rect x="1.6" y="1.6" width="80.8" height="110.8" rx="5.0" ry="5.0" fill="none" stroke="#2a2f3a" stroke-width="1.2"/>
<rect x="3.4" y="3.4" width="77.2" height="107.2" rx="4.2" ry="4.2" fill="none" stroke="#b9bec9" stroke-width="0.9" opacity="0.95"/>
<g>
<rect x="4.0" y="4.0" width="21.5" height="18.5" rx="2.2" ry="2.2" fill="#ffffff" stroke="#c8ccd6" stroke-width="0.6" opacity="0.98"/>

<g>
<rect x="6.20" y="5.90" width="6.99" height="1.22" rx="0.61" ry="0.61" fill="#c40010"/>
<rect x="6.20" y="11.79" width="6.99" height="1.22" rx="0.61" ry="0.61" fill="#c40010"/>
<rect x="6.20" y="16.46" width="6.99" height="1.22" rx="0.61" ry="0.61" fill="#c40010"/>
<rect x="6.20" y="5.90" width="1.22" height="6.13" rx="0.61" ry="0.61" fill="#c40010"/>
<rect x="11.98" y="12.03" width="1.22" height="5.65" rx="0.61" ry="0.61" fill="#c40010"/>
</g>
<path d="M 17.992 10.33 L 22.282 15.4 L 17.992 20.47 L 13.702000000000002 15.4 Z" fill="#c40010"/>
</g>
<g transform="rotate(180 68.00 97.00)">
<rect x="56.0" y="84.0" width="21.5" height="18.5" rx="2.2" ry="2.2" fill="#ffffff" stroke="#c8ccd6" stroke-width="0.6" opacity="0.98"/>

<g>
<rect x="58.20" y="85.90" width="6.99" height="1.22" rx="0.61" ry="0.61" fill="#c40010"/>
<rect x="58.20" y="91.79" width="6.99" height="1.22" rx="0.61" ry="0.61" fill="#c40010"/>
<rect x="58.20" y="96.46" width="6.99" height="1.22" rx="0.61" ry="0.61" fill="#c40010"/>
<rect x="58.20" y="85.90" width="1.22" height="6.13" rx="0.61" ry="0.61" fill="#c40010"/>
<rect x="63.98" y="92.03" width="1.22" height="5.65" rx="0.61" ry="0.61" fill="#c40010"/>
</g>
<path d="M 69.99199999999999 90.33000000000001 L 74.282 95.4 L 69.99199999999999 100.47 L 65.70199999999998 95.4 Z" fill="#c40010"/>
</g>
<g>
<path d="M 19.0 21.02 L 24.06 27.0 L 19.0 32.98 L 13.940000000000001 27.0 Z" fill="#c40010"/>
<path d="M 65.0 21.02 L 70.06 27.0 L 65.0 32.98 L 59.94 27.0 Z" fill="#c40010"/>
<path d="M 42.0 51.02 L 47.06 57.0 L 42.0 62.98 L 36.94 57.0 Z" fill="#c40010"/>
<path d="M 19.0 81.02 L 24.06 87.0 L 19.0 92.98 L 13.940000000000001 87.0 Z" fill="#c40010"/>
<path d="M 65.0 81.02 L 70.06 87.0 L 65.0 92.98 L 59.94 87.0 Z" fill="#c40010"/>
</g>
</svg>
