<svg xmlns="http://www.w3.org/2000/svg" viewBox="0 0 84 114" width="84" height="114">
  <defs>
    <radialGradient id="nebBack" cx="35%" cy="28%" r="70%">
      <stop offset="0" stop-color="#2b1cff" stop-opacity="0.35"/>
      <stop offset="0.35" stop-color="#ff2bd6" stop-opacity="0.22"/>
      <stop offset="0.75" stop-color="#00e6ff" stop-opacity="0.14"/>
      <stop offset="1" stop-color="#000000" stop-opacity="0"/>
    </radialGradient>
    <linearGradient id="backBase" x1="0" y1="0" x2="0" y2="1">
      <stop offset="0" stop-color="#0b0b12"/>
      <stop offset="1" stop-color="#05050a"/>
    </linearGradient>
    <filter id="softGlow" x="-30%" y="-30%" width="160%" height="160%">
      <feGaussianBlur stdDeviation="0.7" result="b"/>
      <feMerge>
        <feMergeNode in="b"/>
        <feMergeNode in="SourceGraphic"/>
      </feMerge>
    </filter>
  </defs>
<rect x="0" y="0" width="84" height="114" rx="6" ry="6" fill="#ffffff"/>
<g>
<circle cx="3.48" cy="6.87" r="0.53" fill="#111111" opacity="0.11"/>
<circle cx="42.96" cy="92.81" r="0.27" fill="#111111" opacity="0.05"/>
<circle cx="83.15" cy="68.97" r="0.14" fill="#111111" opacity="0.04"/>
<circle cx="16.32" cy="99.26" r="0.40" fill="#111111" opacity="0.11"/>
<circle cx="37.69" cy="46.45" r="0.41" fill="#111111" opacity="0.11"/>
<circle cx="20.95" cy="37.84" r="0.41" fill="#111111" opacity="0.09"/>
<circle cx="61.49" cy="22.35" r="0.56" fill="#111111" opacity="0.04"/>
<circle cx="58.66" cy="90.33" r="0.36" fill="#111111" opacity="0.09"/>
<circle cx="60.62" cy="48.13" r="0.16" fill="#111111" opacity="0.04"/>
<circle cx="23.11" cy="107.22" r="0.54" fill="#111111" opacity="0.11"/>
<circle cx="56.20" cy="59.40" r="0.46" fill="#111111" opacity="0.04"/>
<circle cx="77.60" cy="107.26" r="0.27" fill="#111111" opacity="0.11"/>
<circle cx="13.16" cy="62.34" r="0.18" fill="#111111" opacity="0.06"/>
<circle cx="52.39" cy="39.43" r="0.23" fill="#111111" opacity="0.05"/>
<circle cx="14.32" cy="57.36" r="0.41" fill="#111111" opacity="0.08"/>
<circle cx="47.61" cy="38.42" r="0.54" fill="#111111" opacity="0.10"/>
<circle cx="70.90" cy="22.42" r="0.17" fill="#111111" opacity="0.05"/>
<circle cx="51.78" cy="73.36" r="0.53" fill="#111111" opacity="0.04"/>
<circle cx="74.26" cy="14.16" r="0.27" fill="#111111" opacity="0.10"/>
<circle cx="29.41" cy="93.57" r="0.36" fill="#111111" opacity="0.08"/>
<circle cx="70.77" cy="23.55" r="0.56" fill="#111111" opacity="0.04"/>
<circle cx="33.05" cy="59.55" r="0.54" fill="#111111" opacity="0.03"/>
<circle cx="70.36" cy="113.73" r="0.33" fill="#111111" opacity="0.12"/>
<circle cx="9.84" cy="38.90" r="0.39" fill="#111111" opacity="0.06"/>
<circle cx="50.01" cy="105.58" r="0.18" fill="#111111" opacity="0.04"/>
<circle cx="44.86" cy="37.14" r="0.21" fill="#111111" opacity="0.07"/>
<circle cx="0.73" cy="40.80" r="0.40" fill="#111111" opacity="0.05"/>
<circle cx="56.48" cy="37.74" r="0.34" fill="#111111" opacity="0.04"/>
<circle cx="13.12" cy="82.51" r="0.14" fill="#111111" opacity="0.03"/>
<circle cx="0.29" cy="38.28" r="0.22" fill="#111111" opacity="0.07"/>
<circle cx="1.20" cy="75.09" r="0.20" fill="#111111" opacity="0.11"/>
<circle cx="71.01" cy="65.07" r="0.40" fill="#111111" opacity="0.05"/>
<circle cx="22.38" cy="72.32" r="0.41" fill="#111111" opacity="0.07"/>
<circle cx="69.78" cy="51.48" r="0.14" fill="#111111" opacity="0.11"/>
<circle cx="28.05" cy="76.34" r="0.48" fill="#111111" opacity="0.06"/>
<circle cx="51.93" cy="23.08" r="0.32" fill="#111111" opacity="0.04"/>
</g>
<rect x="1.6" y="1.6" width="80.8" height="110.8" rx="5.0" ry="5.0" fill="none" stroke="#2a2f3a" stroke-width="1.2"/>
<rect x="3.4" y="3.4" width="77.2" height="107.2" rx="4.2" ry="4.2" fill="none" stroke="#b9bec9" stroke-width="0.9" opacity="0.95"/>
<g>
<rect x="4.0" y="4.0" width="21.5" height="18.5" rx="2.2" ry="2.2" fill="#ffffff" stroke="#c8ccd6" stroke-width="0.6" opacity="0.98"/>

<g>
<rect x="6.20" y="5.90" width="6.99" height="1.22" rx="0.61" ry="0.61" fill="#c40010"/>
<rect x="6.20" y="11.79" width="6.99" height="1.22" rx="0.61" ry="0.61" fill="#c40010"/>
<rect x="6.20" y="16.46" width="6.99" height="1.22" rx="0.61" ry="0.61" fill="#c40010"/>
<rect x="6.20" y="5.90" width="1.22" height="6.13" rx="0.61" ry="0.61" fill="#c40010"/>
<rect x="11.98" y="12.03" width="1.22" height="5.65" rx="0.61" ry="0.61" fill="#c40010"/>
</g>
<path d="M 17.992 18.832 C 13.312000000000001 16.18, 14.482000000000001 11.11, 17.992 13.996 C 21.502000000000002 11.11, 22.672 16.18, 17.992 18.832 Z" fill="#c40010"/>
</g>
<g transform="rotate(180 68.00 97.00)">
<rect x="56.0" y="84.0" width="21.5" height="18.5" rx="2.2" ry="2.2" fill="#ffffff" stroke="#c8ccd6" stroke-width="0.6" opacity="0.98"/>

<g>
<rect x="58.20" y="85.90" width="6.99" height="1.22" rx="0.61" ry="0.61" fill="#c40010"/>
<rect x="58.20" y="91.79" width="6.99" height="1.22" rx="0.61" ry="0.61" fill="#c40010"/>
<rect x="58.20" y="96.46" width="6.99" height="1.22" rx="0.61" ry="0.61" fill="#c40010"/>
<rect x="58.20" y="85.90" width="1.22" height="6.13" rx="0.61" ry="0.61" fill="#c40010"/>
<rect x="63.98" y="92.03" width="1.22" height="5.65" rx="0.61" ry="0.61" fill="#c40010"/>
</g>
<path d="M 69.99199999999999 98.83200000000001 C 65.31199999999998 96.18, 66.48199999999999 91.11, 69.99199999999999 93.99600000000001 C 73.502 91.11, 74.672 96.18, 69.99199999999999 98.83200000000001 Z" fill="#c40010"/>
</g>
<g>
<path d="M 19.0 31.048000000000002 C 13.48 27.92, 14.86 21.94, 19.0 25.344 C 23.14 21.94, 24.52 27.92, 19.0 31.048000000000002 Z" fill="#c40010"/>
<path d="M 65.0 31.048000000000002 C 59.480000000000004 27.92, 60.86 21.94, 65.0 25.344 C 69.14 21.94, 70.52 27.92, 65.0 31.048000000000002 Z" fill="#c40010"/>
<path d="M 42.0 61.048 C 36.480000000000004 57.92, 37.86 51.94, 42.0 55.344 C 46.14 51.94, 47.519999999999996 57.92, 42.0 61.048 Z" fill="#c40010"/>
<path d="M 19.0 91.048 C 13.48 87.92, 14.86 81.94, 19.0 85.344 C 23.14 81.94, 24.52 87.92, 19.0 91.048 Z" fill="#c40010"/>
<path d="M 65.0 91.048 C 59.480000000000004 87.92, 60.86 81.94, 65.0 85.344 C 69.14 81.94, 70.52 87.92, 65.0 91.048 Z" fill="#c40010"/>
</g>
</svg>
