<svg xmlns="http://www.w3.org/2000/svg" viewBox="0 0 84 114" width="84" height="114">
  <defs>
    <radialGradient id="nebBack" cx="35%" cy="28%" r="70%">
      <stop offset="0" stop-color="#2b1cff" stop-opacity="0.35"/>
      <stop offset="0.35" stop-color="#ff2bd6" stop-opacity="0.22"/>
      <stop offset="0.75" stop-color="#00e6ff" stop-opacity="0.14"/>
      <stop offset="1" stop-color="#000000" stop-opacity="0"/>
    </radialGradient>
    <linearGradient id="backBase" x1="0" y1="0" x2="0" y2="1">
      <stop offset="0" stop-color="#0b0b12"/>
      <stop offset="1" stop-color="#05050a"/>
    </linearGradient>
    <filter id="softGlow" x="-30%" y="-30%" width="160%" height="160%">
      <feGaussianBlur stdDeviation="0.7" result="b"/>
      <feMerge>
        <feMergeNode in="b"/>
        <feMergeNode in="SourceGraphic"/>
      </feMerge>
    </filter>
  </defs>
<rect x="0" y="0" width="84" height="114" rx="6" ry="6" fill="#ffffff"/>
<g>
<circle cx="28.99" cy="22.17" r="0.26" fill="#111111" opacity="0.09"/>
<circle cx="69.61" cy="13.08" r="0.17" fill="#111111" opacity="0.06"/>
<circle cx="31.91" cy="4.30" r="0.53" fill="#111111" opacity="0.05"/>
<circle cx="7.99" cy="77.77" r="0.41" fill="#111111" opacity="0.11"/>
<circle cx="11.00" cy="11.32" r="0.21" fill="#111111" opacity="0.08"/>
<circle cx="42.22" cy="42.81" r="0.18" fill="#111111" opacity="0.07"/>
<circle cx="1.19" cy="85.86" r="0.50" fill="#111111" opacity="0.05"/>
<circle cx="58.59" cy="100.22" r="0.49" fill="#111111" opacity="0.05"/>
<circle cx="76.03" cy="2.08" r="0.45" fill="#111111" opacity="0.10"/>
<circle cx="51.14" cy="66.05" r="0.43" fill="#111111" opacity="0.04"/>
<circle cx="63.37" cy="30.22" r="0.40" fill="#111111" opacity="0.11"/>
<circle cx="54.99" cy="90.77" r="0.37" fill="#111111" opacity="0.12"/>
<circle cx="0.73" cy="56.62" r="0.49" fill="#111111" opacity="0.06"/>
<circle cx="71.11" cy="101.48" r="0.29" fill="#111111" opacity="0.03"/>
<circle cx="32.86" cy="54.49" r="0.27" fill="#111111" opacity="0.11"/>
<circle cx="38.16" cy="54.09" r="0.45" fill="#111111" opacity="0.13"/>
<circle cx="80.88" cy="2.80" r="0.53" fill="#111111" opacity="0.10"/>
<circle cx="68.96" cy="34.87" r="0.28" fill="#111111" opacity="0.05"/>
<circle cx="43.57" cy="38.52" r="0.17" fill="#111111" opacity="0.04"/>
<circle cx="5.09" cy="25.27" r="0.30" fill="#111111" opacity="0.04"/>
<circle cx="16.11" cy="15.94" r="0.56" fill="#111111" opacity="0.12"/>
<circle cx="13.57" cy="71.44" r="0.14" fill="#111111" opacity="0.13"/>
<circle cx="18.87" cy="68.68" r="0.28" fill="#111111" opacity="0.07"/>
<circle cx="60.80" cy="9.64" r="0.55" fill="#111111" opacity="0.12"/>
<circle cx="20.14" cy="16.05" r="0.47" fill="#111111" opacity="0.06"/>
<circle cx="45.60" cy="63.66" r="0.53" fill="#111111" opacity="0.09"/>
<circle cx="78.13" cy="104.31" r="0.19" fill="#111111" opacity="0.12"/>
<circle cx="1.22" cy="8.01" r="0.34" fill="#111111" opacity="0.09"/>
<circle cx="55.44" cy="71.56" r="0.27" fill="#111111" opacity="0.06"/>
<circle cx="16.28" cy="33.54" r="0.37" fill="#111111" opacity="0.03"/>
<circle cx="82.37" cy="42.82" r="0.15" fill="#111111" opacity="0.09"/>
<circle cx="24.92" cy="64.00" r="0.28" fill="#111111" opacity="0.12"/>
<circle cx="18.76" cy="69.04" r="0.49" fill="#111111" opacity="0.07"/>
<circle cx="8.34" cy="58.31" r="0.20" fill="#111111" opacity="0.12"/>
<circle cx="60.44" cy="35.46" r="0.35" fill="#111111" opacity="0.05"/>
<circle cx="77.71" cy="53.47" r="0.21" fill="#111111" opacity="0.04"/>
</g>
<rect x="1.6" y="1.6" width="80.8" height="110.8" rx="5.0" ry="5.0" fill="none" stroke="#2a2f3a" stroke-width="1.2"/>
<rect x="3.4" y="3.4" width="77.2" height="107.2" rx="4.2" ry="4.2" fill="none" stroke="#b9bec9" stroke-width="0.9" opacity="0.95"/>
<g>
<rect x="4.0" y="4.0" width="21.5" height="18.5" rx="2.2" ry="2.2" fill="#ffffff" stroke="#c8ccd6" stroke-width="0.6" opacity="0.98"/>

<g>
<rect x="6.20" y="5.90" width="6.99" height="1.22" rx="0.61" ry="0.61" fill="#111111"/>
<rect x="6.20" y="11.79" width="6.99" height="1.22" rx="0.61" ry="0.61" fill="#111111"/>
<rect x="6.20" y="16.46" width="6.99" height="1.22" rx="0.61" ry="0.61" fill="#111111"/>
<rect x="6.20" y="5.90" width="1.22" height="6.13" rx="0.61" ry="0.61" fill="#111111"/>
<rect x="11.98" y="12.03" width="1.22" height="5.65" rx="0.61" ry="0.61" fill="#111111"/>
</g>
<path d="M 17.992 11.11 C 13.468 15.01, 15.964 18.13, 17.992 16.18 C 20.02 18.13, 22.516000000000002 15.01, 17.992 11.11 Z" fill="#111111"/><path d="M 17.056 16.336 C 17.524 17.584, 17.524 18.832, 16.432000000000002 20.236 L 19.552 20.236 C 18.46 18.832, 18.46 17.584, 18.928 16.336 Z" fill="#111111"/>
</g>
<g transform="rotate(180 68.00 97.00)">
<rect x="56.0" y="84.0" width="21.5" height="18.5" rx="2.2" ry="2.2" fill="#ffffff" stroke="#c8ccd6" stroke-width="0.6" opacity="0.98"/>

<g>
<rect x="58.20" y="85.90" width="6.99" height="1.22" rx="0.61" ry="0.61" fill="#111111"/>
<rect x="58.20" y="91.79" width="6.99" height="1.22" rx="0.61" ry="0.61" fill="#111111"/>
<rect x="58.20" y="96.46" width="6.99" height="1.22" rx="0.61" ry="0.61" fill="#111111"/>
<rect x="58.20" y="85.90" width="1.22" height="6.13" rx="0.61" ry="0.61" fill="#111111"/>
<rect x="63.98" y="92.03" width="1.22" height="5.65" rx="0.61" ry="0.61" fill="#111111"/>
</g>
<path d="M 69.99199999999999 91.11 C 65.46799999999999 95.01, 67.96399999999998 98.13000000000001, 69.99199999999999 96.18 C 72.02 98.13000000000001, 74.51599999999999 95.01, 69.99199999999999 91.11 Z" fill="#111111"/><path d="M 69.05599999999998 96.33600000000001 C 69.52399999999999 97.584, 69.52399999999999 98.83200000000001, 68.43199999999999 100.236 L 71.55199999999999 100.236 C 70.46 98.83200000000001, 70.46 97.584, 70.928 96.33600000000001 Z" fill="#111111"/>
</g>
<g>
<path d="M 19.0 21.94 C 13.664000000000001 26.54, 16.608 30.22, 19.0 27.92 C 21.392 30.22, 24.336 26.54, 19.0 21.94 Z" fill="#111111"/><path d="M 17.896 28.104 C 18.448 29.576, 18.448 31.048000000000002, 17.16 32.704 L 20.84 32.704 C 19.552 31.048000000000002, 19.552 29.576, 20.104 28.104 Z" fill="#111111"/>
<path d="M 65.0 21.94 C 59.664 26.54, 62.608 30.22, 65.0 27.92 C 67.392 30.22, 70.336 26.54, 65.0 21.94 Z" fill="#111111"/><path d="M 63.896 28.104 C 64.448 29.576, 64.448 31.048000000000002, 63.16 32.704 L 66.84 32.704 C 65.552 31.048000000000002, 65.552 29.576, 66.104 28.104 Z" fill="#111111"/>
<path d="M 42.0 51.94 C 36.664 56.54, 39.608 60.22, 42.0 57.92 C 44.392 60.22, 47.336 56.54, 42.0 51.94 Z" fill="#111111"/><path d="M 40.896 58.104 C 41.448 59.576, 41.448 61.048, 40.16 62.704 L 43.84 62.704 C 42.552 61.048, 42.552 59.576, 43.104 58.104 Z" fill="#111111"/>
<path d="M 19.0 81.94 C 13.664000000000001 86.54, 16.608 90.22, 19.0 87.92 C 21.392 90.22, 24.336 86.54, 19.0 81.94 Z" fill="#111111"/><path d="M 17.896 88.104 C 18.448 89.576, 18.448 91.048, 17.16 92.704 L 20.84 92.704 C 19.552 91.048, 19.552 89.576, 20.104 88.104 Z" fill="#111111"/>
<path d="M 65.0 81.94 C 59.664 86.54, 62.608 90.22, 65.0 87.92 C 67.392 90.22, 70.336 86.54, 65.0 81.94 Z" fill="#111111"/><path d="M 63.896 88.104 C 64.448 89.576, 64.448 91.048, 63.16 92.704 L 66.84 92.704 C 65.552 91.048, 65.552 89.576, 66.104 88.104 Z" fill="#111111"/>
</g>
</svg>
