<svg xmlns="http://www.w3.org/2000/svg" viewBox="0 0 84 114" width="84" height="114">
  <defs>
    <radialGradient id="nebBack" cx="35%" cy="28%" r="70%">
      <stop offset="0" stop-color="#2b1cff" stop-opacity="0.35"/>
      <stop offset="0.35" stop-color="#ff2bd6" stop-opacity="0.22"/>
      <stop offset="0.75" stop-color="#00e6ff" stop-opacity="0.14"/>
      <stop offset="1" stop-color="#000000" stop-opacity="0"/>
    </radialGradient>
    <linearGradient id="backBase" x1="0" y1="0" x2="0" y2="1">
      <stop offset="0" stop-color="#0b0b12"/>
      <stop offset="1" stop-color="#05050a"/>
    </linearGradient>
    <filter id="softGlow" x="-30%" y="-30%" width="160%" height="160%">
      <feGaussianBlur stdDeviation="0.7" result="b"/>
      <feMerge>
        <feMergeNode in="b"/>
        <feMergeNode in="SourceGraphic"/>
      </feMerge>
    </filter>
  </defs>
<rect x="0" y="0" width="84" height="114" rx="6" ry="6" fill="#ffffff"/>
<g>
<circle cx="17.45" cy="102.99" r="0.54" fill="#111111" opacity="0.08"/>
<circle cx="21.82" cy="92.89" r="0.28" fill="#111111" opacity="0.08"/>
<circle cx="30.61" cy="1.99" r="0.22" fill="#111111" opacity="0.11"/>
<circle cx="12.23" cy="60.12" r="0.19" fill="#111111" opacity="0.12"/>
<circle cx="10.08" cy="13.78" r="0.48" fill="#111111" opacity="0.11"/>
<circle cx="5.00" cy="85.04" r="0.18" fill="#111111" opacity="0.11"/>
<circle cx="28.00" cy="17.39" r="0.44" fill="#111111" opacity="0.03"/>
<circle cx="0.61" cy="34.39" r="0.54" fill="#111111" opacity="0.12"/>
<circle cx="1.59" cy="11.24" r="0.38" fill="#111111" opacity="0.08"/>
<circle cx="64.58" cy="26.41" r="0.49" fill="#111111" opacity="0.12"/>
<circle cx="34.46" cy="9.20" r="0.35" fill="#111111" opacity="0.10"/>
<circle cx="60.28" cy="56.68" r="0.42" fill="#111111" opacity="0.09"/>
<circle cx="64.93" cy="10.39" r="0.32" fill="#111111" opacity="0.12"/>
<circle cx="65.27" cy="112.49" r="0.50" fill="#111111" opacity="0.12"/>
<circle cx="15.63" cy="22.26" r="0.38" fill="#111111" opacity="0.13"/>
<circle cx="38.00" cy="72.23" r="0.48" fill="#111111" opacity="0.13"/>
<circle cx="36.89" cy="31.51" r="0.25" fill="#111111" opacity="0.11"/>
<circle cx="43.62" cy="8.70" r="0.40" fill="#111111" opacity="0.09"/>
<circle cx="47.45" cy="49.62" r="0.36" fill="#111111" opacity="0.06"/>
<circle cx="35.16" cy="97.11" r="0.16" fill="#111111" opacity="0.12"/>
<circle cx="61.82" cy="10.72" r="0.44" fill="#111111" opacity="0.10"/>
<circle cx="40.91" cy="36.57" r="0.54" fill="#111111" opacity="0.10"/>
<circle cx="63.86" cy="20.30" r="0.16" fill="#111111" opacity="0.11"/>
<circle cx="74.29" cy="67.68" r="0.47" fill="#111111" opacity="0.03"/>
<circle cx="13.93" cy="38.26" r="0.52" fill="#111111" opacity="0.03"/>
<circle cx="23.18" cy="46.89" r="0.42" fill="#111111" opacity="0.08"/>
<circle cx="55.40" cy="47.51" r="0.45" fill="#111111" opacity="0.09"/>
<circle cx="4.62" cy="72.50" r="0.28" fill="#111111" opacity="0.05"/>
<circle cx="41.43" cy="101.65" r="0.19" fill="#111111" opacity="0.11"/>
<circle cx="12.67" cy="32.09" r="0.28" fill="#111111" opacity="0.08"/>
<circle cx="26.07" cy="79.33" r="0.54" fill="#111111" opacity="0.08"/>
<circle cx="54.15" cy="39.72" r="0.53" fill="#111111" opacity="0.04"/>
<circle cx="65.31" cy="79.18" r="0.28" fill="#111111" opacity="0.10"/>
<circle cx="40.25" cy="96.37" r="0.48" fill="#111111" opacity="0.10"/>
<circle cx="54.20" cy="55.46" r="0.50" fill="#111111" opacity="0.11"/>
<circle cx="15.69" cy="102.40" r="0.19" fill="#111111" opacity="0.06"/>
</g>
<rect x="1.6" y="1.6" width="80.8" height="110.8" rx="5.0" ry="5.0" fill="none" stroke="#2a2f3a" stroke-width="1.2"/>
<rect x="3.4" y="3.4" width="77.2" height="107.2" rx="4.2" ry="4.2" fill="none" stroke="#b9bec9" stroke-width="0.9" opacity="0.95"/>
<g>
<rect x="4.0" y="4.0" width="21.5" height="18.5" rx="2.2" ry="2.2" fill="#ffffff" stroke="#c8ccd6" stroke-width="0.6" opacity="0.98"/>

<g>
<rect x="6.20" y="5.90" width="6.99" height="1.22" rx="0.61" ry="0.61" fill="#111111"/>
<rect x="6.20" y="11.79" width="6.99" height="1.22" rx="0.61" ry="0.61" fill="#111111"/>
<rect x="6.20" y="16.46" width="6.99" height="1.22" rx="0.61" ry="0.61" fill="#111111"/>
<rect x="6.20" y="5.90" width="1.22" height="11.78" rx="0.61" ry="0.61" fill="#111111"/>
<rect x="11.98" y="12.03" width="1.22" height="5.65" rx="0.61" ry="0.61" fill="#111111"/>
</g>
<circle cx="17.992" cy="13.450000000000001" r="1.716" fill="#111111"/>
<circle cx="16.042" cy="15.556000000000001" r="1.716" fill="#111111"/>
<circle cx="19.942" cy="15.556000000000001" r="1.716" fill="#111111"/>
<path d="M 17.992 15.790000000000001 C 18.382 17.116, 18.382 19.144, 17.992 20.236 C 17.602 19.144, 17.602 17.116, 17.992 15.790000000000001 Z" fill="#111111"/>
</g>
<g transform="rotate(180 68.00 97.00)">
<rect x="56.0" y="84.0" width="21.5" height="18.5" rx="2.2" ry="2.2" fill="#ffffff" stroke="#c8ccd6" stroke-width="0.6" opacity="0.98"/>

<g>
<rect x="58.20" y="85.90" width="6.99" height="1.22" rx="0.61" ry="0.61" fill="#111111"/>
<rect x="58.20" y="91.79" width="6.99" height="1.22" rx="0.61" ry="0.61" fill="#111111"/>
<rect x="58.20" y="96.46" width="6.99" height="1.22" rx="0.61" ry="0.61" fill="#111111"/>
<rect x="58.20" y="85.90" width="1.22" height="11.78" rx="0.61" ry="0.61" fill="#111111"/>
<rect x="63.98" y="92.03" width="1.22" height="5.65" rx="0.61" ry="0.61" fill="#111111"/>
</g>
<circle cx="69.99199999999999" cy="93.45" r="1.716" fill="#111111"/>
<circle cx="68.04199999999999" cy="95.55600000000001" r="1.716" fill="#111111"/>
<circle cx="71.942" cy="95.55600000000001" r="1.716" fill="#111111"/>
<path d="M 69.99199999999999 95.79 C 70.38199999999999 97.116, 70.38199999999999 99.144, 69.99199999999999 100.236 C 69.60199999999999 99.144, 69.60199999999999 97.116, 69.99199999999999 95.79 Z" fill="#111111"/>
</g>
<g>
<circle cx="19.0" cy="24.7" r="2.024" fill="#111111"/>
<circle cx="16.7" cy="27.184" r="2.024" fill="#111111"/>
<circle cx="21.3" cy="27.184" r="2.024" fill="#111111"/>
<path d="M 19.0 27.46 C 19.46 29.024, 19.46 31.416, 19.0 32.704 C 18.54 31.416, 18.54 29.024, 19.0 27.46 Z" fill="#111111"/>
<circle cx="65.0" cy="24.7" r="2.024" fill="#111111"/>
<circle cx="62.7" cy="27.184" r="2.024" fill="#111111"/>
<circle cx="67.3" cy="27.184" r="2.024" fill="#111111"/>
<path d="M 65.0 27.46 C 65.46 29.024, 65.46 31.416, 65.0 32.704 C 64.54 31.416, 64.54 29.024, 65.0 27.46 Z" fill="#111111"/>
<circle cx="19.0" cy="54.7" r="2.024" fill="#111111"/>
<circle cx="16.7" cy="57.184" r="2.024" fill="#111111"/>
<circle cx="21.3" cy="57.184" r="2.024" fill="#111111"/>
<path d="M 19.0 57.46 C 19.46 59.024, 19.46 61.416, 19.0 62.704 C 18.54 61.416, 18.54 59.024, 19.0 57.46 Z" fill="#111111"/>
<circle cx="65.0" cy="54.7" r="2.024" fill="#111111"/>
<circle cx="62.7" cy="57.184" r="2.024" fill="#111111"/>
<circle cx="67.3" cy="57.184" r="2.024" fill="#111111"/>
<path d="M 65.0 57.46 C 65.46 59.024, 65.46 61.416, 65.0 62.704 C 64.54 61.416, 64.54 59.024, 65.0 57.46 Z" fill="#111111"/>
<circle cx="19.0" cy="84.7" r="2.024" fill="#111111"/>
<circle cx="16.7" cy="87.184" r="2.024" fill="#111111"/>
<circle cx="21.3" cy="87.184" r="2.024" fill="#111111"/>
<path d="M 19.0 87.46 C 19.46 89.024, 19.46 91.416, 19.0 92.704 C 18.54 91.416, 18.54 89.024, 19.0 87.46 Z" fill="#111111"/>
<circle cx="65.0" cy="84.7" r="2.024" fill="#111111"/>
<circle cx="62.7" cy="87.184" r="2.024" fill="#111111"/>
<circle cx="67.3" cy="87.184" r="2.024" fill="#111111"/>
<path d="M 65.0 87.46 C 65.46 89.024, 65.46 91.416, 65.0 92.704 C 64.54 91.416, 64.54 89.024, 65.0 87.46 Z" fill="#111111"/>
</g>
</svg>
