<svg xmlns="http://www.w3.org/2000/svg" viewBox="0 0 84 114" width="84" height="114">
  <defs>
    <radialGradient id="nebBack" cx="35%" cy="28%" r="70%">
      <stop offset="0" stop-color="#2b1cff" stop-opacity="0.35"/>
      <stop offset="0.35" stop-color="#ff2bd6" stop-opacity="0.22"/>
      <stop offset="0.75" stop-color="#00e6ff" stop-opacity="0.14"/>
      <stop offset="1" stop-color="#000000" stop-opacity="0"/>
    </radialGradient>
    <linearGradient id="backBase" x1="0" y1="0" x2="0" y2="1">
      <stop offset="0" stop-color="#0b0b12"/>
      <stop offset="1" stop-color="#05050a"/>
    </linearGradient>
    <filter id="softGlow" x="-30%" y="-30%" width="160%" height="160%">
      <feGaussianBlur stdDeviation="0.7" result="b"/>
      <feMerge>
        <feMergeNode in="b"/>
        <feMergeNode in="SourceGraphic"/>
      </feMerge>
    </filter>
  </defs>
<rect x="0" y="0" width="84" height="114" rx="6" ry="6" fill="#ffffff"/>
<g>
<circle cx="65.90" cy="56.13" r="0.20" fill="#111111" opacity="0.09"/>
<circle cx="70.28" cy="112.29" r="0.27" fill="#111111" opacity="0.04"/>
<circle cx="8.08" cy="15.32" r="0.15" fill="#111111" opacity="0.05"/>
<circle cx="13.90" cy="15.14" r="0.15" fill="#111111" opacity="0.09"/>
<circle cx="40.72" cy="19.31" r="0.13" fill="#111111" opacity="0.10"/>
<circle cx="26.05" cy="75.81" r="0.45" fill="#111111" opacity="0.12"/>
<circle cx="57.22" cy="110.72" r="0.49" fill="#111111" opacity="0.08"/>
<circle cx="16.94" cy="8.14" r="0.44" fill="#111111" opacity="0.05"/>
<circle cx="78.62" cy="23.81" r="0.31" fill="#111111" opacity="0.12"/>
<circle cx="67.43" cy="72.04" r="0.24" fill="#111111" opacity="0.12"/>
<circle cx="81.53" cy="105.00" r="0.52" fill="#111111" opacity="0.06"/>
<circle cx="48.72" cy="78.45" r="0.32" fill="#111111" opacity="0.07"/>
<circle cx="4.90" cy="1.73" r="0.40" fill="#111111" opacity="0.11"/>
<circle cx="41.61" cy="103.98" r="0.53" fill="#111111" opacity="0.11"/>
<circle cx="83.17" cy="106.86" r="0.25" fill="#111111" opacity="0.07"/>
<circle cx="46.14" cy="77.10" r="0.38" fill="#111111" opacity="0.10"/>
<circle cx="38.61" cy="75.58" r="0.49" fill="#111111" opacity="0.07"/>
<circle cx="59.57" cy="38.44" r="0.42" fill="#111111" opacity="0.12"/>
<circle cx="50.86" cy="98.82" r="0.35" fill="#111111" opacity="0.05"/>
<circle cx="14.10" cy="101.40" r="0.50" fill="#111111" opacity="0.09"/>
<circle cx="34.01" cy="72.18" r="0.23" fill="#111111" opacity="0.06"/>
<circle cx="21.44" cy="24.67" r="0.52" fill="#111111" opacity="0.08"/>
<circle cx="82.84" cy="37.80" r="0.45" fill="#111111" opacity="0.04"/>
<circle cx="54.18" cy="30.50" r="0.45" fill="#111111" opacity="0.10"/>
<circle cx="55.21" cy="31.39" r="0.43" fill="#111111" opacity="0.05"/>
<circle cx="51.78" cy="93.48" r="0.34" fill="#111111" opacity="0.08"/>
<circle cx="10.55" cy="110.99" r="0.32" fill="#111111" opacity="0.07"/>
<circle cx="83.62" cy="32.28" r="0.46" fill="#111111" opacity="0.04"/>
<circle cx="26.32" cy="93.79" r="0.15" fill="#111111" opacity="0.06"/>
<circle cx="45.66" cy="80.75" r="0.47" fill="#111111" opacity="0.13"/>
<circle cx="14.12" cy="28.83" r="0.20" fill="#111111" opacity="0.11"/>
<circle cx="12.04" cy="96.30" r="0.35" fill="#111111" opacity="0.10"/>
<circle cx="33.89" cy="2.39" r="0.54" fill="#111111" opacity="0.12"/>
<circle cx="78.18" cy="75.60" r="0.54" fill="#111111" opacity="0.07"/>
<circle cx="4.03" cy="106.03" r="0.20" fill="#111111" opacity="0.05"/>
<circle cx="71.23" cy="20.63" r="0.56" fill="#111111" opacity="0.08"/>
</g>
<rect x="1.6" y="1.6" width="80.8" height="110.8" rx="5.0" ry="5.0" fill="none" stroke="#2a2f3a" stroke-width="1.2"/>
<rect x="3.4" y="3.4" width="77.2" height="107.2" rx="4.2" ry="4.2" fill="none" stroke="#b9bec9" stroke-width="0.9" opacity="0.95"/>
<g>
<rect x="4.0" y="4.0" width="21.5" height="18.5" rx="2.2" ry="2.2" fill="#ffffff" stroke="#c8ccd6" stroke-width="0.6" opacity="0.98"/>

<g>
<rect x="6.20" y="5.90" width="6.99" height="1.22" rx="0.61" ry="0.61" fill="#c40010"/>
<rect x="6.20" y="11.79" width="6.99" height="1.22" rx="0.61" ry="0.61" fill="#c40010"/>
<rect x="6.20" y="16.46" width="6.99" height="1.22" rx="0.61" ry="0.61" fill="#c40010"/>
<rect x="6.20" y="5.90" width="1.22" height="11.78" rx="0.61" ry="0.61" fill="#c40010"/>
<rect x="11.98" y="12.03" width="1.22" height="5.65" rx="0.61" ry="0.61" fill="#c40010"/>
</g>
<path d="M 17.992 10.33 L 22.282 15.4 L 17.992 20.47 L 13.702000000000002 15.4 Z" fill="#c40010"/>
</g>
<g transform="rotate(180 68.00 97.00)">
<rect x="56.0" y="84.0" width="21.5" height="18.5" rx="2.2" ry="2.2" fill="#ffffff" stroke="#c8ccd6" stroke-width="0.6" opacity="0.98"/>

<g>
<rect x="58.20" y="85.90" width="6.99" height="1.22" rx="0.61" ry="0.61" fill="#c40010"/>
<rect x="58.20" y="91.79" width="6.99" height="1.22" rx="0.61" ry="0.61" fill="#c40010"/>
<rect x="58.20" y="96.46" width="6.99" height="1.22" rx="0.61" ry="0.61" fill="#c40010"/>
<rect x="58.20" y="85.90" width="1.22" height="11.78" rx="0.61" ry="0.61" fill="#c40010"/>
<rect x="63.98" y="92.03" width="1.22" height="5.65" rx="0.61" ry="0.61" fill="#c40010"/>
</g>
<path d="M 69.99199999999999 90.33000000000001 L 74.282 95.4 L 69.99199999999999 100.47 L 65.70199999999998 95.4 Z" fill="#c40010"/>
</g>
<g>
<path d="M 19.0 21.02 L 24.06 27.0 L 19.0 32.98 L 13.940000000000001 27.0 Z" fill="#c40010"/>
<path d="M 65.0 21.02 L 70.06 27.0 L 65.0 32.98 L 59.94 27.0 Z" fill="#c40010"/>
<path d="M 19.0 51.02 L 24.06 57.0 L 19.0 62.98 L 13.940000000000001 57.0 Z" fill="#c40010"/>
<path d="M 65.0 51.02 L 70.06 57.0 L 65.0 62.98 L 59.94 57.0 Z" fill="#c40010"/>
<path d="M 19.0 81.02 L 24.06 87.0 L 19.0 92.98 L 13.940000000000001 87.0 Z" fill="#c40010"/>
<path d="M 65.0 81.02 L 70.06 87.0 L 65.0 92.98 L 59.94 87.0 Z" fill="#c40010"/>
</g>
</svg>
