<svg xmlns="http://www.w3.org/2000/svg" viewBox="0 0 84 114" width="84" height="114">
  <defs>
    <radialGradient id="nebBack" cx="35%" cy="28%" r="70%">
      <stop offset="0" stop-color="#2b1cff" stop-opacity="0.35"/>
      <stop offset="0.35" stop-color="#ff2bd6" stop-opacity="0.22"/>
      <stop offset="0.75" stop-color="#00e6ff" stop-opacity="0.14"/>
      <stop offset="1" stop-color="#000000" stop-opacity="0"/>
    </radialGradient>
    <linearGradient id="backBase" x1="0" y1="0" x2="0" y2="1">
      <stop offset="0" stop-color="#0b0b12"/>
      <stop offset="1" stop-color="#05050a"/>
    </linearGradient>
    <filter id="softGlow" x="-30%" y="-30%" width="160%" height="160%">
      <feGaussianBlur stdDeviation="0.7" result="b"/>
      <feMerge>
        <feMergeNode in="b"/>
        <feMergeNode in="SourceGraphic"/>
      </feMerge>
    </filter>
  </defs>
<rect x="0" y="0" width="84" height="114" rx="6" ry="6" fill="#ffffff"/>
<g>
<circle cx="27.56" cy="6.86" r="0.37" fill="#111111" opacity="0.04"/>
<circle cx="2.89" cy="6.24" r="0.21" fill="#111111" opacity="0.12"/>
<circle cx="69.36" cy="102.13" r="0.20" fill="#111111" opacity="0.08"/>
<circle cx="50.14" cy="48.61" r="0.33" fill="#111111" opacity="0.06"/>
<circle cx="78.84" cy="86.65" r="0.29" fill="#111111" opacity="0.10"/>
<circle cx="27.74" cy="109.94" r="0.34" fill="#111111" opacity="0.06"/>
<circle cx="11.93" cy="70.49" r="0.14" fill="#111111" opacity="0.07"/>
<circle cx="70.79" cy="76.93" r="0.25" fill="#111111" opacity="0.09"/>
<circle cx="46.96" cy="112.82" r="0.13" fill="#111111" opacity="0.05"/>
<circle cx="55.14" cy="52.88" r="0.52" fill="#111111" opacity="0.09"/>
<circle cx="18.98" cy="51.99" r="0.24" fill="#111111" opacity="0.13"/>
<circle cx="75.15" cy="58.86" r="0.53" fill="#111111" opacity="0.10"/>
<circle cx="43.61" cy="68.50" r="0.56" fill="#111111" opacity="0.06"/>
<circle cx="81.01" cy="7.77" r="0.46" fill="#111111" opacity="0.10"/>
<circle cx="70.94" cy="37.47" r="0.37" fill="#111111" opacity="0.10"/>
<circle cx="61.49" cy="36.10" r="0.39" fill="#111111" opacity="0.10"/>
<circle cx="42.07" cy="91.87" r="0.16" fill="#111111" opacity="0.04"/>
<circle cx="19.57" cy="81.96" r="0.26" fill="#111111" opacity="0.08"/>
<circle cx="11.87" cy="66.54" r="0.14" fill="#111111" opacity="0.07"/>
<circle cx="64.60" cy="85.21" r="0.14" fill="#111111" opacity="0.05"/>
<circle cx="0.66" cy="94.51" r="0.22" fill="#111111" opacity="0.09"/>
<circle cx="23.27" cy="108.87" r="0.51" fill="#111111" opacity="0.11"/>
<circle cx="17.00" cy="15.35" r="0.20" fill="#111111" opacity="0.08"/>
<circle cx="12.13" cy="21.51" r="0.30" fill="#111111" opacity="0.04"/>
<circle cx="30.88" cy="2.71" r="0.47" fill="#111111" opacity="0.13"/>
<circle cx="65.17" cy="87.05" r="0.24" fill="#111111" opacity="0.04"/>
<circle cx="29.17" cy="63.77" r="0.21" fill="#111111" opacity="0.09"/>
<circle cx="22.44" cy="86.99" r="0.22" fill="#111111" opacity="0.12"/>
<circle cx="48.93" cy="61.09" r="0.33" fill="#111111" opacity="0.05"/>
<circle cx="19.33" cy="78.77" r="0.37" fill="#111111" opacity="0.06"/>
<circle cx="72.00" cy="36.82" r="0.32" fill="#111111" opacity="0.08"/>
<circle cx="25.32" cy="0.97" r="0.48" fill="#111111" opacity="0.06"/>
<circle cx="0.00" cy="99.98" r="0.19" fill="#111111" opacity="0.10"/>
<circle cx="65.00" cy="96.78" r="0.38" fill="#111111" opacity="0.11"/>
<circle cx="44.05" cy="14.55" r="0.25" fill="#111111" opacity="0.10"/>
<circle cx="15.19" cy="99.03" r="0.41" fill="#111111" opacity="0.08"/>
</g>
<rect x="1.6" y="1.6" width="80.8" height="110.8" rx="5.0" ry="5.0" fill="none" stroke="#2a2f3a" stroke-width="1.2"/>
<rect x="3.4" y="3.4" width="77.2" height="107.2" rx="4.2" ry="4.2" fill="none" stroke="#b9bec9" stroke-width="0.9" opacity="0.95"/>
<g>
<rect x="4.0" y="4.0" width="21.5" height="18.5" rx="2.2" ry="2.2" fill="#ffffff" stroke="#c8ccd6" stroke-width="0.6" opacity="0.98"/>

<g>
<rect x="6.20" y="5.90" width="6.99" height="1.22" rx="0.61" ry="0.61" fill="#111111"/>
<rect x="6.20" y="11.79" width="6.99" height="1.22" rx="0.61" ry="0.61" fill="#111111"/>
<rect x="6.20" y="16.46" width="6.99" height="1.22" rx="0.61" ry="0.61" fill="#111111"/>
<rect x="6.20" y="5.90" width="1.22" height="11.78" rx="0.61" ry="0.61" fill="#111111"/>
<rect x="11.98" y="12.03" width="1.22" height="5.65" rx="0.61" ry="0.61" fill="#111111"/>
</g>
<path d="M 17.992 11.11 C 13.468 15.01, 15.964 18.13, 17.992 16.18 C 20.02 18.13, 22.516000000000002 15.01, 17.992 11.11 Z" fill="#111111"/><path d="M 17.056 16.336 C 17.524 17.584, 17.524 18.832, 16.432000000000002 20.236 L 19.552 20.236 C 18.46 18.832, 18.46 17.584, 18.928 16.336 Z" fill="#111111"/>
</g>
<g transform="rotate(180 68.00 97.00)">
<rect x="56.0" y="84.0" width="21.5" height="18.5" rx="2.2" ry="2.2" fill="#ffffff" stroke="#c8ccd6" stroke-width="0.6" opacity="0.98"/>

<g>
<rect x="58.20" y="85.90" width="6.99" height="1.22" rx="0.61" ry="0.61" fill="#111111"/>
<rect x="58.20" y="91.79" width="6.99" height="1.22" rx="0.61" ry="0.61" fill="#111111"/>
<rect x="58.20" y="96.46" width="6.99" height="1.22" rx="0.61" ry="0.61" fill="#111111"/>
<rect x="58.20" y="85.90" width="1.22" height="11.78" rx="0.61" ry="0.61" fill="#111111"/>
<rect x="63.98" y="92.03" width="1.22" height="5.65" rx="0.61" ry="0.61" fill="#111111"/>
</g>
<path d="M 69.99199999999999 91.11 C 65.46799999999999 95.01, 67.96399999999998 98.13000000000001, 69.99199999999999 96.18 C 72.02 98.13000000000001, 74.51599999999999 95.01, 69.99199999999999 91.11 Z" fill="#111111"/><path d="M 69.05599999999998 96.33600000000001 C 69.52399999999999 97.584, 69.52399999999999 98.83200000000001, 68.43199999999999 100.236 L 71.55199999999999 100.236 C 70.46 98.83200000000001, 70.46 97.584, 70.928 96.33600000000001 Z" fill="#111111"/>
</g>
<g>
<path d="M 19.0 21.94 C 13.664000000000001 26.54, 16.608 30.22, 19.0 27.92 C 21.392 30.22, 24.336 26.54, 19.0 21.94 Z" fill="#111111"/><path d="M 17.896 28.104 C 18.448 29.576, 18.448 31.048000000000002, 17.16 32.704 L 20.84 32.704 C 19.552 31.048000000000002, 19.552 29.576, 20.104 28.104 Z" fill="#111111"/>
<path d="M 65.0 21.94 C 59.664 26.54, 62.608 30.22, 65.0 27.92 C 67.392 30.22, 70.336 26.54, 65.0 21.94 Z" fill="#111111"/><path d="M 63.896 28.104 C 64.448 29.576, 64.448 31.048000000000002, 63.16 32.704 L 66.84 32.704 C 65.552 31.048000000000002, 65.552 29.576, 66.104 28.104 Z" fill="#111111"/>
<path d="M 19.0 51.94 C 13.664000000000001 56.54, 16.608 60.22, 19.0 57.92 C 21.392 60.22, 24.336 56.54, 19.0 51.94 Z" fill="#111111"/><path d="M 17.896 58.104 C 18.448 59.576, 18.448 61.048, 17.16 62.704 L 20.84 62.704 C 19.552 61.048, 19.552 59.576, 20.104 58.104 Z" fill="#111111"/>
<path d="M 65.0 51.94 C 59.664 56.54, 62.608 60.22, 65.0 57.92 C 67.392 60.22, 70.336 56.54, 65.0 51.94 Z" fill="#111111"/><path d="M 63.896 58.104 C 64.448 59.576, 64.448 61.048, 63.16 62.704 L 66.84 62.704 C 65.552 61.048, 65.552 59.576, 66.104 58.104 Z" fill="#111111"/>
<path d="M 19.0 81.94 C 13.664000000000001 86.54, 16.608 90.22, 19.0 87.92 C 21.392 90.22, 24.336 86.54, 19.0 81.94 Z" fill="#111111"/><path d="M 17.896 88.104 C 18.448 89.576, 18.448 91.048, 17.16 92.704 L 20.84 92.704 C 19.552 91.048, 19.552 89.576, 20.104 88.104 Z" fill="#111111"/>
<path d="M 65.0 81.94 C 59.664 86.54, 62.608 90.22, 65.0 87.92 C 67.392 90.22, 70.336 86.54, 65.0 81.94 Z" fill="#111111"/><path d="M 63.896 88.104 C 64.448 89.576, 64.448 91.048, 63.16 92.704 L 66.84 92.704 C 65.552 91.048, 65.552 89.576, 66.104 88.104 Z" fill="#111111"/>
</g>
</svg>
