<svg xmlns="http://www.w3.org/2000/svg" viewBox="0 0 84 114" width="84" height="114">
  <defs>
    <radialGradient id="nebBack" cx="35%" cy="28%" r="70%">
      <stop offset="0" stop-color="#2b1cff" stop-opacity="0.35"/>
      <stop offset="0.35" stop-color="#ff2bd6" stop-opacity="0.22"/>
      <stop offset="0.75" stop-color="#00e6ff" stop-opacity="0.14"/>
      <stop offset="1" stop-color="#000000" stop-opacity="0"/>
    </radialGradient>
    <linearGradient id="backBase" x1="0" y1="0" x2="0" y2="1">
      <stop offset="0" stop-color="#0b0b12"/>
      <stop offset="1" stop-color="#05050a"/>
    </linearGradient>
    <filter id="softGlow" x="-30%" y="-30%" width="160%" height="160%">
      <feGaussianBlur stdDeviation="0.7" result="b"/>
      <feMerge>
        <feMergeNode in="b"/>
        <feMergeNode in="SourceGraphic"/>
      </feMerge>
    </filter>
  </defs>
<rect x="0" y="0" width="84" height="114" rx="6" ry="6" fill="#ffffff"/>
<g>
<circle cx="4.45" cy="80.55" r="0.20" fill="#111111" opacity="0.08"/>
<circle cx="16.45" cy="41.47" r="0.34" fill="#111111" opacity="0.09"/>
<circle cx="42.43" cy="23.31" r="0.54" fill="#111111" opacity="0.13"/>
<circle cx="2.55" cy="55.73" r="0.31" fill="#111111" opacity="0.09"/>
<circle cx="77.04" cy="20.37" r="0.20" fill="#111111" opacity="0.04"/>
<circle cx="4.58" cy="49.57" r="0.28" fill="#111111" opacity="0.03"/>
<circle cx="46.21" cy="13.77" r="0.48" fill="#111111" opacity="0.09"/>
<circle cx="7.32" cy="29.62" r="0.35" fill="#111111" opacity="0.07"/>
<circle cx="34.16" cy="91.85" r="0.44" fill="#111111" opacity="0.08"/>
<circle cx="29.02" cy="62.57" r="0.56" fill="#111111" opacity="0.11"/>
<circle cx="49.32" cy="91.89" r="0.37" fill="#111111" opacity="0.05"/>
<circle cx="8.09" cy="77.37" r="0.44" fill="#111111" opacity="0.08"/>
<circle cx="68.83" cy="9.20" r="0.45" fill="#111111" opacity="0.07"/>
<circle cx="61.74" cy="60.56" r="0.40" fill="#111111" opacity="0.10"/>
<circle cx="10.55" cy="29.91" r="0.52" fill="#111111" opacity="0.04"/>
<circle cx="81.96" cy="57.70" r="0.53" fill="#111111" opacity="0.06"/>
<circle cx="29.74" cy="39.70" r="0.20" fill="#111111" opacity="0.09"/>
<circle cx="83.66" cy="107.81" r="0.20" fill="#111111" opacity="0.07"/>
<circle cx="70.42" cy="92.04" r="0.19" fill="#111111" opacity="0.11"/>
<circle cx="70.96" cy="53.33" r="0.14" fill="#111111" opacity="0.10"/>
<circle cx="19.28" cy="52.30" r="0.25" fill="#111111" opacity="0.12"/>
<circle cx="46.21" cy="42.00" r="0.37" fill="#111111" opacity="0.03"/>
<circle cx="22.34" cy="47.96" r="0.24" fill="#111111" opacity="0.06"/>
<circle cx="54.06" cy="4.61" r="0.39" fill="#111111" opacity="0.07"/>
<circle cx="2.35" cy="51.63" r="0.54" fill="#111111" opacity="0.13"/>
<circle cx="48.99" cy="36.60" r="0.24" fill="#111111" opacity="0.06"/>
<circle cx="18.96" cy="17.89" r="0.41" fill="#111111" opacity="0.04"/>
<circle cx="78.65" cy="63.98" r="0.36" fill="#111111" opacity="0.04"/>
<circle cx="60.65" cy="96.72" r="0.43" fill="#111111" opacity="0.11"/>
<circle cx="80.52" cy="0.07" r="0.35" fill="#111111" opacity="0.10"/>
<circle cx="79.33" cy="4.95" r="0.56" fill="#111111" opacity="0.06"/>
<circle cx="74.04" cy="103.71" r="0.49" fill="#111111" opacity="0.05"/>
<circle cx="50.37" cy="34.99" r="0.13" fill="#111111" opacity="0.10"/>
<circle cx="80.89" cy="25.37" r="0.15" fill="#111111" opacity="0.10"/>
<circle cx="18.04" cy="7.31" r="0.16" fill="#111111" opacity="0.06"/>
<circle cx="45.36" cy="73.21" r="0.28" fill="#111111" opacity="0.07"/>
</g>
<rect x="1.6" y="1.6" width="80.8" height="110.8" rx="5.0" ry="5.0" fill="none" stroke="#2a2f3a" stroke-width="1.2"/>
<rect x="3.4" y="3.4" width="77.2" height="107.2" rx="4.2" ry="4.2" fill="none" stroke="#b9bec9" stroke-width="0.9" opacity="0.95"/>
<g>
<rect x="4.0" y="4.0" width="21.5" height="18.5" rx="2.2" ry="2.2" fill="#ffffff" stroke="#c8ccd6" stroke-width="0.6" opacity="0.98"/>

<g>
<rect x="6.20" y="5.90" width="6.99" height="1.22" rx="0.61" ry="0.61" fill="#111111"/>
<polygon points="11.72,6.16 12.98,6.61 8.93,17.91 7.67,17.45" fill="#111111"/>
<rect x="11.98" y="5.90" width="1.22" height="2.94" rx="0.61" ry="0.61" fill="#111111"/>
</g>
<circle cx="17.992" cy="13.450000000000001" r="1.716" fill="#111111"/>
<circle cx="16.042" cy="15.556000000000001" r="1.716" fill="#111111"/>
<circle cx="19.942" cy="15.556000000000001" r="1.716" fill="#111111"/>
<path d="M 17.992 15.790000000000001 C 18.382 17.116, 18.382 19.144, 17.992 20.236 C 17.602 19.144, 17.602 17.116, 17.992 15.790000000000001 Z" fill="#111111"/>
</g>
<g transform="rotate(180 68.00 97.00)">
<rect x="56.0" y="84.0" width="21.5" height="18.5" rx="2.2" ry="2.2" fill="#ffffff" stroke="#c8ccd6" stroke-width="0.6" opacity="0.98"/>

<g>
<rect x="58.20" y="85.90" width="6.99" height="1.22" rx="0.61" ry="0.61" fill="#111111"/>
<polygon points="63.72,86.16 64.98,86.61 60.93,97.91 59.67,97.45" fill="#111111"/>
<rect x="63.98" y="85.90" width="1.22" height="2.94" rx="0.61" ry="0.61" fill="#111111"/>
</g>
<circle cx="69.99199999999999" cy="93.45" r="1.716" fill="#111111"/>
<circle cx="68.04199999999999" cy="95.55600000000001" r="1.716" fill="#111111"/>
<circle cx="71.942" cy="95.55600000000001" r="1.716" fill="#111111"/>
<path d="M 69.99199999999999 95.79 C 70.38199999999999 97.116, 70.38199999999999 99.144, 69.99199999999999 100.236 C 69.60199999999999 99.144, 69.60199999999999 97.116, 69.99199999999999 95.79 Z" fill="#111111"/>
</g>
<g>
<circle cx="19.0" cy="24.7" r="2.024" fill="#111111"/>
<circle cx="16.7" cy="27.184" r="2.024" fill="#111111"/>
<circle cx="21.3" cy="27.184" r="2.024" fill="#111111"/>
<path d="M 19.0 27.46 C 19.46 29.024, 19.46 31.416, 19.0 32.704 C 18.54 31.416, 18.54 29.024, 19.0 27.46 Z" fill="#111111"/>
<circle cx="65.0" cy="24.7" r="2.024" fill="#111111"/>
<circle cx="62.7" cy="27.184" r="2.024" fill="#111111"/>
<circle cx="67.3" cy="27.184" r="2.024" fill="#111111"/>
<path d="M 65.0 27.46 C 65.46 29.024, 65.46 31.416, 65.0 32.704 C 64.54 31.416, 64.54 29.024, 65.0 27.46 Z" fill="#111111"/>
<circle cx="42.0" cy="38.5" r="2.024" fill="#111111"/>
<circle cx="39.7" cy="40.983999999999995" r="2.024" fill="#111111"/>
<circle cx="44.3" cy="40.983999999999995" r="2.024" fill="#111111"/>
<path d="M 42.0 41.26 C 42.46 42.824, 42.46 45.215999999999994, 42.0 46.504 C 41.54 45.215999999999994, 41.54 42.824, 42.0 41.26 Z" fill="#111111"/>
<circle cx="19.0" cy="54.7" r="2.024" fill="#111111"/>
<circle cx="16.7" cy="57.184" r="2.024" fill="#111111"/>
<circle cx="21.3" cy="57.184" r="2.024" fill="#111111"/>
<path d="M 19.0 57.46 C 19.46 59.024, 19.46 61.416, 19.0 62.704 C 18.54 61.416, 18.54 59.024, 19.0 57.46 Z" fill="#111111"/>
<circle cx="65.0" cy="54.7" r="2.024" fill="#111111"/>
<circle cx="62.7" cy="57.184" r="2.024" fill="#111111"/>
<circle cx="67.3" cy="57.184" r="2.024" fill="#111111"/>
<path d="M 65.0 57.46 C 65.46 59.024, 65.46 61.416, 65.0 62.704 C 64.54 61.416, 64.54 59.024, 65.0 57.46 Z" fill="#111111"/>
<circle cx="19.0" cy="84.7" r="2.024" fill="#111111"/>
<circle cx="16.7" cy="87.184" r="2.024" fill="#111111"/>
<circle cx="21.3" cy="87.184" r="2.024" fill="#111111"/>
<path d="M 19.0 87.46 C 19.46 89.024, 19.46 91.416, 19.0 92.704 C 18.54 91.416, 18.54 89.024, 19.0 87.46 Z" fill="#111111"/>
<circle cx="65.0" cy="84.7" r="2.024" fill="#111111"/>
<circle cx="62.7" cy="87.184" r="2.024" fill="#111111"/>
<circle cx="67.3" cy="87.184" r="2.024" fill="#111111"/>
<path d="M 65.0 87.46 C 65.46 89.024, 65.46 91.416, 65.0 92.704 C 64.54 91.416, 64.54 89.024, 65.0 87.46 Z" fill="#111111"/>
</g>
</svg>
