<svg xmlns="http://www.w3.org/2000/svg" viewBox="0 0 84 114" width="84" height="114">
  <defs>
    <radialGradient id="nebBack" cx="35%" cy="28%" r="70%">
      <stop offset="0" stop-color="#2b1cff" stop-opacity="0.35"/>
      <stop offset="0.35" stop-color="#ff2bd6" stop-opacity="0.22"/>
      <stop offset="0.75" stop-color="#00e6ff" stop-opacity="0.14"/>
      <stop offset="1" stop-color="#000000" stop-opacity="0"/>
    </radialGradient>
    <linearGradient id="backBase" x1="0" y1="0" x2="0" y2="1">
      <stop offset="0" stop-color="#0b0b12"/>
      <stop offset="1" stop-color="#05050a"/>
    </linearGradient>
    <filter id="softGlow" x="-30%" y="-30%" width="160%" height="160%">
      <feGaussianBlur stdDeviation="0.7" result="b"/>
      <feMerge>
        <feMergeNode in="b"/>
        <feMergeNode in="SourceGraphic"/>
      </feMerge>
    </filter>
  </defs>
<rect x="0" y="0" width="84" height="114" rx="6" ry="6" fill="#ffffff"/>
<g>
<circle cx="21.62" cy="113.12" r="0.21" fill="#111111" opacity="0.05"/>
<circle cx="43.18" cy="39.18" r="0.19" fill="#111111" opacity="0.10"/>
<circle cx="32.30" cy="31.81" r="0.45" fill="#111111" opacity="0.11"/>
<circle cx="25.77" cy="11.61" r="0.28" fill="#111111" opacity="0.06"/>
<circle cx="81.06" cy="67.56" r="0.25" fill="#111111" opacity="0.04"/>
<circle cx="5.70" cy="37.72" r="0.23" fill="#111111" opacity="0.04"/>
<circle cx="44.79" cy="31.33" r="0.53" fill="#111111" opacity="0.09"/>
<circle cx="33.50" cy="42.17" r="0.37" fill="#111111" opacity="0.09"/>
<circle cx="46.22" cy="100.67" r="0.33" fill="#111111" opacity="0.05"/>
<circle cx="32.63" cy="16.59" r="0.30" fill="#111111" opacity="0.10"/>
<circle cx="78.88" cy="88.05" r="0.25" fill="#111111" opacity="0.11"/>
<circle cx="13.23" cy="90.68" r="0.51" fill="#111111" opacity="0.12"/>
<circle cx="22.72" cy="64.36" r="0.27" fill="#111111" opacity="0.10"/>
<circle cx="80.20" cy="82.36" r="0.30" fill="#111111" opacity="0.05"/>
<circle cx="6.95" cy="69.43" r="0.37" fill="#111111" opacity="0.06"/>
<circle cx="61.30" cy="80.61" r="0.25" fill="#111111" opacity="0.10"/>
<circle cx="23.78" cy="58.40" r="0.29" fill="#111111" opacity="0.10"/>
<circle cx="57.71" cy="45.42" r="0.36" fill="#111111" opacity="0.04"/>
<circle cx="33.02" cy="12.93" r="0.13" fill="#111111" opacity="0.04"/>
<circle cx="83.00" cy="58.42" r="0.23" fill="#111111" opacity="0.09"/>
<circle cx="27.31" cy="99.10" r="0.36" fill="#111111" opacity="0.09"/>
<circle cx="23.19" cy="107.47" r="0.26" fill="#111111" opacity="0.05"/>
<circle cx="2.18" cy="24.03" r="0.30" fill="#111111" opacity="0.12"/>
<circle cx="15.69" cy="7.37" r="0.14" fill="#111111" opacity="0.08"/>
<circle cx="33.73" cy="112.61" r="0.49" fill="#111111" opacity="0.06"/>
<circle cx="48.21" cy="40.56" r="0.16" fill="#111111" opacity="0.12"/>
<circle cx="29.88" cy="105.80" r="0.51" fill="#111111" opacity="0.05"/>
<circle cx="12.61" cy="112.83" r="0.46" fill="#111111" opacity="0.07"/>
<circle cx="25.87" cy="6.48" r="0.34" fill="#111111" opacity="0.13"/>
<circle cx="70.07" cy="100.64" r="0.35" fill="#111111" opacity="0.08"/>
<circle cx="44.77" cy="101.45" r="0.53" fill="#111111" opacity="0.04"/>
<circle cx="23.33" cy="10.91" r="0.39" fill="#111111" opacity="0.07"/>
<circle cx="40.39" cy="22.95" r="0.28" fill="#111111" opacity="0.11"/>
<circle cx="0.25" cy="34.82" r="0.22" fill="#111111" opacity="0.12"/>
<circle cx="57.10" cy="2.42" r="0.42" fill="#111111" opacity="0.09"/>
<circle cx="35.34" cy="52.62" r="0.41" fill="#111111" opacity="0.13"/>
</g>
<rect x="1.6" y="1.6" width="80.8" height="110.8" rx="5.0" ry="5.0" fill="none" stroke="#2a2f3a" stroke-width="1.2"/>
<rect x="3.4" y="3.4" width="77.2" height="107.2" rx="4.2" ry="4.2" fill="none" stroke="#b9bec9" stroke-width="0.9" opacity="0.95"/>
<g>
<rect x="4.0" y="4.0" width="21.5" height="18.5" rx="2.2" ry="2.2" fill="#ffffff" stroke="#c8ccd6" stroke-width="0.6" opacity="0.98"/>

<g>
<rect x="6.20" y="5.90" width="6.99" height="1.22" rx="0.61" ry="0.61" fill="#c40010"/>
<polygon points="11.72,6.16 12.98,6.61 8.93,17.91 7.67,17.45" fill="#c40010"/>
<rect x="11.98" y="5.90" width="1.22" height="2.94" rx="0.61" ry="0.61" fill="#c40010"/>
</g>
<path d="M 17.992 10.33 L 22.282 15.4 L 17.992 20.47 L 13.702000000000002 15.4 Z" fill="#c40010"/>
</g>
<g transform="rotate(180 68.00 97.00)">
<rect x="56.0" y="84.0" width="21.5" height="18.5" rx="2.2" ry="2.2" fill="#ffffff" stroke="#c8ccd6" stroke-width="0.6" opacity="0.98"/>

<g>
<rect x="58.20" y="85.90" width="6.99" height="1.22" rx="0.61" ry="0.61" fill="#c40010"/>
<polygon points="63.72,86.16 64.98,86.61 60.93,97.91 59.67,97.45" fill="#c40010"/>
<rect x="63.98" y="85.90" width="1.22" height="2.94" rx="0.61" ry="0.61" fill="#c40010"/>
</g>
<path d="M 69.99199999999999 90.33000000000001 L 74.282 95.4 L 69.99199999999999 100.47 L 65.70199999999998 95.4 Z" fill="#c40010"/>
</g>
<g>
<path d="M 19.0 21.02 L 24.06 27.0 L 19.0 32.98 L 13.940000000000001 27.0 Z" fill="#c40010"/>
<path d="M 65.0 21.02 L 70.06 27.0 L 65.0 32.98 L 59.94 27.0 Z" fill="#c40010"/>
<path d="M 42.0 34.82 L 47.06 40.8 L 42.0 46.779999999999994 L 36.94 40.8 Z" fill="#c40010"/>
<path d="M 19.0 51.02 L 24.06 57.0 L 19.0 62.98 L 13.940000000000001 57.0 Z" fill="#c40010"/>
<path d="M 65.0 51.02 L 70.06 57.0 L 65.0 62.98 L 59.94 57.0 Z" fill="#c40010"/>
<path d="M 19.0 81.02 L 24.06 87.0 L 19.0 92.98 L 13.940000000000001 87.0 Z" fill="#c40010"/>
<path d="M 65.0 81.02 L 70.06 87.0 L 65.0 92.98 L 59.94 87.0 Z" fill="#c40010"/>
</g>
</svg>
