<svg xmlns="http://www.w3.org/2000/svg" viewBox="0 0 84 114" width="84" height="114">
  <defs>
    <radialGradient id="nebBack" cx="35%" cy="28%" r="70%">
      <stop offset="0" stop-color="#2b1cff" stop-opacity="0.35"/>
      <stop offset="0.35" stop-color="#ff2bd6" stop-opacity="0.22"/>
      <stop offset="0.75" stop-color="#00e6ff" stop-opacity="0.14"/>
      <stop offset="1" stop-color="#000000" stop-opacity="0"/>
    </radialGradient>
    <linearGradient id="backBase" x1="0" y1="0" x2="0" y2="1">
      <stop offset="0" stop-color="#0b0b12"/>
      <stop offset="1" stop-color="#05050a"/>
    </linearGradient>
    <filter id="softGlow" x="-30%" y="-30%" width="160%" height="160%">
      <feGaussianBlur stdDeviation="0.7" result="b"/>
      <feMerge>
        <feMergeNode in="b"/>
        <feMergeNode in="SourceGraphic"/>
      </feMerge>
    </filter>
  </defs>
<rect x="0" y="0" width="84" height="114" rx="6" ry="6" fill="#ffffff"/>
<g>
<circle cx="24.06" cy="103.31" r="0.44" fill="#111111" opacity="0.06"/>
<circle cx="76.81" cy="45.06" r="0.51" fill="#111111" opacity="0.04"/>
<circle cx="46.71" cy="105.22" r="0.14" fill="#111111" opacity="0.10"/>
<circle cx="62.44" cy="77.72" r="0.21" fill="#111111" opacity="0.09"/>
<circle cx="50.76" cy="91.31" r="0.47" fill="#111111" opacity="0.03"/>
<circle cx="65.66" cy="49.69" r="0.27" fill="#111111" opacity="0.09"/>
<circle cx="45.82" cy="90.27" r="0.50" fill="#111111" opacity="0.08"/>
<circle cx="23.11" cy="104.87" r="0.39" fill="#111111" opacity="0.12"/>
<circle cx="73.57" cy="7.65" r="0.32" fill="#111111" opacity="0.10"/>
<circle cx="74.49" cy="75.45" r="0.38" fill="#111111" opacity="0.10"/>
<circle cx="36.73" cy="14.90" r="0.15" fill="#111111" opacity="0.05"/>
<circle cx="20.33" cy="94.42" r="0.56" fill="#111111" opacity="0.03"/>
<circle cx="78.39" cy="20.26" r="0.39" fill="#111111" opacity="0.06"/>
<circle cx="24.48" cy="26.21" r="0.31" fill="#111111" opacity="0.06"/>
<circle cx="51.23" cy="76.30" r="0.51" fill="#111111" opacity="0.06"/>
<circle cx="12.69" cy="76.19" r="0.56" fill="#111111" opacity="0.06"/>
<circle cx="45.11" cy="3.14" r="0.19" fill="#111111" opacity="0.12"/>
<circle cx="5.31" cy="46.83" r="0.28" fill="#111111" opacity="0.04"/>
<circle cx="29.92" cy="20.23" r="0.33" fill="#111111" opacity="0.06"/>
<circle cx="66.07" cy="68.07" r="0.51" fill="#111111" opacity="0.11"/>
<circle cx="78.13" cy="56.38" r="0.47" fill="#111111" opacity="0.09"/>
<circle cx="19.05" cy="54.80" r="0.14" fill="#111111" opacity="0.03"/>
<circle cx="57.38" cy="42.17" r="0.19" fill="#111111" opacity="0.05"/>
<circle cx="20.20" cy="34.67" r="0.14" fill="#111111" opacity="0.11"/>
<circle cx="47.88" cy="109.91" r="0.54" fill="#111111" opacity="0.11"/>
<circle cx="28.32" cy="3.46" r="0.30" fill="#111111" opacity="0.11"/>
<circle cx="47.29" cy="91.87" r="0.15" fill="#111111" opacity="0.10"/>
<circle cx="37.90" cy="39.60" r="0.19" fill="#111111" opacity="0.05"/>
<circle cx="78.09" cy="69.29" r="0.22" fill="#111111" opacity="0.10"/>
<circle cx="7.03" cy="47.46" r="0.45" fill="#111111" opacity="0.11"/>
<circle cx="67.61" cy="53.29" r="0.13" fill="#111111" opacity="0.05"/>
<circle cx="63.36" cy="43.11" r="0.42" fill="#111111" opacity="0.08"/>
<circle cx="27.43" cy="80.45" r="0.16" fill="#111111" opacity="0.05"/>
<circle cx="31.57" cy="52.42" r="0.18" fill="#111111" opacity="0.05"/>
<circle cx="77.75" cy="27.55" r="0.17" fill="#111111" opacity="0.09"/>
<circle cx="38.24" cy="54.88" r="0.35" fill="#111111" opacity="0.09"/>
</g>
<rect x="1.6" y="1.6" width="80.8" height="110.8" rx="5.0" ry="5.0" fill="none" stroke="#2a2f3a" stroke-width="1.2"/>
<rect x="3.4" y="3.4" width="77.2" height="107.2" rx="4.2" ry="4.2" fill="none" stroke="#b9bec9" stroke-width="0.9" opacity="0.95"/>
<g>
<rect x="4.0" y="4.0" width="21.5" height="18.5" rx="2.2" ry="2.2" fill="#ffffff" stroke="#c8ccd6" stroke-width="0.6" opacity="0.98"/>

<g>
<rect x="6.20" y="5.90" width="6.99" height="1.22" rx="0.61" ry="0.61" fill="#c40010"/>
<polygon points="11.72,6.16 12.98,6.61 8.93,17.91 7.67,17.45" fill="#c40010"/>
<rect x="11.98" y="5.90" width="1.22" height="2.94" rx="0.61" ry="0.61" fill="#c40010"/>
</g>
<path d="M 17.992 18.832 C 13.312000000000001 16.18, 14.482000000000001 11.11, 17.992 13.996 C 21.502000000000002 11.11, 22.672 16.18, 17.992 18.832 Z" fill="#c40010"/>
</g>
<g transform="rotate(180 68.00 97.00)">
<rect x="56.0" y="84.0" width="21.5" height="18.5" rx="2.2" ry="2.2" fill="#ffffff" stroke="#c8ccd6" stroke-width="0.6" opacity="0.98"/>

<g>
<rect x="58.20" y="85.90" width="6.99" height="1.22" rx="0.61" ry="0.61" fill="#c40010"/>
<polygon points="63.72,86.16 64.98,86.61 60.93,97.91 59.67,97.45" fill="#c40010"/>
<rect x="63.98" y="85.90" width="1.22" height="2.94" rx="0.61" ry="0.61" fill="#c40010"/>
</g>
<path d="M 69.99199999999999 98.83200000000001 C 65.31199999999998 96.18, 66.48199999999999 91.11, 69.99199999999999 93.99600000000001 C 73.502 91.11, 74.672 96.18, 69.99199999999999 98.83200000000001 Z" fill="#c40010"/>
</g>
<g>
<path d="M 19.0 31.048000000000002 C 13.48 27.92, 14.86 21.94, 19.0 25.344 C 23.14 21.94, 24.52 27.92, 19.0 31.048000000000002 Z" fill="#c40010"/>
<path d="M 65.0 31.048000000000002 C 59.480000000000004 27.92, 60.86 21.94, 65.0 25.344 C 69.14 21.94, 70.52 27.92, 65.0 31.048000000000002 Z" fill="#c40010"/>
<path d="M 42.0 44.848 C 36.480000000000004 41.72, 37.86 35.739999999999995, 42.0 39.144 C 46.14 35.739999999999995, 47.519999999999996 41.72, 42.0 44.848 Z" fill="#c40010"/>
<path d="M 19.0 61.048 C 13.48 57.92, 14.86 51.94, 19.0 55.344 C 23.14 51.94, 24.52 57.92, 19.0 61.048 Z" fill="#c40010"/>
<path d="M 65.0 61.048 C 59.480000000000004 57.92, 60.86 51.94, 65.0 55.344 C 69.14 51.94, 70.52 57.92, 65.0 61.048 Z" fill="#c40010"/>
<path d="M 19.0 91.048 C 13.48 87.92, 14.86 81.94, 19.0 85.344 C 23.14 81.94, 24.52 87.92, 19.0 91.048 Z" fill="#c40010"/>
<path d="M 65.0 91.048 C 59.480000000000004 87.92, 60.86 81.94, 65.0 85.344 C 69.14 81.94, 70.52 87.92, 65.0 91.048 Z" fill="#c40010"/>
</g>
</svg>
