<svg xmlns="http://www.w3.org/2000/svg" viewBox="0 0 84 114" width="84" height="114">
  <defs>
    <radialGradient id="nebBack" cx="35%" cy="28%" r="70%">
      <stop offset="0" stop-color="#2b1cff" stop-opacity="0.35"/>
      <stop offset="0.35" stop-color="#ff2bd6" stop-opacity="0.22"/>
      <stop offset="0.75" stop-color="#00e6ff" stop-opacity="0.14"/>
      <stop offset="1" stop-color="#000000" stop-opacity="0"/>
    </radialGradient>
    <linearGradient id="backBase" x1="0" y1="0" x2="0" y2="1">
      <stop offset="0" stop-color="#0b0b12"/>
      <stop offset="1" stop-color="#05050a"/>
    </linearGradient>
    <filter id="softGlow" x="-30%" y="-30%" width="160%" height="160%">
      <feGaussianBlur stdDeviation="0.7" result="b"/>
      <feMerge>
        <feMergeNode in="b"/>
        <feMergeNode in="SourceGraphic"/>
      </feMerge>
    </filter>
  </defs>
<rect x="0" y="0" width="84" height="114" rx="6" ry="6" fill="#ffffff"/>
<g>
<circle cx="42.65" cy="79.77" r="0.49" fill="#111111" opacity="0.05"/>
<circle cx="27.42" cy="24.03" r="0.46" fill="#111111" opacity="0.12"/>
<circle cx="77.01" cy="22.46" r="0.39" fill="#111111" opacity="0.12"/>
<circle cx="70.70" cy="38.77" r="0.53" fill="#111111" opacity="0.13"/>
<circle cx="7.58" cy="27.90" r="0.33" fill="#111111" opacity="0.12"/>
<circle cx="22.32" cy="30.36" r="0.38" fill="#111111" opacity="0.05"/>
<circle cx="71.05" cy="25.30" r="0.24" fill="#111111" opacity="0.12"/>
<circle cx="0.10" cy="103.26" r="0.41" fill="#111111" opacity="0.08"/>
<circle cx="56.53" cy="24.62" r="0.16" fill="#111111" opacity="0.11"/>
<circle cx="18.25" cy="52.10" r="0.40" fill="#111111" opacity="0.11"/>
<circle cx="41.49" cy="6.73" r="0.33" fill="#111111" opacity="0.08"/>
<circle cx="33.05" cy="22.81" r="0.56" fill="#111111" opacity="0.06"/>
<circle cx="72.61" cy="54.94" r="0.33" fill="#111111" opacity="0.04"/>
<circle cx="82.72" cy="96.28" r="0.20" fill="#111111" opacity="0.09"/>
<circle cx="2.71" cy="37.80" r="0.56" fill="#111111" opacity="0.13"/>
<circle cx="76.68" cy="9.72" r="0.24" fill="#111111" opacity="0.12"/>
<circle cx="16.42" cy="7.89" r="0.40" fill="#111111" opacity="0.07"/>
<circle cx="64.82" cy="78.62" r="0.34" fill="#111111" opacity="0.07"/>
<circle cx="26.06" cy="36.14" r="0.20" fill="#111111" opacity="0.07"/>
<circle cx="19.87" cy="26.34" r="0.31" fill="#111111" opacity="0.12"/>
<circle cx="46.88" cy="3.92" r="0.54" fill="#111111" opacity="0.05"/>
<circle cx="56.98" cy="32.48" r="0.48" fill="#111111" opacity="0.10"/>
<circle cx="51.52" cy="99.75" r="0.25" fill="#111111" opacity="0.04"/>
<circle cx="73.33" cy="101.23" r="0.49" fill="#111111" opacity="0.11"/>
<circle cx="71.18" cy="36.62" r="0.25" fill="#111111" opacity="0.09"/>
<circle cx="34.13" cy="53.08" r="0.38" fill="#111111" opacity="0.05"/>
<circle cx="30.98" cy="74.31" r="0.51" fill="#111111" opacity="0.10"/>
<circle cx="18.95" cy="46.04" r="0.46" fill="#111111" opacity="0.08"/>
<circle cx="20.00" cy="8.60" r="0.31" fill="#111111" opacity="0.04"/>
<circle cx="81.36" cy="86.13" r="0.18" fill="#111111" opacity="0.03"/>
<circle cx="24.00" cy="96.27" r="0.32" fill="#111111" opacity="0.07"/>
<circle cx="70.97" cy="25.10" r="0.31" fill="#111111" opacity="0.04"/>
<circle cx="52.53" cy="48.26" r="0.21" fill="#111111" opacity="0.04"/>
<circle cx="21.43" cy="58.67" r="0.41" fill="#111111" opacity="0.07"/>
<circle cx="20.07" cy="5.76" r="0.18" fill="#111111" opacity="0.10"/>
<circle cx="82.04" cy="99.27" r="0.31" fill="#111111" opacity="0.12"/>
</g>
<rect x="1.6" y="1.6" width="80.8" height="110.8" rx="5.0" ry="5.0" fill="none" stroke="#2a2f3a" stroke-width="1.2"/>
<rect x="3.4" y="3.4" width="77.2" height="107.2" rx="4.2" ry="4.2" fill="none" stroke="#b9bec9" stroke-width="0.9" opacity="0.95"/>
<g>
<rect x="4.0" y="4.0" width="21.5" height="18.5" rx="2.2" ry="2.2" fill="#ffffff" stroke="#c8ccd6" stroke-width="0.6" opacity="0.98"/>

<g>
<rect x="6.20" y="5.90" width="6.99" height="1.22" rx="0.61" ry="0.61" fill="#111111"/>
<polygon points="11.72,6.16 12.98,6.61 8.93,17.91 7.67,17.45" fill="#111111"/>
<rect x="11.98" y="5.90" width="1.22" height="2.94" rx="0.61" ry="0.61" fill="#111111"/>
</g>
<path d="M 17.992 11.11 C 13.468 15.01, 15.964 18.13, 17.992 16.18 C 20.02 18.13, 22.516000000000002 15.01, 17.992 11.11 Z" fill="#111111"/><path d="M 17.056 16.336 C 17.524 17.584, 17.524 18.832, 16.432000000000002 20.236 L 19.552 20.236 C 18.46 18.832, 18.46 17.584, 18.928 16.336 Z" fill="#111111"/>
</g>
<g transform="rotate(180 68.00 97.00)">
<rect x="56.0" y="84.0" width="21.5" height="18.5" rx="2.2" ry="2.2" fill="#ffffff" stroke="#c8ccd6" stroke-width="0.6" opacity="0.98"/>

<g>
<rect x="58.20" y="85.90" width="6.99" height="1.22" rx="0.61" ry="0.61" fill="#111111"/>
<polygon points="63.72,86.16 64.98,86.61 60.93,97.91 59.67,97.45" fill="#111111"/>
<rect x="63.98" y="85.90" width="1.22" height="2.94" rx="0.61" ry="0.61" fill="#111111"/>
</g>
<path d="M 69.99199999999999 91.11 C 65.46799999999999 95.01, 67.96399999999998 98.13000000000001, 69.99199999999999 96.18 C 72.02 98.13000000000001, 74.51599999999999 95.01, 69.99199999999999 91.11 Z" fill="#111111"/><path d="M 69.05599999999998 96.33600000000001 C 69.52399999999999 97.584, 69.52399999999999 98.83200000000001, 68.43199999999999 100.236 L 71.55199999999999 100.236 C 70.46 98.83200000000001, 70.46 97.584, 70.928 96.33600000000001 Z" fill="#111111"/>
</g>
<g>
<path d="M 19.0 21.94 C 13.664000000000001 26.54, 16.608 30.22, 19.0 27.92 C 21.392 30.22, 24.336 26.54, 19.0 21.94 Z" fill="#111111"/><path d="M 17.896 28.104 C 18.448 29.576, 18.448 31.048000000000002, 17.16 32.704 L 20.84 32.704 C 19.552 31.048000000000002, 19.552 29.576, 20.104 28.104 Z" fill="#111111"/>
<path d="M 65.0 21.94 C 59.664 26.54, 62.608 30.22, 65.0 27.92 C 67.392 30.22, 70.336 26.54, 65.0 21.94 Z" fill="#111111"/><path d="M 63.896 28.104 C 64.448 29.576, 64.448 31.048000000000002, 63.16 32.704 L 66.84 32.704 C 65.552 31.048000000000002, 65.552 29.576, 66.104 28.104 Z" fill="#111111"/>
<path d="M 42.0 35.739999999999995 C 36.664 40.339999999999996, 39.608 44.019999999999996, 42.0 41.72 C 44.392 44.019999999999996, 47.336 40.339999999999996, 42.0 35.739999999999995 Z" fill="#111111"/><path d="M 40.896 41.903999999999996 C 41.448 43.376, 41.448 44.848, 40.16 46.504 L 43.84 46.504 C 42.552 44.848, 42.552 43.376, 43.104 41.903999999999996 Z" fill="#111111"/>
<path d="M 19.0 51.94 C 13.664000000000001 56.54, 16.608 60.22, 19.0 57.92 C 21.392 60.22, 24.336 56.54, 19.0 51.94 Z" fill="#111111"/><path d="M 17.896 58.104 C 18.448 59.576, 18.448 61.048, 17.16 62.704 L 20.84 62.704 C 19.552 61.048, 19.552 59.576, 20.104 58.104 Z" fill="#111111"/>
<path d="M 65.0 51.94 C 59.664 56.54, 62.608 60.22, 65.0 57.92 C 67.392 60.22, 70.336 56.54, 65.0 51.94 Z" fill="#111111"/><path d="M 63.896 58.104 C 64.448 59.576, 64.448 61.048, 63.16 62.704 L 66.84 62.704 C 65.552 61.048, 65.552 59.576, 66.104 58.104 Z" fill="#111111"/>
<path d="M 19.0 81.94 C 13.664000000000001 86.54, 16.608 90.22, 19.0 87.92 C 21.392 90.22, 24.336 86.54, 19.0 81.94 Z" fill="#111111"/><path d="M 17.896 88.104 C 18.448 89.576, 18.448 91.048, 17.16 92.704 L 20.84 92.704 C 19.552 91.048, 19.552 89.576, 20.104 88.104 Z" fill="#111111"/>
<path d="M 65.0 81.94 C 59.664 86.54, 62.608 90.22, 65.0 87.92 C 67.392 90.22, 70.336 86.54, 65.0 81.94 Z" fill="#111111"/><path d="M 63.896 88.104 C 64.448 89.576, 64.448 91.048, 63.16 92.704 L 66.84 92.704 C 65.552 91.048, 65.552 89.576, 66.104 88.104 Z" fill="#111111"/>
</g>
</svg>
