<svg xmlns="http://www.w3.org/2000/svg" viewBox="0 0 84 114" width="84" height="114">
  <defs>
    <radialGradient id="nebBack" cx="35%" cy="28%" r="70%">
      <stop offset="0" stop-color="#2b1cff" stop-opacity="0.35"/>
      <stop offset="0.35" stop-color="#ff2bd6" stop-opacity="0.22"/>
      <stop offset="0.75" stop-color="#00e6ff" stop-opacity="0.14"/>
      <stop offset="1" stop-color="#000000" stop-opacity="0"/>
    </radialGradient>
    <linearGradient id="backBase" x1="0" y1="0" x2="0" y2="1">
      <stop offset="0" stop-color="#0b0b12"/>
      <stop offset="1" stop-color="#05050a"/>
    </linearGradient>
    <filter id="softGlow" x="-30%" y="-30%" width="160%" height="160%">
      <feGaussianBlur stdDeviation="0.7" result="b"/>
      <feMerge>
        <feMergeNode in="b"/>
        <feMergeNode in="SourceGraphic"/>
      </feMerge>
    </filter>
  </defs>
<rect x="0" y="0" width="84" height="114" rx="6" ry="6" fill="#ffffff"/>
<g>
<circle cx="74.44" cy="81.41" r="0.21" fill="#111111" opacity="0.08"/>
<circle cx="44.80" cy="79.64" r="0.40" fill="#111111" opacity="0.08"/>
<circle cx="16.96" cy="108.65" r="0.44" fill="#111111" opacity="0.08"/>
<circle cx="57.78" cy="60.56" r="0.34" fill="#111111" opacity="0.05"/>
<circle cx="65.17" cy="80.41" r="0.18" fill="#111111" opacity="0.09"/>
<circle cx="40.85" cy="68.36" r="0.25" fill="#111111" opacity="0.09"/>
<circle cx="39.76" cy="41.28" r="0.43" fill="#111111" opacity="0.07"/>
<circle cx="11.48" cy="82.21" r="0.30" fill="#111111" opacity="0.13"/>
<circle cx="64.23" cy="102.57" r="0.27" fill="#111111" opacity="0.06"/>
<circle cx="3.57" cy="18.21" r="0.51" fill="#111111" opacity="0.12"/>
<circle cx="77.82" cy="110.75" r="0.31" fill="#111111" opacity="0.05"/>
<circle cx="28.46" cy="71.48" r="0.25" fill="#111111" opacity="0.04"/>
<circle cx="25.35" cy="67.86" r="0.13" fill="#111111" opacity="0.09"/>
<circle cx="13.18" cy="102.92" r="0.28" fill="#111111" opacity="0.03"/>
<circle cx="75.13" cy="63.23" r="0.38" fill="#111111" opacity="0.04"/>
<circle cx="28.39" cy="82.67" r="0.35" fill="#111111" opacity="0.04"/>
<circle cx="25.39" cy="65.62" r="0.53" fill="#111111" opacity="0.09"/>
<circle cx="13.48" cy="104.96" r="0.19" fill="#111111" opacity="0.09"/>
<circle cx="51.66" cy="61.70" r="0.22" fill="#111111" opacity="0.07"/>
<circle cx="60.87" cy="23.53" r="0.40" fill="#111111" opacity="0.09"/>
<circle cx="25.80" cy="67.63" r="0.48" fill="#111111" opacity="0.03"/>
<circle cx="65.21" cy="80.07" r="0.35" fill="#111111" opacity="0.13"/>
<circle cx="81.17" cy="86.91" r="0.34" fill="#111111" opacity="0.12"/>
<circle cx="28.51" cy="37.57" r="0.22" fill="#111111" opacity="0.13"/>
<circle cx="23.93" cy="21.01" r="0.39" fill="#111111" opacity="0.05"/>
<circle cx="14.85" cy="6.63" r="0.44" fill="#111111" opacity="0.10"/>
<circle cx="44.22" cy="87.31" r="0.49" fill="#111111" opacity="0.08"/>
<circle cx="38.15" cy="84.59" r="0.54" fill="#111111" opacity="0.07"/>
<circle cx="81.50" cy="73.21" r="0.48" fill="#111111" opacity="0.05"/>
<circle cx="70.80" cy="20.67" r="0.38" fill="#111111" opacity="0.12"/>
<circle cx="2.53" cy="90.88" r="0.43" fill="#111111" opacity="0.06"/>
<circle cx="58.01" cy="25.91" r="0.16" fill="#111111" opacity="0.03"/>
<circle cx="10.08" cy="7.71" r="0.16" fill="#111111" opacity="0.05"/>
<circle cx="58.04" cy="106.63" r="0.26" fill="#111111" opacity="0.07"/>
<circle cx="74.45" cy="10.47" r="0.25" fill="#111111" opacity="0.11"/>
<circle cx="17.87" cy="45.55" r="0.38" fill="#111111" opacity="0.06"/>
</g>
<rect x="1.6" y="1.6" width="80.8" height="110.8" rx="5.0" ry="5.0" fill="none" stroke="#2a2f3a" stroke-width="1.2"/>
<rect x="3.4" y="3.4" width="77.2" height="107.2" rx="4.2" ry="4.2" fill="none" stroke="#b9bec9" stroke-width="0.9" opacity="0.95"/>
<g>
<rect x="4.0" y="4.0" width="21.5" height="18.5" rx="2.2" ry="2.2" fill="#ffffff" stroke="#c8ccd6" stroke-width="0.6" opacity="0.98"/>

<g>
<rect x="6.20" y="5.90" width="6.99" height="1.22" rx="0.61" ry="0.61" fill="#111111"/>
<rect x="6.20" y="11.79" width="6.99" height="1.22" rx="0.61" ry="0.61" fill="#111111"/>
<rect x="6.20" y="16.46" width="6.99" height="1.22" rx="0.61" ry="0.61" fill="#111111"/>
<rect x="6.20" y="5.90" width="1.22" height="11.78" rx="0.61" ry="0.61" fill="#111111"/>
<rect x="11.98" y="5.90" width="1.22" height="11.78" rx="0.61" ry="0.61" fill="#111111"/>
</g>
<circle cx="17.992" cy="13.450000000000001" r="1.716" fill="#111111"/>
<circle cx="16.042" cy="15.556000000000001" r="1.716" fill="#111111"/>
<circle cx="19.942" cy="15.556000000000001" r="1.716" fill="#111111"/>
<path d="M 17.992 15.790000000000001 C 18.382 17.116, 18.382 19.144, 17.992 20.236 C 17.602 19.144, 17.602 17.116, 17.992 15.790000000000001 Z" fill="#111111"/>
</g>
<g transform="rotate(180 68.00 97.00)">
<rect x="56.0" y="84.0" width="21.5" height="18.5" rx="2.2" ry="2.2" fill="#ffffff" stroke="#c8ccd6" stroke-width="0.6" opacity="0.98"/>

<g>
<rect x="58.20" y="85.90" width="6.99" height="1.22" rx="0.61" ry="0.61" fill="#111111"/>
<rect x="58.20" y="91.79" width="6.99" height="1.22" rx="0.61" ry="0.61" fill="#111111"/>
<rect x="58.20" y="96.46" width="6.99" height="1.22" rx="0.61" ry="0.61" fill="#111111"/>
<rect x="58.20" y="85.90" width="1.22" height="11.78" rx="0.61" ry="0.61" fill="#111111"/>
<rect x="63.98" y="85.90" width="1.22" height="11.78" rx="0.61" ry="0.61" fill="#111111"/>
</g>
<circle cx="69.99199999999999" cy="93.45" r="1.716" fill="#111111"/>
<circle cx="68.04199999999999" cy="95.55600000000001" r="1.716" fill="#111111"/>
<circle cx="71.942" cy="95.55600000000001" r="1.716" fill="#111111"/>
<path d="M 69.99199999999999 95.79 C 70.38199999999999 97.116, 70.38199999999999 99.144, 69.99199999999999 100.236 C 69.60199999999999 99.144, 69.60199999999999 97.116, 69.99199999999999 95.79 Z" fill="#111111"/>
</g>
<g>
<circle cx="19.0" cy="24.9" r="1.848" fill="#111111"/>
<circle cx="16.9" cy="27.168" r="1.848" fill="#111111"/>
<circle cx="21.1" cy="27.168" r="1.848" fill="#111111"/>
<path d="M 19.0 27.42 C 19.42 28.848, 19.42 31.032, 19.0 32.208 C 18.58 31.032, 18.58 28.848, 19.0 27.42 Z" fill="#111111"/>
<circle cx="65.0" cy="24.9" r="1.848" fill="#111111"/>
<circle cx="62.9" cy="27.168" r="1.848" fill="#111111"/>
<circle cx="67.1" cy="27.168" r="1.848" fill="#111111"/>
<path d="M 65.0 27.42 C 65.42 28.848, 65.42 31.032, 65.0 32.208 C 64.58 31.032, 64.58 28.848, 65.0 27.42 Z" fill="#111111"/>
<circle cx="42.0" cy="38.699999999999996" r="1.848" fill="#111111"/>
<circle cx="39.9" cy="40.967999999999996" r="1.848" fill="#111111"/>
<circle cx="44.1" cy="40.967999999999996" r="1.848" fill="#111111"/>
<path d="M 42.0 41.22 C 42.42 42.647999999999996, 42.42 44.831999999999994, 42.0 46.007999999999996 C 41.58 44.831999999999994, 41.58 42.647999999999996, 42.0 41.22 Z" fill="#111111"/>
<circle cx="19.0" cy="54.9" r="1.848" fill="#111111"/>
<circle cx="16.9" cy="57.168" r="1.848" fill="#111111"/>
<circle cx="21.1" cy="57.168" r="1.848" fill="#111111"/>
<path d="M 19.0 57.42 C 19.42 58.848, 19.42 61.032, 19.0 62.208 C 18.58 61.032, 18.58 58.848, 19.0 57.42 Z" fill="#111111"/>
<circle cx="65.0" cy="54.9" r="1.848" fill="#111111"/>
<circle cx="62.9" cy="57.168" r="1.848" fill="#111111"/>
<circle cx="67.1" cy="57.168" r="1.848" fill="#111111"/>
<path d="M 65.0 57.42 C 65.42 58.848, 65.42 61.032, 65.0 62.208 C 64.58 61.032, 64.58 58.848, 65.0 57.42 Z" fill="#111111"/>
<circle cx="42.0" cy="71.10000000000001" r="1.848" fill="#111111"/>
<circle cx="39.9" cy="73.36800000000001" r="1.848" fill="#111111"/>
<circle cx="44.1" cy="73.36800000000001" r="1.848" fill="#111111"/>
<path d="M 42.0 73.62 C 42.42 75.048, 42.42 77.232, 42.0 78.408 C 41.58 77.232, 41.58 75.048, 42.0 73.62 Z" fill="#111111"/>
<circle cx="19.0" cy="84.9" r="1.848" fill="#111111"/>
<circle cx="16.9" cy="87.168" r="1.848" fill="#111111"/>
<circle cx="21.1" cy="87.168" r="1.848" fill="#111111"/>
<path d="M 19.0 87.42 C 19.42 88.848, 19.42 91.032, 19.0 92.208 C 18.58 91.032, 18.58 88.848, 19.0 87.42 Z" fill="#111111"/>
<circle cx="65.0" cy="84.9" r="1.848" fill="#111111"/>
<circle cx="62.9" cy="87.168" r="1.848" fill="#111111"/>
<circle cx="67.1" cy="87.168" r="1.848" fill="#111111"/>
<path d="M 65.0 87.42 C 65.42 88.848, 65.42 91.032, 65.0 92.208 C 64.58 91.032, 64.58 88.848, 65.0 87.42 Z" fill="#111111"/>
</g>
</svg>
