<svg xmlns="http://www.w3.org/2000/svg" viewBox="0 0 84 114" width="84" height="114">
  <defs>
    <radialGradient id="nebBack" cx="35%" cy="28%" r="70%">
      <stop offset="0" stop-color="#2b1cff" stop-opacity="0.35"/>
      <stop offset="0.35" stop-color="#ff2bd6" stop-opacity="0.22"/>
      <stop offset="0.75" stop-color="#00e6ff" stop-opacity="0.14"/>
      <stop offset="1" stop-color="#000000" stop-opacity="0"/>
    </radialGradient>
    <linearGradient id="backBase" x1="0" y1="0" x2="0" y2="1">
      <stop offset="0" stop-color="#0b0b12"/>
      <stop offset="1" stop-color="#05050a"/>
    </linearGradient>
    <filter id="softGlow" x="-30%" y="-30%" width="160%" height="160%">
      <feGaussianBlur stdDeviation="0.7" result="b"/>
      <feMerge>
        <feMergeNode in="b"/>
        <feMergeNode in="SourceGraphic"/>
      </feMerge>
    </filter>
  </defs>
<rect x="0" y="0" width="84" height="114" rx="6" ry="6" fill="#ffffff"/>
<g>
<circle cx="53.76" cy="75.85" r="0.15" fill="#111111" opacity="0.08"/>
<circle cx="41.89" cy="63.35" r="0.32" fill="#111111" opacity="0.07"/>
<circle cx="65.86" cy="85.35" r="0.22" fill="#111111" opacity="0.07"/>
<circle cx="70.09" cy="98.93" r="0.44" fill="#111111" opacity="0.12"/>
<circle cx="41.94" cy="92.22" r="0.17" fill="#111111" opacity="0.06"/>
<circle cx="79.22" cy="50.33" r="0.21" fill="#111111" opacity="0.04"/>
<circle cx="61.87" cy="48.01" r="0.40" fill="#111111" opacity="0.10"/>
<circle cx="64.49" cy="44.79" r="0.24" fill="#111111" opacity="0.03"/>
<circle cx="19.79" cy="94.72" r="0.47" fill="#111111" opacity="0.09"/>
<circle cx="26.51" cy="4.94" r="0.28" fill="#111111" opacity="0.11"/>
<circle cx="72.77" cy="21.53" r="0.43" fill="#111111" opacity="0.12"/>
<circle cx="42.88" cy="29.87" r="0.57" fill="#111111" opacity="0.09"/>
<circle cx="61.07" cy="64.88" r="0.13" fill="#111111" opacity="0.04"/>
<circle cx="80.20" cy="43.19" r="0.49" fill="#111111" opacity="0.06"/>
<circle cx="36.13" cy="70.00" r="0.43" fill="#111111" opacity="0.05"/>
<circle cx="21.42" cy="57.90" r="0.29" fill="#111111" opacity="0.07"/>
<circle cx="57.51" cy="106.61" r="0.24" fill="#111111" opacity="0.06"/>
<circle cx="58.82" cy="10.27" r="0.39" fill="#111111" opacity="0.07"/>
<circle cx="22.97" cy="101.60" r="0.23" fill="#111111" opacity="0.05"/>
<circle cx="36.41" cy="6.45" r="0.51" fill="#111111" opacity="0.07"/>
<circle cx="68.76" cy="4.73" r="0.16" fill="#111111" opacity="0.12"/>
<circle cx="60.32" cy="16.24" r="0.32" fill="#111111" opacity="0.04"/>
<circle cx="79.08" cy="111.98" r="0.15" fill="#111111" opacity="0.08"/>
<circle cx="80.55" cy="42.96" r="0.21" fill="#111111" opacity="0.08"/>
<circle cx="65.98" cy="99.05" r="0.41" fill="#111111" opacity="0.04"/>
<circle cx="4.17" cy="48.60" r="0.49" fill="#111111" opacity="0.05"/>
<circle cx="2.86" cy="98.32" r="0.40" fill="#111111" opacity="0.03"/>
<circle cx="43.65" cy="101.13" r="0.16" fill="#111111" opacity="0.09"/>
<circle cx="32.65" cy="72.82" r="0.15" fill="#111111" opacity="0.04"/>
<circle cx="12.10" cy="90.11" r="0.45" fill="#111111" opacity="0.06"/>
<circle cx="20.70" cy="109.98" r="0.19" fill="#111111" opacity="0.12"/>
<circle cx="4.38" cy="39.39" r="0.36" fill="#111111" opacity="0.11"/>
<circle cx="19.65" cy="41.81" r="0.14" fill="#111111" opacity="0.10"/>
<circle cx="63.51" cy="97.90" r="0.55" fill="#111111" opacity="0.09"/>
<circle cx="64.74" cy="44.87" r="0.56" fill="#111111" opacity="0.11"/>
<circle cx="55.91" cy="5.29" r="0.30" fill="#111111" opacity="0.05"/>
</g>
<rect x="1.6" y="1.6" width="80.8" height="110.8" rx="5.0" ry="5.0" fill="none" stroke="#2a2f3a" stroke-width="1.2"/>
<rect x="3.4" y="3.4" width="77.2" height="107.2" rx="4.2" ry="4.2" fill="none" stroke="#b9bec9" stroke-width="0.9" opacity="0.95"/>
<g>
<rect x="4.0" y="4.0" width="21.5" height="18.5" rx="2.2" ry="2.2" fill="#ffffff" stroke="#c8ccd6" stroke-width="0.6" opacity="0.98"/>

<g>
<rect x="6.20" y="5.90" width="6.99" height="1.22" rx="0.61" ry="0.61" fill="#c40010"/>
<rect x="6.20" y="11.79" width="6.99" height="1.22" rx="0.61" ry="0.61" fill="#c40010"/>
<rect x="6.20" y="16.46" width="6.99" height="1.22" rx="0.61" ry="0.61" fill="#c40010"/>
<rect x="6.20" y="5.90" width="1.22" height="6.48" rx="0.61" ry="0.61" fill="#c40010"/>
<rect x="11.98" y="5.90" width="1.22" height="11.78" rx="0.61" ry="0.61" fill="#c40010"/>
</g>
<path d="M 17.992 10.33 L 22.282 15.4 L 17.992 20.47 L 13.702000000000002 15.4 Z" fill="#c40010"/>
</g>
<g transform="rotate(180 68.00 97.00)">
<rect x="56.0" y="84.0" width="21.5" height="18.5" rx="2.2" ry="2.2" fill="#ffffff" stroke="#c8ccd6" stroke-width="0.6" opacity="0.98"/>

<g>
<rect x="58.20" y="85.90" width="6.99" height="1.22" rx="0.61" ry="0.61" fill="#c40010"/>
<rect x="58.20" y="91.79" width="6.99" height="1.22" rx="0.61" ry="0.61" fill="#c40010"/>
<rect x="58.20" y="96.46" width="6.99" height="1.22" rx="0.61" ry="0.61" fill="#c40010"/>
<rect x="58.20" y="85.90" width="1.22" height="6.48" rx="0.61" ry="0.61" fill="#c40010"/>
<rect x="63.98" y="85.90" width="1.22" height="11.78" rx="0.61" ry="0.61" fill="#c40010"/>
</g>
<path d="M 69.99199999999999 90.33000000000001 L 74.282 95.4 L 69.99199999999999 100.47 L 65.70199999999998 95.4 Z" fill="#c40010"/>
</g>
<g>
<path d="M 19.0 21.54 L 23.62 27.0 L 19.0 32.46 L 14.379999999999999 27.0 Z" fill="#c40010"/>
<path d="M 65.0 21.54 L 69.62 27.0 L 65.0 32.46 L 60.379999999999995 27.0 Z" fill="#c40010"/>
<path d="M 19.0 35.339999999999996 L 23.62 40.8 L 19.0 46.26 L 14.379999999999999 40.8 Z" fill="#c40010"/>
<path d="M 65.0 35.339999999999996 L 69.62 40.8 L 65.0 46.26 L 60.379999999999995 40.8 Z" fill="#c40010"/>
<path d="M 42.0 51.54 L 46.620000000000005 57.0 L 42.0 62.46 L 37.379999999999995 57.0 Z" fill="#c40010"/>
<path d="M 19.0 67.74000000000001 L 23.62 73.2 L 19.0 78.66 L 14.379999999999999 73.2 Z" fill="#c40010"/>
<path d="M 65.0 67.74000000000001 L 69.62 73.2 L 65.0 78.66 L 60.379999999999995 73.2 Z" fill="#c40010"/>
<path d="M 19.0 81.53999999999999 L 23.62 87.0 L 19.0 92.46000000000001 L 14.379999999999999 87.0 Z" fill="#c40010"/>
<path d="M 65.0 81.53999999999999 L 69.62 87.0 L 65.0 92.46000000000001 L 60.379999999999995 87.0 Z" fill="#c40010"/>
</g>
</svg>
