<svg xmlns="http://www.w3.org/2000/svg" viewBox="0 0 84 114" width="84" height="114">
  <defs>
    <radialGradient id="nebBack" cx="35%" cy="28%" r="70%">
      <stop offset="0" stop-color="#2b1cff" stop-opacity="0.35"/>
      <stop offset="0.35" stop-color="#ff2bd6" stop-opacity="0.22"/>
      <stop offset="0.75" stop-color="#00e6ff" stop-opacity="0.14"/>
      <stop offset="1" stop-color="#000000" stop-opacity="0"/>
    </radialGradient>
    <linearGradient id="backBase" x1="0" y1="0" x2="0" y2="1">
      <stop offset="0" stop-color="#0b0b12"/>
      <stop offset="1" stop-color="#05050a"/>
    </linearGradient>
    <filter id="softGlow" x="-30%" y="-30%" width="160%" height="160%">
      <feGaussianBlur stdDeviation="0.7" result="b"/>
      <feMerge>
        <feMergeNode in="b"/>
        <feMergeNode in="SourceGraphic"/>
      </feMerge>
    </filter>
  </defs>
<rect x="0" y="0" width="84" height="114" rx="6" ry="6" fill="#ffffff"/>
<g>
<circle cx="50.68" cy="82.68" r="0.22" fill="#111111" opacity="0.08"/>
<circle cx="43.80" cy="27.00" r="0.40" fill="#111111" opacity="0.05"/>
<circle cx="13.53" cy="32.36" r="0.30" fill="#111111" opacity="0.12"/>
<circle cx="69.26" cy="59.93" r="0.23" fill="#111111" opacity="0.04"/>
<circle cx="68.99" cy="102.27" r="0.16" fill="#111111" opacity="0.07"/>
<circle cx="42.00" cy="15.03" r="0.21" fill="#111111" opacity="0.10"/>
<circle cx="24.40" cy="94.00" r="0.36" fill="#111111" opacity="0.11"/>
<circle cx="45.00" cy="4.55" r="0.44" fill="#111111" opacity="0.08"/>
<circle cx="67.14" cy="105.77" r="0.50" fill="#111111" opacity="0.09"/>
<circle cx="14.52" cy="77.91" r="0.12" fill="#111111" opacity="0.05"/>
<circle cx="69.42" cy="51.36" r="0.40" fill="#111111" opacity="0.12"/>
<circle cx="80.91" cy="22.61" r="0.49" fill="#111111" opacity="0.05"/>
<circle cx="80.34" cy="64.38" r="0.54" fill="#111111" opacity="0.08"/>
<circle cx="76.45" cy="87.33" r="0.13" fill="#111111" opacity="0.07"/>
<circle cx="32.33" cy="29.06" r="0.32" fill="#111111" opacity="0.13"/>
<circle cx="1.39" cy="66.03" r="0.25" fill="#111111" opacity="0.11"/>
<circle cx="81.60" cy="1.45" r="0.53" fill="#111111" opacity="0.07"/>
<circle cx="77.35" cy="98.34" r="0.44" fill="#111111" opacity="0.09"/>
<circle cx="39.54" cy="98.74" r="0.47" fill="#111111" opacity="0.12"/>
<circle cx="78.65" cy="56.04" r="0.14" fill="#111111" opacity="0.07"/>
<circle cx="51.73" cy="97.67" r="0.42" fill="#111111" opacity="0.09"/>
<circle cx="18.76" cy="96.58" r="0.31" fill="#111111" opacity="0.08"/>
<circle cx="19.56" cy="95.58" r="0.30" fill="#111111" opacity="0.12"/>
<circle cx="65.66" cy="89.82" r="0.38" fill="#111111" opacity="0.13"/>
<circle cx="60.22" cy="110.76" r="0.47" fill="#111111" opacity="0.04"/>
<circle cx="82.75" cy="22.72" r="0.52" fill="#111111" opacity="0.09"/>
<circle cx="67.51" cy="21.93" r="0.50" fill="#111111" opacity="0.08"/>
<circle cx="14.79" cy="13.47" r="0.32" fill="#111111" opacity="0.06"/>
<circle cx="70.62" cy="39.57" r="0.55" fill="#111111" opacity="0.12"/>
<circle cx="68.42" cy="84.74" r="0.49" fill="#111111" opacity="0.08"/>
<circle cx="10.32" cy="25.68" r="0.14" fill="#111111" opacity="0.06"/>
<circle cx="8.73" cy="22.08" r="0.18" fill="#111111" opacity="0.10"/>
<circle cx="27.83" cy="20.12" r="0.16" fill="#111111" opacity="0.11"/>
<circle cx="43.24" cy="44.98" r="0.14" fill="#111111" opacity="0.13"/>
<circle cx="20.28" cy="33.83" r="0.49" fill="#111111" opacity="0.05"/>
<circle cx="8.11" cy="5.84" r="0.33" fill="#111111" opacity="0.07"/>
</g>
<rect x="1.6" y="1.6" width="80.8" height="110.8" rx="5.0" ry="5.0" fill="none" stroke="#2a2f3a" stroke-width="1.2"/>
<rect x="3.4" y="3.4" width="77.2" height="107.2" rx="4.2" ry="4.2" fill="none" stroke="#b9bec9" stroke-width="0.9" opacity="0.95"/>
<g>
<rect x="4.0" y="4.0" width="21.5" height="18.5" rx="2.2" ry="2.2" fill="#ffffff" stroke="#c8ccd6" stroke-width="0.6" opacity="0.98"/>

<g>
<rect x="6.20" y="5.90" width="6.99" height="1.22" rx="0.61" ry="0.61" fill="#c40010"/>
<rect x="6.20" y="11.79" width="6.99" height="1.22" rx="0.61" ry="0.61" fill="#c40010"/>
<rect x="6.20" y="16.46" width="6.99" height="1.22" rx="0.61" ry="0.61" fill="#c40010"/>
<rect x="6.20" y="5.90" width="1.22" height="6.48" rx="0.61" ry="0.61" fill="#c40010"/>
<rect x="11.98" y="5.90" width="1.22" height="11.78" rx="0.61" ry="0.61" fill="#c40010"/>
</g>
<path d="M 17.992 18.832 C 13.312000000000001 16.18, 14.482000000000001 11.11, 17.992 13.996 C 21.502000000000002 11.11, 22.672 16.18, 17.992 18.832 Z" fill="#c40010"/>
</g>
<g transform="rotate(180 68.00 97.00)">
<rect x="56.0" y="84.0" width="21.5" height="18.5" rx="2.2" ry="2.2" fill="#ffffff" stroke="#c8ccd6" stroke-width="0.6" opacity="0.98"/>

<g>
<rect x="58.20" y="85.90" width="6.99" height="1.22" rx="0.61" ry="0.61" fill="#c40010"/>
<rect x="58.20" y="91.79" width="6.99" height="1.22" rx="0.61" ry="0.61" fill="#c40010"/>
<rect x="58.20" y="96.46" width="6.99" height="1.22" rx="0.61" ry="0.61" fill="#c40010"/>
<rect x="58.20" y="85.90" width="1.22" height="6.48" rx="0.61" ry="0.61" fill="#c40010"/>
<rect x="63.98" y="85.90" width="1.22" height="11.78" rx="0.61" ry="0.61" fill="#c40010"/>
</g>
<path d="M 69.99199999999999 98.83200000000001 C 65.31199999999998 96.18, 66.48199999999999 91.11, 69.99199999999999 93.99600000000001 C 73.502 91.11, 74.672 96.18, 69.99199999999999 98.83200000000001 Z" fill="#c40010"/>
</g>
<g>
<path d="M 19.0 30.696 C 13.96 27.84, 15.219999999999999 22.38, 19.0 25.488 C 22.78 22.38, 24.04 27.84, 19.0 30.696 Z" fill="#c40010"/>
<path d="M 65.0 30.696 C 59.96 27.84, 61.22 22.38, 65.0 25.488 C 68.78 22.38, 70.04 27.84, 65.0 30.696 Z" fill="#c40010"/>
<path d="M 19.0 44.495999999999995 C 13.96 41.64, 15.219999999999999 36.17999999999999, 19.0 39.288 C 22.78 36.17999999999999, 24.04 41.64, 19.0 44.495999999999995 Z" fill="#c40010"/>
<path d="M 65.0 44.495999999999995 C 59.96 41.64, 61.22 36.17999999999999, 65.0 39.288 C 68.78 36.17999999999999, 70.04 41.64, 65.0 44.495999999999995 Z" fill="#c40010"/>
<path d="M 42.0 60.696 C 36.96 57.84, 38.22 52.379999999999995, 42.0 55.488 C 45.78 52.379999999999995, 47.04 57.84, 42.0 60.696 Z" fill="#c40010"/>
<path d="M 19.0 76.896 C 13.96 74.04, 15.219999999999999 68.58, 19.0 71.688 C 22.78 68.58, 24.04 74.04, 19.0 76.896 Z" fill="#c40010"/>
<path d="M 65.0 76.896 C 59.96 74.04, 61.22 68.58, 65.0 71.688 C 68.78 68.58, 70.04 74.04, 65.0 76.896 Z" fill="#c40010"/>
<path d="M 19.0 90.696 C 13.96 87.84, 15.219999999999999 82.38, 19.0 85.488 C 22.78 82.38, 24.04 87.84, 19.0 90.696 Z" fill="#c40010"/>
<path d="M 65.0 90.696 C 59.96 87.84, 61.22 82.38, 65.0 85.488 C 68.78 82.38, 70.04 87.84, 65.0 90.696 Z" fill="#c40010"/>
</g>
</svg>
