<svg xmlns="http://www.w3.org/2000/svg" viewBox="0 0 84 114" width="84" height="114">
  <defs>
    <radialGradient id="nebBack" cx="35%" cy="28%" r="70%">
      <stop offset="0" stop-color="#2b1cff" stop-opacity="0.35"/>
      <stop offset="0.35" stop-color="#ff2bd6" stop-opacity="0.22"/>
      <stop offset="0.75" stop-color="#00e6ff" stop-opacity="0.14"/>
      <stop offset="1" stop-color="#000000" stop-opacity="0"/>
    </radialGradient>
    <linearGradient id="backBase" x1="0" y1="0" x2="0" y2="1">
      <stop offset="0" stop-color="#0b0b12"/>
      <stop offset="1" stop-color="#05050a"/>
    </linearGradient>
    <filter id="softGlow" x="-30%" y="-30%" width="160%" height="160%">
      <feGaussianBlur stdDeviation="0.7" result="b"/>
      <feMerge>
        <feMergeNode in="b"/>
        <feMergeNode in="SourceGraphic"/>
      </feMerge>
    </filter>
  </defs>
<rect x="0" y="0" width="84" height="114" rx="6" ry="6" fill="#ffffff"/>
<g>
<circle cx="59.89" cy="51.28" r="0.14" fill="#111111" opacity="0.06"/>
<circle cx="3.37" cy="96.79" r="0.43" fill="#111111" opacity="0.10"/>
<circle cx="57.25" cy="105.91" r="0.28" fill="#111111" opacity="0.10"/>
<circle cx="29.49" cy="95.82" r="0.33" fill="#111111" opacity="0.04"/>
<circle cx="12.61" cy="24.02" r="0.38" fill="#111111" opacity="0.09"/>
<circle cx="66.93" cy="80.52" r="0.23" fill="#111111" opacity="0.12"/>
<circle cx="73.07" cy="108.20" r="0.26" fill="#111111" opacity="0.04"/>
<circle cx="44.39" cy="103.72" r="0.45" fill="#111111" opacity="0.12"/>
<circle cx="11.01" cy="66.54" r="0.16" fill="#111111" opacity="0.05"/>
<circle cx="40.64" cy="101.22" r="0.13" fill="#111111" opacity="0.12"/>
<circle cx="75.11" cy="14.23" r="0.19" fill="#111111" opacity="0.08"/>
<circle cx="52.96" cy="107.57" r="0.30" fill="#111111" opacity="0.12"/>
<circle cx="50.02" cy="50.38" r="0.29" fill="#111111" opacity="0.05"/>
<circle cx="33.07" cy="72.48" r="0.26" fill="#111111" opacity="0.07"/>
<circle cx="53.82" cy="96.63" r="0.48" fill="#111111" opacity="0.11"/>
<circle cx="43.99" cy="29.87" r="0.48" fill="#111111" opacity="0.09"/>
<circle cx="58.58" cy="14.51" r="0.34" fill="#111111" opacity="0.03"/>
<circle cx="64.68" cy="7.53" r="0.48" fill="#111111" opacity="0.11"/>
<circle cx="5.91" cy="44.59" r="0.42" fill="#111111" opacity="0.08"/>
<circle cx="55.54" cy="103.99" r="0.27" fill="#111111" opacity="0.04"/>
<circle cx="30.08" cy="81.17" r="0.48" fill="#111111" opacity="0.11"/>
<circle cx="51.03" cy="81.10" r="0.21" fill="#111111" opacity="0.03"/>
<circle cx="10.13" cy="77.54" r="0.44" fill="#111111" opacity="0.10"/>
<circle cx="9.09" cy="50.43" r="0.42" fill="#111111" opacity="0.06"/>
<circle cx="46.04" cy="94.34" r="0.37" fill="#111111" opacity="0.10"/>
<circle cx="19.63" cy="12.37" r="0.19" fill="#111111" opacity="0.07"/>
<circle cx="61.25" cy="55.89" r="0.15" fill="#111111" opacity="0.12"/>
<circle cx="16.52" cy="109.25" r="0.35" fill="#111111" opacity="0.07"/>
<circle cx="79.47" cy="31.82" r="0.47" fill="#111111" opacity="0.03"/>
<circle cx="33.59" cy="92.78" r="0.13" fill="#111111" opacity="0.10"/>
<circle cx="71.69" cy="61.77" r="0.26" fill="#111111" opacity="0.10"/>
<circle cx="69.29" cy="15.15" r="0.25" fill="#111111" opacity="0.08"/>
<circle cx="77.46" cy="59.29" r="0.52" fill="#111111" opacity="0.10"/>
<circle cx="77.74" cy="40.30" r="0.17" fill="#111111" opacity="0.11"/>
<circle cx="8.03" cy="44.71" r="0.41" fill="#111111" opacity="0.08"/>
<circle cx="83.47" cy="25.12" r="0.30" fill="#111111" opacity="0.08"/>
</g>
<rect x="1.6" y="1.6" width="80.8" height="110.8" rx="5.0" ry="5.0" fill="none" stroke="#2a2f3a" stroke-width="1.2"/>
<rect x="3.4" y="3.4" width="77.2" height="107.2" rx="4.2" ry="4.2" fill="none" stroke="#b9bec9" stroke-width="0.9" opacity="0.95"/>
<g>
<rect x="4.0" y="4.0" width="21.5" height="18.5" rx="2.2" ry="2.2" fill="#ffffff" stroke="#c8ccd6" stroke-width="0.6" opacity="0.98"/>

<g>
<rect x="6.20" y="5.90" width="6.99" height="1.22" rx="0.61" ry="0.61" fill="#111111"/>
<rect x="6.20" y="11.79" width="6.99" height="1.22" rx="0.61" ry="0.61" fill="#111111"/>
<rect x="6.20" y="16.46" width="6.99" height="1.22" rx="0.61" ry="0.61" fill="#111111"/>
<rect x="6.20" y="5.90" width="1.22" height="6.48" rx="0.61" ry="0.61" fill="#111111"/>
<rect x="11.98" y="5.90" width="1.22" height="11.78" rx="0.61" ry="0.61" fill="#111111"/>
</g>
<path d="M 17.992 11.11 C 13.468 15.01, 15.964 18.13, 17.992 16.18 C 20.02 18.13, 22.516000000000002 15.01, 17.992 11.11 Z" fill="#111111"/><path d="M 17.056 16.336 C 17.524 17.584, 17.524 18.832, 16.432000000000002 20.236 L 19.552 20.236 C 18.46 18.832, 18.46 17.584, 18.928 16.336 Z" fill="#111111"/>
</g>
<g transform="rotate(180 68.00 97.00)">
<rect x="56.0" y="84.0" width="21.5" height="18.5" rx="2.2" ry="2.2" fill="#ffffff" stroke="#c8ccd6" stroke-width="0.6" opacity="0.98"/>

<g>
<rect x="58.20" y="85.90" width="6.99" height="1.22" rx="0.61" ry="0.61" fill="#111111"/>
<rect x="58.20" y="91.79" width="6.99" height="1.22" rx="0.61" ry="0.61" fill="#111111"/>
<rect x="58.20" y="96.46" width="6.99" height="1.22" rx="0.61" ry="0.61" fill="#111111"/>
<rect x="58.20" y="85.90" width="1.22" height="6.48" rx="0.61" ry="0.61" fill="#111111"/>
<rect x="63.98" y="85.90" width="1.22" height="11.78" rx="0.61" ry="0.61" fill="#111111"/>
</g>
<path d="M 69.99199999999999 91.11 C 65.46799999999999 95.01, 67.96399999999998 98.13000000000001, 69.99199999999999 96.18 C 72.02 98.13000000000001, 74.51599999999999 95.01, 69.99199999999999 91.11 Z" fill="#111111"/><path d="M 69.05599999999998 96.33600000000001 C 69.52399999999999 97.584, 69.52399999999999 98.83200000000001, 68.43199999999999 100.236 L 71.55199999999999 100.236 C 70.46 98.83200000000001, 70.46 97.584, 70.928 96.33600000000001 Z" fill="#111111"/>
</g>
<g>
<path d="M 19.0 22.38 C 14.128 26.58, 16.816 29.94, 19.0 27.84 C 21.184 29.94, 23.872 26.58, 19.0 22.38 Z" fill="#111111"/><path d="M 17.992 28.008 C 18.496 29.352, 18.496 30.696, 17.32 32.208 L 20.68 32.208 C 19.504 30.696, 19.504 29.352, 20.008 28.008 Z" fill="#111111"/>
<path d="M 65.0 22.38 C 60.128 26.58, 62.816 29.94, 65.0 27.84 C 67.184 29.94, 69.872 26.58, 65.0 22.38 Z" fill="#111111"/><path d="M 63.992 28.008 C 64.496 29.352, 64.496 30.696, 63.32 32.208 L 66.68 32.208 C 65.504 30.696, 65.504 29.352, 66.008 28.008 Z" fill="#111111"/>
<path d="M 19.0 36.17999999999999 C 14.128 40.379999999999995, 16.816 43.739999999999995, 19.0 41.64 C 21.184 43.739999999999995, 23.872 40.379999999999995, 19.0 36.17999999999999 Z" fill="#111111"/><path d="M 17.992 41.808 C 18.496 43.152, 18.496 44.495999999999995, 17.32 46.007999999999996 L 20.68 46.007999999999996 C 19.504 44.495999999999995, 19.504 43.152, 20.008 41.808 Z" fill="#111111"/>
<path d="M 65.0 36.17999999999999 C 60.128 40.379999999999995, 62.816 43.739999999999995, 65.0 41.64 C 67.184 43.739999999999995, 69.872 40.379999999999995, 65.0 36.17999999999999 Z" fill="#111111"/><path d="M 63.992 41.808 C 64.496 43.152, 64.496 44.495999999999995, 63.32 46.007999999999996 L 66.68 46.007999999999996 C 65.504 44.495999999999995, 65.504 43.152, 66.008 41.808 Z" fill="#111111"/>
<path d="M 42.0 52.379999999999995 C 37.128 56.58, 39.816 59.94, 42.0 57.84 C 44.184 59.94, 46.872 56.58, 42.0 52.379999999999995 Z" fill="#111111"/><path d="M 40.992 58.008 C 41.496 59.352000000000004, 41.496 60.696, 40.32 62.208 L 43.68 62.208 C 42.504 60.696, 42.504 59.352000000000004, 43.008 58.008 Z" fill="#111111"/>
<path d="M 19.0 68.58 C 14.128 72.78, 16.816 76.14, 19.0 74.04 C 21.184 76.14, 23.872 72.78, 19.0 68.58 Z" fill="#111111"/><path d="M 17.992 74.208 C 18.496 75.552, 18.496 76.896, 17.32 78.408 L 20.68 78.408 C 19.504 76.896, 19.504 75.552, 20.008 74.208 Z" fill="#111111"/>
<path d="M 65.0 68.58 C 60.128 72.78, 62.816 76.14, 65.0 74.04 C 67.184 76.14, 69.872 72.78, 65.0 68.58 Z" fill="#111111"/><path d="M 63.992 74.208 C 64.496 75.552, 64.496 76.896, 63.32 78.408 L 66.68 78.408 C 65.504 76.896, 65.504 75.552, 66.008 74.208 Z" fill="#111111"/>
<path d="M 19.0 82.38 C 14.128 86.58, 16.816 89.94, 19.0 87.84 C 21.184 89.94, 23.872 86.58, 19.0 82.38 Z" fill="#111111"/><path d="M 17.992 88.008 C 18.496 89.352, 18.496 90.696, 17.32 92.208 L 20.68 92.208 C 19.504 90.696, 19.504 89.352, 20.008 88.008 Z" fill="#111111"/>
<path d="M 65.0 82.38 C 60.128 86.58, 62.816 89.94, 65.0 87.84 C 67.184 89.94, 69.872 86.58, 65.0 82.38 Z" fill="#111111"/><path d="M 63.992 88.008 C 64.496 89.352, 64.496 90.696, 63.32 92.208 L 66.68 92.208 C 65.504 90.696, 65.504 89.352, 66.008 88.008 Z" fill="#111111"/>
</g>
</svg>
