<svg xmlns="http://www.w3.org/2000/svg" viewBox="0 0 84 114" width="84" height="114">
  <defs>
    <radialGradient id="nebBack" cx="35%" cy="28%" r="70%">
      <stop offset="0" stop-color="#2b1cff" stop-opacity="0.35"/>
      <stop offset="0.35" stop-color="#ff2bd6" stop-opacity="0.22"/>
      <stop offset="0.75" stop-color="#00e6ff" stop-opacity="0.14"/>
      <stop offset="1" stop-color="#000000" stop-opacity="0"/>
    </radialGradient>
    <linearGradient id="backBase" x1="0" y1="0" x2="0" y2="1">
      <stop offset="0" stop-color="#0b0b12"/>
      <stop offset="1" stop-color="#05050a"/>
    </linearGradient>
    <filter id="softGlow" x="-30%" y="-30%" width="160%" height="160%">
      <feGaussianBlur stdDeviation="0.7" result="b"/>
      <feMerge>
        <feMergeNode in="b"/>
        <feMergeNode in="SourceGraphic"/>
      </feMerge>
    </filter>
  </defs>
<rect x="0" y="0" width="84" height="114" rx="6" ry="6" fill="#ffffff"/>
<g>
<circle cx="66.92" cy="28.99" r="0.30" fill="#111111" opacity="0.04"/>
<circle cx="48.03" cy="49.85" r="0.18" fill="#111111" opacity="0.05"/>
<circle cx="66.21" cy="56.41" r="0.21" fill="#111111" opacity="0.05"/>
<circle cx="67.54" cy="109.87" r="0.51" fill="#111111" opacity="0.04"/>
<circle cx="72.55" cy="12.55" r="0.29" fill="#111111" opacity="0.06"/>
<circle cx="31.35" cy="65.34" r="0.34" fill="#111111" opacity="0.10"/>
<circle cx="31.28" cy="18.60" r="0.44" fill="#111111" opacity="0.11"/>
<circle cx="29.50" cy="75.83" r="0.18" fill="#111111" opacity="0.13"/>
<circle cx="59.88" cy="9.89" r="0.23" fill="#111111" opacity="0.04"/>
<circle cx="72.24" cy="103.82" r="0.39" fill="#111111" opacity="0.08"/>
<circle cx="71.02" cy="16.56" r="0.23" fill="#111111" opacity="0.10"/>
<circle cx="48.12" cy="52.26" r="0.20" fill="#111111" opacity="0.04"/>
<circle cx="60.78" cy="99.96" r="0.21" fill="#111111" opacity="0.08"/>
<circle cx="7.12" cy="81.35" r="0.49" fill="#111111" opacity="0.05"/>
<circle cx="61.80" cy="45.21" r="0.53" fill="#111111" opacity="0.04"/>
<circle cx="26.84" cy="85.48" r="0.12" fill="#111111" opacity="0.07"/>
<circle cx="73.73" cy="24.29" r="0.52" fill="#111111" opacity="0.09"/>
<circle cx="19.98" cy="3.46" r="0.51" fill="#111111" opacity="0.06"/>
<circle cx="28.32" cy="14.83" r="0.42" fill="#111111" opacity="0.13"/>
<circle cx="73.90" cy="112.06" r="0.30" fill="#111111" opacity="0.05"/>
<circle cx="56.84" cy="109.57" r="0.42" fill="#111111" opacity="0.04"/>
<circle cx="15.48" cy="82.39" r="0.22" fill="#111111" opacity="0.12"/>
<circle cx="65.97" cy="64.34" r="0.24" fill="#111111" opacity="0.11"/>
<circle cx="60.92" cy="46.19" r="0.47" fill="#111111" opacity="0.10"/>
<circle cx="59.84" cy="66.38" r="0.28" fill="#111111" opacity="0.08"/>
<circle cx="50.90" cy="97.10" r="0.29" fill="#111111" opacity="0.05"/>
<circle cx="39.22" cy="70.53" r="0.48" fill="#111111" opacity="0.04"/>
<circle cx="80.52" cy="51.56" r="0.56" fill="#111111" opacity="0.04"/>
<circle cx="27.90" cy="13.71" r="0.56" fill="#111111" opacity="0.04"/>
<circle cx="67.04" cy="42.62" r="0.50" fill="#111111" opacity="0.11"/>
<circle cx="0.69" cy="38.21" r="0.54" fill="#111111" opacity="0.09"/>
<circle cx="4.49" cy="66.75" r="0.15" fill="#111111" opacity="0.13"/>
<circle cx="0.45" cy="78.49" r="0.25" fill="#111111" opacity="0.11"/>
<circle cx="32.29" cy="94.74" r="0.50" fill="#111111" opacity="0.04"/>
<circle cx="82.59" cy="70.76" r="0.52" fill="#111111" opacity="0.08"/>
<circle cx="29.58" cy="29.77" r="0.44" fill="#111111" opacity="0.08"/>
</g>
<rect x="1.6" y="1.6" width="80.8" height="110.8" rx="5.0" ry="5.0" fill="none" stroke="#2a2f3a" stroke-width="1.2"/>
<rect x="3.4" y="3.4" width="77.2" height="107.2" rx="4.2" ry="4.2" fill="none" stroke="#b9bec9" stroke-width="0.9" opacity="0.95"/>
<g>
<rect x="4.0" y="4.0" width="21.5" height="18.5" rx="2.2" ry="2.2" fill="#ffffff" stroke="#c8ccd6" stroke-width="0.6" opacity="0.98"/>

<g>
<rect x="6.20" y="5.90" width="6.99" height="1.22" rx="0.61" ry="0.61" fill="#c40010"/>
<rect x="6.20" y="12.03" width="6.99" height="1.22" rx="0.61" ry="0.61" fill="#c40010"/>
<rect x="6.20" y="5.90" width="1.22" height="11.78" rx="0.61" ry="0.61" fill="#c40010"/>
<rect x="11.98" y="5.90" width="1.22" height="11.78" rx="0.61" ry="0.61" fill="#c40010"/>
</g>
<path d="M 17.992 10.33 L 22.282 15.4 L 17.992 20.47 L 13.702000000000002 15.4 Z" fill="#c40010"/>
</g>
<g transform="rotate(180 68.00 97.00)">
<rect x="56.0" y="84.0" width="21.5" height="18.5" rx="2.2" ry="2.2" fill="#ffffff" stroke="#c8ccd6" stroke-width="0.6" opacity="0.98"/>

<g>
<rect x="58.20" y="85.90" width="6.99" height="1.22" rx="0.61" ry="0.61" fill="#c40010"/>
<rect x="58.20" y="92.03" width="6.99" height="1.22" rx="0.61" ry="0.61" fill="#c40010"/>
<rect x="58.20" y="85.90" width="1.22" height="11.78" rx="0.61" ry="0.61" fill="#c40010"/>
<rect x="63.98" y="85.90" width="1.22" height="11.78" rx="0.61" ry="0.61" fill="#c40010"/>
</g>
<path d="M 69.99199999999999 90.33000000000001 L 74.282 95.4 L 69.99199999999999 100.47 L 65.70199999999998 95.4 Z" fill="#c40010"/>
</g>
<g>
<ellipse cx="42.00" cy="57.00" rx="18.00" ry="6.60" fill="none" stroke="#9aa0ab" stroke-width="0.7" opacity="0.55"/>
<ellipse cx="42.00" cy="57.00" rx="6.60" ry="18.00" fill="none" stroke="#9aa0ab" stroke-width="0.7" opacity="0.35"/>
<path d="M 42.0 43.739999999999995 L 53.22 57.0 L 42.0 70.26 L 30.779999999999998 57.0 Z" fill="#c40010"/>
</g>
</svg>
