<svg xmlns="http://www.w3.org/2000/svg" viewBox="0 0 84 114" width="84" height="114">
  <defs>
    <radialGradient id="nebBack" cx="35%" cy="28%" r="70%">
      <stop offset="0" stop-color="#2b1cff" stop-opacity="0.35"/>
      <stop offset="0.35" stop-color="#ff2bd6" stop-opacity="0.22"/>
      <stop offset="0.75" stop-color="#00e6ff" stop-opacity="0.14"/>
      <stop offset="1" stop-color="#000000" stop-opacity="0"/>
    </radialGradient>
    <linearGradient id="backBase" x1="0" y1="0" x2="0" y2="1">
      <stop offset="0" stop-color="#0b0b12"/>
      <stop offset="1" stop-color="#05050a"/>
    </linearGradient>
    <filter id="softGlow" x="-30%" y="-30%" width="160%" height="160%">
      <feGaussianBlur stdDeviation="0.7" result="b"/>
      <feMerge>
        <feMergeNode in="b"/>
        <feMergeNode in="SourceGraphic"/>
      </feMerge>
    </filter>
  </defs>
<rect x="0" y="0" width="84" height="114" rx="6" ry="6" fill="#ffffff"/>
<g>
<circle cx="40.21" cy="72.74" r="0.34" fill="#111111" opacity="0.07"/>
<circle cx="26.08" cy="35.15" r="0.35" fill="#111111" opacity="0.09"/>
<circle cx="60.68" cy="40.82" r="0.26" fill="#111111" opacity="0.07"/>
<circle cx="16.29" cy="63.15" r="0.22" fill="#111111" opacity="0.08"/>
<circle cx="17.58" cy="58.64" r="0.20" fill="#111111" opacity="0.10"/>
<circle cx="60.58" cy="9.49" r="0.39" fill="#111111" opacity="0.13"/>
<circle cx="61.61" cy="51.27" r="0.21" fill="#111111" opacity="0.07"/>
<circle cx="76.64" cy="21.87" r="0.28" fill="#111111" opacity="0.09"/>
<circle cx="39.08" cy="67.65" r="0.50" fill="#111111" opacity="0.10"/>
<circle cx="55.66" cy="54.09" r="0.51" fill="#111111" opacity="0.06"/>
<circle cx="43.96" cy="32.82" r="0.54" fill="#111111" opacity="0.04"/>
<circle cx="67.41" cy="42.51" r="0.18" fill="#111111" opacity="0.08"/>
<circle cx="64.36" cy="112.77" r="0.26" fill="#111111" opacity="0.13"/>
<circle cx="54.55" cy="98.29" r="0.52" fill="#111111" opacity="0.07"/>
<circle cx="55.94" cy="54.72" r="0.36" fill="#111111" opacity="0.10"/>
<circle cx="13.53" cy="5.03" r="0.36" fill="#111111" opacity="0.11"/>
<circle cx="49.49" cy="46.45" r="0.13" fill="#111111" opacity="0.08"/>
<circle cx="36.13" cy="0.13" r="0.53" fill="#111111" opacity="0.11"/>
<circle cx="23.84" cy="93.11" r="0.30" fill="#111111" opacity="0.12"/>
<circle cx="65.81" cy="10.21" r="0.37" fill="#111111" opacity="0.05"/>
<circle cx="68.42" cy="88.54" r="0.18" fill="#111111" opacity="0.04"/>
<circle cx="77.98" cy="16.77" r="0.56" fill="#111111" opacity="0.10"/>
<circle cx="5.03" cy="56.76" r="0.17" fill="#111111" opacity="0.03"/>
<circle cx="59.08" cy="40.07" r="0.24" fill="#111111" opacity="0.07"/>
<circle cx="21.37" cy="113.76" r="0.53" fill="#111111" opacity="0.12"/>
<circle cx="37.13" cy="18.07" r="0.28" fill="#111111" opacity="0.12"/>
<circle cx="34.11" cy="21.58" r="0.17" fill="#111111" opacity="0.09"/>
<circle cx="42.22" cy="15.77" r="0.25" fill="#111111" opacity="0.12"/>
<circle cx="6.60" cy="35.83" r="0.31" fill="#111111" opacity="0.06"/>
<circle cx="36.48" cy="43.26" r="0.17" fill="#111111" opacity="0.12"/>
<circle cx="14.71" cy="68.16" r="0.16" fill="#111111" opacity="0.05"/>
<circle cx="11.83" cy="76.11" r="0.50" fill="#111111" opacity="0.12"/>
<circle cx="2.80" cy="45.89" r="0.35" fill="#111111" opacity="0.12"/>
<circle cx="16.69" cy="50.28" r="0.53" fill="#111111" opacity="0.08"/>
<circle cx="66.31" cy="86.59" r="0.21" fill="#111111" opacity="0.07"/>
<circle cx="39.81" cy="110.42" r="0.24" fill="#111111" opacity="0.07"/>
</g>
<rect x="1.6" y="1.6" width="80.8" height="110.8" rx="5.0" ry="5.0" fill="none" stroke="#2a2f3a" stroke-width="1.2"/>
<rect x="3.4" y="3.4" width="77.2" height="107.2" rx="4.2" ry="4.2" fill="none" stroke="#b9bec9" stroke-width="0.9" opacity="0.95"/>
<g>
<rect x="4.0" y="4.0" width="21.5" height="18.5" rx="2.2" ry="2.2" fill="#ffffff" stroke="#c8ccd6" stroke-width="0.6" opacity="0.98"/>

<g>
<rect x="6.20" y="5.90" width="6.99" height="1.22" rx="0.61" ry="0.61" fill="#c40010"/>
<rect x="6.20" y="12.03" width="6.99" height="1.22" rx="0.61" ry="0.61" fill="#c40010"/>
<rect x="6.20" y="5.90" width="1.22" height="11.78" rx="0.61" ry="0.61" fill="#c40010"/>
<rect x="11.98" y="5.90" width="1.22" height="11.78" rx="0.61" ry="0.61" fill="#c40010"/>
</g>
<path d="M 17.992 18.832 C 13.312000000000001 16.18, 14.482000000000001 11.11, 17.992 13.996 C 21.502000000000002 11.11, 22.672 16.18, 17.992 18.832 Z" fill="#c40010"/>
</g>
<g transform="rotate(180 68.00 97.00)">
<rect x="56.0" y="84.0" width="21.5" height="18.5" rx="2.2" ry="2.2" fill="#ffffff" stroke="#c8ccd6" stroke-width="0.6" opacity="0.98"/>

<g>
<rect x="58.20" y="85.90" width="6.99" height="1.22" rx="0.61" ry="0.61" fill="#c40010"/>
<rect x="58.20" y="92.03" width="6.99" height="1.22" rx="0.61" ry="0.61" fill="#c40010"/>
<rect x="58.20" y="85.90" width="1.22" height="11.78" rx="0.61" ry="0.61" fill="#c40010"/>
<rect x="63.98" y="85.90" width="1.22" height="11.78" rx="0.61" ry="0.61" fill="#c40010"/>
</g>
<path d="M 69.99199999999999 98.83200000000001 C 65.31199999999998 96.18, 66.48199999999999 91.11, 69.99199999999999 93.99600000000001 C 73.502 91.11, 74.672 96.18, 69.99199999999999 98.83200000000001 Z" fill="#c40010"/>
</g>
<g>
<ellipse cx="42.00" cy="57.00" rx="18.00" ry="6.60" fill="none" stroke="#9aa0ab" stroke-width="0.7" opacity="0.55"/>
<ellipse cx="42.00" cy="57.00" rx="6.60" ry="18.00" fill="none" stroke="#9aa0ab" stroke-width="0.7" opacity="0.35"/>
<path d="M 42.0 65.976 C 29.759999999999998 59.04, 32.82 45.78, 42.0 53.328 C 51.18 45.78, 54.24 59.04, 42.0 65.976 Z" fill="#c40010"/>
</g>
</svg>
