<svg xmlns="http://www.w3.org/2000/svg" viewBox="0 0 84 114" width="84" height="114">
  <defs>
    <radialGradient id="nebBack" cx="35%" cy="28%" r="70%">
      <stop offset="0" stop-color="#2b1cff" stop-opacity="0.35"/>
      <stop offset="0.35" stop-color="#ff2bd6" stop-opacity="0.22"/>
      <stop offset="0.75" stop-color="#00e6ff" stop-opacity="0.14"/>
      <stop offset="1" stop-color="#000000" stop-opacity="0"/>
    </radialGradient>
    <linearGradient id="backBase" x1="0" y1="0" x2="0" y2="1">
      <stop offset="0" stop-color="#0b0b12"/>
      <stop offset="1" stop-color="#05050a"/>
    </linearGradient>
    <filter id="softGlow" x="-30%" y="-30%" width="160%" height="160%">
      <feGaussianBlur stdDeviation="0.7" result="b"/>
      <feMerge>
        <feMergeNode in="b"/>
        <feMergeNode in="SourceGraphic"/>
      </feMerge>
    </filter>
  </defs>
<rect x="0" y="0" width="84" height="114" rx="6" ry="6" fill="#ffffff"/>
<g>
<circle cx="43.23" cy="62.90" r="0.20" fill="#111111" opacity="0.04"/>
<circle cx="5.88" cy="85.25" r="0.29" fill="#111111" opacity="0.11"/>
<circle cx="16.75" cy="75.56" r="0.18" fill="#111111" opacity="0.13"/>
<circle cx="47.51" cy="58.05" r="0.18" fill="#111111" opacity="0.10"/>
<circle cx="79.02" cy="89.59" r="0.45" fill="#111111" opacity="0.07"/>
<circle cx="73.02" cy="65.54" r="0.20" fill="#111111" opacity="0.07"/>
<circle cx="6.41" cy="95.01" r="0.46" fill="#111111" opacity="0.08"/>
<circle cx="69.51" cy="48.94" r="0.16" fill="#111111" opacity="0.04"/>
<circle cx="82.24" cy="24.40" r="0.35" fill="#111111" opacity="0.04"/>
<circle cx="24.15" cy="111.91" r="0.19" fill="#111111" opacity="0.12"/>
<circle cx="61.63" cy="9.70" r="0.44" fill="#111111" opacity="0.12"/>
<circle cx="1.61" cy="40.06" r="0.36" fill="#111111" opacity="0.09"/>
<circle cx="36.22" cy="55.40" r="0.45" fill="#111111" opacity="0.10"/>
<circle cx="59.61" cy="29.82" r="0.48" fill="#111111" opacity="0.11"/>
<circle cx="47.12" cy="65.54" r="0.49" fill="#111111" opacity="0.06"/>
<circle cx="42.76" cy="84.99" r="0.25" fill="#111111" opacity="0.06"/>
<circle cx="39.33" cy="42.46" r="0.35" fill="#111111" opacity="0.04"/>
<circle cx="66.88" cy="69.91" r="0.40" fill="#111111" opacity="0.11"/>
<circle cx="46.84" cy="109.70" r="0.44" fill="#111111" opacity="0.10"/>
<circle cx="43.29" cy="41.44" r="0.46" fill="#111111" opacity="0.09"/>
<circle cx="3.57" cy="7.79" r="0.22" fill="#111111" opacity="0.07"/>
<circle cx="14.53" cy="50.07" r="0.45" fill="#111111" opacity="0.06"/>
<circle cx="27.18" cy="8.05" r="0.15" fill="#111111" opacity="0.08"/>
<circle cx="59.68" cy="79.17" r="0.32" fill="#111111" opacity="0.07"/>
<circle cx="10.00" cy="54.36" r="0.19" fill="#111111" opacity="0.06"/>
<circle cx="13.37" cy="104.34" r="0.22" fill="#111111" opacity="0.06"/>
<circle cx="59.59" cy="57.48" r="0.27" fill="#111111" opacity="0.05"/>
<circle cx="19.74" cy="46.85" r="0.23" fill="#111111" opacity="0.10"/>
<circle cx="36.58" cy="73.86" r="0.23" fill="#111111" opacity="0.10"/>
<circle cx="27.53" cy="59.17" r="0.12" fill="#111111" opacity="0.10"/>
<circle cx="41.33" cy="76.14" r="0.19" fill="#111111" opacity="0.05"/>
<circle cx="43.78" cy="66.62" r="0.30" fill="#111111" opacity="0.04"/>
<circle cx="22.20" cy="93.79" r="0.43" fill="#111111" opacity="0.06"/>
<circle cx="13.48" cy="17.29" r="0.21" fill="#111111" opacity="0.08"/>
<circle cx="54.55" cy="43.79" r="0.31" fill="#111111" opacity="0.07"/>
<circle cx="5.91" cy="101.77" r="0.50" fill="#111111" opacity="0.07"/>
</g>
<rect x="1.6" y="1.6" width="80.8" height="110.8" rx="5.0" ry="5.0" fill="none" stroke="#2a2f3a" stroke-width="1.2"/>
<rect x="3.4" y="3.4" width="77.2" height="107.2" rx="4.2" ry="4.2" fill="none" stroke="#b9bec9" stroke-width="0.9" opacity="0.95"/>
<g>
<rect x="4.0" y="4.0" width="21.5" height="18.5" rx="2.2" ry="2.2" fill="#ffffff" stroke="#c8ccd6" stroke-width="0.6" opacity="0.98"/>

<g>
<rect x="6.20" y="5.90" width="6.99" height="1.22" rx="0.61" ry="0.61" fill="#111111"/>
<rect x="6.20" y="12.03" width="6.99" height="1.22" rx="0.61" ry="0.61" fill="#111111"/>
<rect x="6.20" y="5.90" width="1.22" height="11.78" rx="0.61" ry="0.61" fill="#111111"/>
<rect x="11.98" y="5.90" width="1.22" height="11.78" rx="0.61" ry="0.61" fill="#111111"/>
</g>
<path d="M 17.992 11.11 C 13.468 15.01, 15.964 18.13, 17.992 16.18 C 20.02 18.13, 22.516000000000002 15.01, 17.992 11.11 Z" fill="#111111"/><path d="M 17.056 16.336 C 17.524 17.584, 17.524 18.832, 16.432000000000002 20.236 L 19.552 20.236 C 18.46 18.832, 18.46 17.584, 18.928 16.336 Z" fill="#111111"/>
</g>
<g transform="rotate(180 68.00 97.00)">
<rect x="56.0" y="84.0" width="21.5" height="18.5" rx="2.2" ry="2.2" fill="#ffffff" stroke="#c8ccd6" stroke-width="0.6" opacity="0.98"/>

<g>
<rect x="58.20" y="85.90" width="6.99" height="1.22" rx="0.61" ry="0.61" fill="#111111"/>
<rect x="58.20" y="92.03" width="6.99" height="1.22" rx="0.61" ry="0.61" fill="#111111"/>
<rect x="58.20" y="85.90" width="1.22" height="11.78" rx="0.61" ry="0.61" fill="#111111"/>
<rect x="63.98" y="85.90" width="1.22" height="11.78" rx="0.61" ry="0.61" fill="#111111"/>
</g>
<path d="M 69.99199999999999 91.11 C 65.46799999999999 95.01, 67.96399999999998 98.13000000000001, 69.99199999999999 96.18 C 72.02 98.13000000000001, 74.51599999999999 95.01, 69.99199999999999 91.11 Z" fill="#111111"/><path d="M 69.05599999999998 96.33600000000001 C 69.52399999999999 97.584, 69.52399999999999 98.83200000000001, 68.43199999999999 100.236 L 71.55199999999999 100.236 C 70.46 98.83200000000001, 70.46 97.584, 70.928 96.33600000000001 Z" fill="#111111"/>
</g>
<g>
<ellipse cx="42.00" cy="57.00" rx="18.00" ry="6.60" fill="none" stroke="#9aa0ab" stroke-width="0.7" opacity="0.55"/>
<ellipse cx="42.00" cy="57.00" rx="6.60" ry="18.00" fill="none" stroke="#9aa0ab" stroke-width="0.7" opacity="0.35"/>
<path d="M 42.0 45.78 C 30.168 55.98, 36.696 64.14, 42.0 59.04 C 47.304 64.14, 53.832 55.98, 42.0 45.78 Z" fill="#111111"/><path d="M 39.552 59.448 C 40.776 62.712, 40.776 65.976, 37.92 69.648 L 46.08 69.648 C 43.224 65.976, 43.224 62.712, 44.448 59.448 Z" fill="#111111"/>
</g>
</svg>
