<svg xmlns="http://www.w3.org/2000/svg" viewBox="0 0 84 114" width="84" height="114">
  <defs>
    <radialGradient id="nebBack" cx="35%" cy="28%" r="70%">
      <stop offset="0" stop-color="#2b1cff" stop-opacity="0.35"/>
      <stop offset="0.35" stop-color="#ff2bd6" stop-opacity="0.22"/>
      <stop offset="0.75" stop-color="#00e6ff" stop-opacity="0.14"/>
      <stop offset="1" stop-color="#000000" stop-opacity="0"/>
    </radialGradient>
    <linearGradient id="backBase" x1="0" y1="0" x2="0" y2="1">
      <stop offset="0" stop-color="#0b0b12"/>
      <stop offset="1" stop-color="#05050a"/>
    </linearGradient>
    <filter id="softGlow" x="-30%" y="-30%" width="160%" height="160%">
      <feGaussianBlur stdDeviation="0.7" result="b"/>
      <feMerge>
        <feMergeNode in="b"/>
        <feMergeNode in="SourceGraphic"/>
      </feMerge>
    </filter>
  </defs>
<rect x="0" y="0" width="84" height="114" rx="6" ry="6" fill="#ffffff"/>
<g>
<circle cx="15.58" cy="84.83" r="0.36" fill="#111111" opacity="0.09"/>
<circle cx="69.88" cy="10.76" r="0.22" fill="#111111" opacity="0.06"/>
<circle cx="3.83" cy="108.03" r="0.46" fill="#111111" opacity="0.07"/>
<circle cx="47.29" cy="8.48" r="0.48" fill="#111111" opacity="0.09"/>
<circle cx="40.26" cy="63.18" r="0.56" fill="#111111" opacity="0.10"/>
<circle cx="48.79" cy="10.22" r="0.14" fill="#111111" opacity="0.04"/>
<circle cx="57.15" cy="61.09" r="0.20" fill="#111111" opacity="0.11"/>
<circle cx="73.36" cy="49.06" r="0.20" fill="#111111" opacity="0.10"/>
<circle cx="10.44" cy="37.58" r="0.29" fill="#111111" opacity="0.13"/>
<circle cx="14.18" cy="44.46" r="0.53" fill="#111111" opacity="0.05"/>
<circle cx="61.95" cy="86.54" r="0.45" fill="#111111" opacity="0.13"/>
<circle cx="22.49" cy="56.10" r="0.39" fill="#111111" opacity="0.04"/>
<circle cx="29.73" cy="93.04" r="0.44" fill="#111111" opacity="0.12"/>
<circle cx="42.95" cy="69.79" r="0.37" fill="#111111" opacity="0.08"/>
<circle cx="50.31" cy="51.46" r="0.26" fill="#111111" opacity="0.11"/>
<circle cx="61.86" cy="68.61" r="0.57" fill="#111111" opacity="0.06"/>
<circle cx="37.29" cy="53.52" r="0.32" fill="#111111" opacity="0.11"/>
<circle cx="72.60" cy="102.38" r="0.38" fill="#111111" opacity="0.11"/>
<circle cx="1.53" cy="109.18" r="0.13" fill="#111111" opacity="0.08"/>
<circle cx="27.09" cy="7.73" r="0.48" fill="#111111" opacity="0.08"/>
<circle cx="78.40" cy="16.24" r="0.45" fill="#111111" opacity="0.09"/>
<circle cx="39.12" cy="72.85" r="0.21" fill="#111111" opacity="0.12"/>
<circle cx="28.25" cy="73.76" r="0.30" fill="#111111" opacity="0.06"/>
<circle cx="64.28" cy="18.34" r="0.53" fill="#111111" opacity="0.07"/>
<circle cx="2.62" cy="47.04" r="0.25" fill="#111111" opacity="0.09"/>
<circle cx="81.23" cy="78.75" r="0.56" fill="#111111" opacity="0.09"/>
<circle cx="68.83" cy="20.53" r="0.27" fill="#111111" opacity="0.11"/>
<circle cx="29.90" cy="18.88" r="0.25" fill="#111111" opacity="0.05"/>
<circle cx="59.94" cy="40.27" r="0.50" fill="#111111" opacity="0.06"/>
<circle cx="23.21" cy="82.77" r="0.34" fill="#111111" opacity="0.10"/>
<circle cx="48.00" cy="91.49" r="0.20" fill="#111111" opacity="0.10"/>
<circle cx="18.46" cy="30.94" r="0.46" fill="#111111" opacity="0.03"/>
<circle cx="83.52" cy="24.42" r="0.15" fill="#111111" opacity="0.09"/>
<circle cx="25.67" cy="84.63" r="0.49" fill="#111111" opacity="0.09"/>
<circle cx="8.34" cy="97.91" r="0.26" fill="#111111" opacity="0.04"/>
<circle cx="15.38" cy="68.28" r="0.31" fill="#111111" opacity="0.11"/>
</g>
<rect x="1.6" y="1.6" width="80.8" height="110.8" rx="5.0" ry="5.0" fill="none" stroke="#2a2f3a" stroke-width="1.2"/>
<rect x="3.4" y="3.4" width="77.2" height="107.2" rx="4.2" ry="4.2" fill="none" stroke="#b9bec9" stroke-width="0.9" opacity="0.95"/>
<g>
<rect x="4.0" y="4.0" width="21.5" height="18.5" rx="2.2" ry="2.2" fill="#ffffff" stroke="#c8ccd6" stroke-width="0.6" opacity="0.98"/>

<g>
<rect x="6.20" y="5.90" width="6.99" height="1.22" rx="0.61" ry="0.61" fill="#c40010"/>
<rect x="11.98" y="5.90" width="1.22" height="10.01" rx="0.61" ry="0.61" fill="#c40010"/>
<rect x="7.46" y="16.46" width="4.68" height="1.22" rx="0.61" ry="0.61" fill="#c40010"/>
<rect x="6.20" y="13.20" width="1.22" height="3.89" rx="0.61" ry="0.61" fill="#c40010"/>
</g>
<path d="M 17.992 10.33 L 22.282 15.4 L 17.992 20.47 L 13.702000000000002 15.4 Z" fill="#c40010"/>
</g>
<g transform="rotate(180 68.00 97.00)">
<rect x="56.0" y="84.0" width="21.5" height="18.5" rx="2.2" ry="2.2" fill="#ffffff" stroke="#c8ccd6" stroke-width="0.6" opacity="0.98"/>

<g>
<rect x="58.20" y="85.90" width="6.99" height="1.22" rx="0.61" ry="0.61" fill="#c40010"/>
<rect x="63.98" y="85.90" width="1.22" height="10.01" rx="0.61" ry="0.61" fill="#c40010"/>
<rect x="59.46" y="96.46" width="4.68" height="1.22" rx="0.61" ry="0.61" fill="#c40010"/>
<rect x="58.20" y="93.20" width="1.22" height="3.89" rx="0.61" ry="0.61" fill="#c40010"/>
</g>
<path d="M 69.99199999999999 90.33000000000001 L 74.282 95.4 L 69.99199999999999 100.47 L 65.70199999999998 95.4 Z" fill="#c40010"/>
</g>
<g>
<ellipse cx="42.00" cy="57.00" rx="13.20" ry="4.84" fill="none" stroke="#9aa0ab" stroke-width="0.7" opacity="0.55"/>
<ellipse cx="42.00" cy="57.00" rx="4.84" ry="13.20" fill="none" stroke="#9aa0ab" stroke-width="0.7" opacity="0.35"/>
<path d="M 42.0 47.275999999999996 L 50.228 57.0 L 42.0 66.724 L 33.772 57.0 Z" fill="#c40010"/>
</g>
</svg>
