<svg xmlns="http://www.w3.org/2000/svg" viewBox="0 0 84 114" width="84" height="114">
  <defs>
    <radialGradient id="nebBack" cx="35%" cy="28%" r="70%">
      <stop offset="0" stop-color="#2b1cff" stop-opacity="0.35"/>
      <stop offset="0.35" stop-color="#ff2bd6" stop-opacity="0.22"/>
      <stop offset="0.75" stop-color="#00e6ff" stop-opacity="0.14"/>
      <stop offset="1" stop-color="#000000" stop-opacity="0"/>
    </radialGradient>
    <linearGradient id="backBase" x1="0" y1="0" x2="0" y2="1">
      <stop offset="0" stop-color="#0b0b12"/>
      <stop offset="1" stop-color="#05050a"/>
    </linearGradient>
    <filter id="softGlow" x="-30%" y="-30%" width="160%" height="160%">
      <feGaussianBlur stdDeviation="0.7" result="b"/>
      <feMerge>
        <feMergeNode in="b"/>
        <feMergeNode in="SourceGraphic"/>
      </feMerge>
    </filter>
  </defs>
<rect x="0" y="0" width="84" height="114" rx="6" ry="6" fill="#ffffff"/>
<g>
<circle cx="32.75" cy="36.06" r="0.52" fill="#111111" opacity="0.04"/>
<circle cx="55.72" cy="96.77" r="0.16" fill="#111111" opacity="0.03"/>
<circle cx="8.68" cy="86.26" r="0.57" fill="#111111" opacity="0.09"/>
<circle cx="36.46" cy="42.80" r="0.38" fill="#111111" opacity="0.05"/>
<circle cx="51.46" cy="92.15" r="0.42" fill="#111111" opacity="0.05"/>
<circle cx="50.97" cy="51.92" r="0.17" fill="#111111" opacity="0.06"/>
<circle cx="19.34" cy="5.75" r="0.15" fill="#111111" opacity="0.03"/>
<circle cx="16.58" cy="104.51" r="0.54" fill="#111111" opacity="0.10"/>
<circle cx="40.07" cy="41.69" r="0.22" fill="#111111" opacity="0.04"/>
<circle cx="64.96" cy="46.06" r="0.53" fill="#111111" opacity="0.12"/>
<circle cx="35.35" cy="54.53" r="0.45" fill="#111111" opacity="0.05"/>
<circle cx="16.39" cy="10.72" r="0.32" fill="#111111" opacity="0.03"/>
<circle cx="81.03" cy="113.16" r="0.29" fill="#111111" opacity="0.09"/>
<circle cx="77.40" cy="85.58" r="0.22" fill="#111111" opacity="0.09"/>
<circle cx="4.83" cy="79.39" r="0.14" fill="#111111" opacity="0.03"/>
<circle cx="23.83" cy="42.06" r="0.19" fill="#111111" opacity="0.06"/>
<circle cx="26.78" cy="108.70" r="0.48" fill="#111111" opacity="0.13"/>
<circle cx="24.86" cy="69.41" r="0.35" fill="#111111" opacity="0.08"/>
<circle cx="32.96" cy="1.11" r="0.46" fill="#111111" opacity="0.11"/>
<circle cx="49.97" cy="73.55" r="0.47" fill="#111111" opacity="0.03"/>
<circle cx="44.87" cy="69.31" r="0.32" fill="#111111" opacity="0.07"/>
<circle cx="54.62" cy="104.98" r="0.22" fill="#111111" opacity="0.03"/>
<circle cx="67.81" cy="53.30" r="0.19" fill="#111111" opacity="0.07"/>
<circle cx="68.39" cy="3.14" r="0.13" fill="#111111" opacity="0.03"/>
<circle cx="27.84" cy="33.49" r="0.33" fill="#111111" opacity="0.13"/>
<circle cx="3.50" cy="62.38" r="0.55" fill="#111111" opacity="0.07"/>
<circle cx="25.08" cy="91.50" r="0.22" fill="#111111" opacity="0.06"/>
<circle cx="31.97" cy="45.16" r="0.17" fill="#111111" opacity="0.03"/>
<circle cx="11.37" cy="69.93" r="0.14" fill="#111111" opacity="0.10"/>
<circle cx="36.94" cy="62.56" r="0.18" fill="#111111" opacity="0.13"/>
<circle cx="79.61" cy="72.05" r="0.41" fill="#111111" opacity="0.10"/>
<circle cx="20.45" cy="64.79" r="0.27" fill="#111111" opacity="0.05"/>
<circle cx="7.29" cy="79.08" r="0.15" fill="#111111" opacity="0.06"/>
<circle cx="15.69" cy="96.04" r="0.29" fill="#111111" opacity="0.10"/>
<circle cx="41.18" cy="13.78" r="0.27" fill="#111111" opacity="0.04"/>
<circle cx="12.34" cy="76.30" r="0.43" fill="#111111" opacity="0.09"/>
</g>
<rect x="1.6" y="1.6" width="80.8" height="110.8" rx="5.0" ry="5.0" fill="none" stroke="#2a2f3a" stroke-width="1.2"/>
<rect x="3.4" y="3.4" width="77.2" height="107.2" rx="4.2" ry="4.2" fill="none" stroke="#b9bec9" stroke-width="0.9" opacity="0.95"/>
<g>
<rect x="4.0" y="4.0" width="21.5" height="18.5" rx="2.2" ry="2.2" fill="#ffffff" stroke="#c8ccd6" stroke-width="0.6" opacity="0.98"/>

<g>
<rect x="6.20" y="5.90" width="6.99" height="1.22" rx="0.61" ry="0.61" fill="#c40010"/>
<rect x="11.98" y="5.90" width="1.22" height="10.01" rx="0.61" ry="0.61" fill="#c40010"/>
<rect x="7.46" y="16.46" width="4.68" height="1.22" rx="0.61" ry="0.61" fill="#c40010"/>
<rect x="6.20" y="13.20" width="1.22" height="3.89" rx="0.61" ry="0.61" fill="#c40010"/>
</g>
<path d="M 17.992 18.832 C 13.312000000000001 16.18, 14.482000000000001 11.11, 17.992 13.996 C 21.502000000000002 11.11, 22.672 16.18, 17.992 18.832 Z" fill="#c40010"/>
</g>
<g transform="rotate(180 68.00 97.00)">
<rect x="56.0" y="84.0" width="21.5" height="18.5" rx="2.2" ry="2.2" fill="#ffffff" stroke="#c8ccd6" stroke-width="0.6" opacity="0.98"/>

<g>
<rect x="58.20" y="85.90" width="6.99" height="1.22" rx="0.61" ry="0.61" fill="#c40010"/>
<rect x="63.98" y="85.90" width="1.22" height="10.01" rx="0.61" ry="0.61" fill="#c40010"/>
<rect x="59.46" y="96.46" width="4.68" height="1.22" rx="0.61" ry="0.61" fill="#c40010"/>
<rect x="58.20" y="93.20" width="1.22" height="3.89" rx="0.61" ry="0.61" fill="#c40010"/>
</g>
<path d="M 69.99199999999999 98.83200000000001 C 65.31199999999998 96.18, 66.48199999999999 91.11, 69.99199999999999 93.99600000000001 C 73.502 91.11, 74.672 96.18, 69.99199999999999 98.83200000000001 Z" fill="#c40010"/>
</g>
<g>
<ellipse cx="42.00" cy="57.00" rx="13.20" ry="4.84" fill="none" stroke="#9aa0ab" stroke-width="0.7" opacity="0.55"/>
<ellipse cx="42.00" cy="57.00" rx="4.84" ry="13.20" fill="none" stroke="#9aa0ab" stroke-width="0.7" opacity="0.35"/>
<path d="M 42.0 63.5824 C 33.024 58.496, 35.268 48.772, 42.0 54.3072 C 48.732 48.772, 50.976 58.496, 42.0 63.5824 Z" fill="#c40010"/>
</g>
</svg>
