<svg xmlns="http://www.w3.org/2000/svg" viewBox="0 0 84 114" width="84" height="114">
  <defs>
    <radialGradient id="nebBack" cx="35%" cy="28%" r="70%">
      <stop offset="0" stop-color="#2b1cff" stop-opacity="0.35"/>
      <stop offset="0.35" stop-color="#ff2bd6" stop-opacity="0.22"/>
      <stop offset="0.75" stop-color="#00e6ff" stop-opacity="0.14"/>
      <stop offset="1" stop-color="#000000" stop-opacity="0"/>
    </radialGradient>
    <linearGradient id="backBase" x1="0" y1="0" x2="0" y2="1">
      <stop offset="0" stop-color="#0b0b12"/>
      <stop offset="1" stop-color="#05050a"/>
    </linearGradient>
    <filter id="softGlow" x="-30%" y="-30%" width="160%" height="160%">
      <feGaussianBlur stdDeviation="0.7" result="b"/>
      <feMerge>
        <feMergeNode in="b"/>
        <feMergeNode in="SourceGraphic"/>
      </feMerge>
    </filter>
  </defs>
<rect x="0" y="0" width="84" height="114" rx="6" ry="6" fill="#ffffff"/>
<g>
<circle cx="50.37" cy="51.63" r="0.26" fill="#111111" opacity="0.12"/>
<circle cx="46.16" cy="28.35" r="0.19" fill="#111111" opacity="0.06"/>
<circle cx="40.45" cy="109.58" r="0.13" fill="#111111" opacity="0.11"/>
<circle cx="79.88" cy="27.13" r="0.24" fill="#111111" opacity="0.05"/>
<circle cx="17.78" cy="65.22" r="0.35" fill="#111111" opacity="0.11"/>
<circle cx="74.41" cy="52.17" r="0.42" fill="#111111" opacity="0.06"/>
<circle cx="40.75" cy="18.98" r="0.30" fill="#111111" opacity="0.10"/>
<circle cx="56.26" cy="44.73" r="0.19" fill="#111111" opacity="0.12"/>
<circle cx="6.77" cy="17.41" r="0.18" fill="#111111" opacity="0.09"/>
<circle cx="4.66" cy="40.72" r="0.33" fill="#111111" opacity="0.12"/>
<circle cx="6.44" cy="66.26" r="0.35" fill="#111111" opacity="0.04"/>
<circle cx="33.09" cy="41.15" r="0.14" fill="#111111" opacity="0.13"/>
<circle cx="2.19" cy="54.80" r="0.25" fill="#111111" opacity="0.05"/>
<circle cx="71.09" cy="18.55" r="0.45" fill="#111111" opacity="0.09"/>
<circle cx="38.03" cy="66.94" r="0.27" fill="#111111" opacity="0.05"/>
<circle cx="12.25" cy="24.03" r="0.16" fill="#111111" opacity="0.05"/>
<circle cx="13.09" cy="28.93" r="0.31" fill="#111111" opacity="0.07"/>
<circle cx="66.31" cy="105.50" r="0.14" fill="#111111" opacity="0.11"/>
<circle cx="32.81" cy="26.87" r="0.28" fill="#111111" opacity="0.08"/>
<circle cx="75.08" cy="17.01" r="0.14" fill="#111111" opacity="0.12"/>
<circle cx="39.00" cy="23.16" r="0.28" fill="#111111" opacity="0.08"/>
<circle cx="4.85" cy="97.19" r="0.55" fill="#111111" opacity="0.11"/>
<circle cx="53.86" cy="38.49" r="0.51" fill="#111111" opacity="0.09"/>
<circle cx="5.30" cy="88.48" r="0.20" fill="#111111" opacity="0.11"/>
<circle cx="6.67" cy="87.61" r="0.28" fill="#111111" opacity="0.09"/>
<circle cx="23.70" cy="41.40" r="0.34" fill="#111111" opacity="0.05"/>
<circle cx="53.68" cy="5.67" r="0.35" fill="#111111" opacity="0.11"/>
<circle cx="40.87" cy="19.30" r="0.43" fill="#111111" opacity="0.11"/>
<circle cx="4.91" cy="100.48" r="0.40" fill="#111111" opacity="0.10"/>
<circle cx="44.33" cy="48.64" r="0.21" fill="#111111" opacity="0.08"/>
<circle cx="73.89" cy="26.36" r="0.36" fill="#111111" opacity="0.08"/>
<circle cx="8.98" cy="78.47" r="0.35" fill="#111111" opacity="0.11"/>
<circle cx="60.42" cy="32.08" r="0.27" fill="#111111" opacity="0.04"/>
<circle cx="46.78" cy="61.12" r="0.46" fill="#111111" opacity="0.06"/>
<circle cx="74.92" cy="88.15" r="0.35" fill="#111111" opacity="0.07"/>
<circle cx="48.15" cy="55.92" r="0.21" fill="#111111" opacity="0.06"/>
</g>
<rect x="1.6" y="1.6" width="80.8" height="110.8" rx="5.0" ry="5.0" fill="none" stroke="#2a2f3a" stroke-width="1.2"/>
<rect x="3.4" y="3.4" width="77.2" height="107.2" rx="4.2" ry="4.2" fill="none" stroke="#b9bec9" stroke-width="0.9" opacity="0.95"/>
<g>
<rect x="4.0" y="4.0" width="21.5" height="18.5" rx="2.2" ry="2.2" fill="#ffffff" stroke="#c8ccd6" stroke-width="0.6" opacity="0.98"/>

<g>
<rect x="6.20" y="5.90" width="1.22" height="11.78" rx="0.61" ry="0.61" fill="#111111"/>
<polygon points="8.47,12.44 7.42,11.61 12.25,5.49 13.30,6.31" fill="#111111"/>
<polygon points="7.44,12.46 8.46,11.59 13.28,17.25 12.26,18.11" fill="#111111"/>
</g>
<circle cx="17.992" cy="13.450000000000001" r="1.716" fill="#111111"/>
<circle cx="16.042" cy="15.556000000000001" r="1.716" fill="#111111"/>
<circle cx="19.942" cy="15.556000000000001" r="1.716" fill="#111111"/>
<path d="M 17.992 15.790000000000001 C 18.382 17.116, 18.382 19.144, 17.992 20.236 C 17.602 19.144, 17.602 17.116, 17.992 15.790000000000001 Z" fill="#111111"/>
</g>
<g transform="rotate(180 68.00 97.00)">
<rect x="56.0" y="84.0" width="21.5" height="18.5" rx="2.2" ry="2.2" fill="#ffffff" stroke="#c8ccd6" stroke-width="0.6" opacity="0.98"/>

<g>
<rect x="58.20" y="85.90" width="1.22" height="11.78" rx="0.61" ry="0.61" fill="#111111"/>
<polygon points="60.47,92.44 59.42,91.61 64.25,85.49 65.30,86.31" fill="#111111"/>
<polygon points="59.44,92.46 60.46,91.59 65.28,97.25 64.26,98.11" fill="#111111"/>
</g>
<circle cx="69.99199999999999" cy="93.45" r="1.716" fill="#111111"/>
<circle cx="68.04199999999999" cy="95.55600000000001" r="1.716" fill="#111111"/>
<circle cx="71.942" cy="95.55600000000001" r="1.716" fill="#111111"/>
<path d="M 69.99199999999999 95.79 C 70.38199999999999 97.116, 70.38199999999999 99.144, 69.99199999999999 100.236 C 69.60199999999999 99.144, 69.60199999999999 97.116, 69.99199999999999 95.79 Z" fill="#111111"/>
</g>
<g>
<ellipse cx="42.00" cy="57.00" rx="13.20" ry="4.84" fill="none" stroke="#9aa0ab" stroke-width="0.7" opacity="0.55"/>
<ellipse cx="42.00" cy="57.00" rx="4.84" ry="13.20" fill="none" stroke="#9aa0ab" stroke-width="0.7" opacity="0.35"/>
<circle cx="42.0" cy="53.26" r="3.2912000000000003" fill="#111111"/>
<circle cx="38.26" cy="57.2992" r="3.2912000000000003" fill="#111111"/>
<circle cx="45.74" cy="57.2992" r="3.2912000000000003" fill="#111111"/>
<path d="M 42.0 57.748 C 42.748 60.2912, 42.748 64.1808, 42.0 66.2752 C 41.252 64.1808, 41.252 60.2912, 42.0 57.748 Z" fill="#111111"/>
</g>
</svg>
