<svg xmlns="http://www.w3.org/2000/svg" viewBox="0 0 84 114" width="84" height="114">
  <defs>
    <radialGradient id="nebBack" cx="35%" cy="28%" r="70%">
      <stop offset="0" stop-color="#2b1cff" stop-opacity="0.35"/>
      <stop offset="0.35" stop-color="#ff2bd6" stop-opacity="0.22"/>
      <stop offset="0.75" stop-color="#00e6ff" stop-opacity="0.14"/>
      <stop offset="1" stop-color="#000000" stop-opacity="0"/>
    </radialGradient>
    <linearGradient id="backBase" x1="0" y1="0" x2="0" y2="1">
      <stop offset="0" stop-color="#0b0b12"/>
      <stop offset="1" stop-color="#05050a"/>
    </linearGradient>
    <filter id="softGlow" x="-30%" y="-30%" width="160%" height="160%">
      <feGaussianBlur stdDeviation="0.7" result="b"/>
      <feMerge>
        <feMergeNode in="b"/>
        <feMergeNode in="SourceGraphic"/>
      </feMerge>
    </filter>
  </defs>
<rect x="0" y="0" width="84" height="114" rx="6" ry="6" fill="#ffffff"/>
<g>
<circle cx="57.45" cy="88.52" r="0.46" fill="#111111" opacity="0.09"/>
<circle cx="45.06" cy="113.01" r="0.43" fill="#111111" opacity="0.08"/>
<circle cx="79.15" cy="57.46" r="0.36" fill="#111111" opacity="0.09"/>
<circle cx="75.02" cy="110.93" r="0.44" fill="#111111" opacity="0.05"/>
<circle cx="40.60" cy="64.05" r="0.35" fill="#111111" opacity="0.05"/>
<circle cx="7.38" cy="71.89" r="0.49" fill="#111111" opacity="0.12"/>
<circle cx="54.36" cy="33.42" r="0.42" fill="#111111" opacity="0.12"/>
<circle cx="53.75" cy="50.53" r="0.49" fill="#111111" opacity="0.09"/>
<circle cx="30.11" cy="28.55" r="0.37" fill="#111111" opacity="0.07"/>
<circle cx="39.78" cy="23.99" r="0.49" fill="#111111" opacity="0.05"/>
<circle cx="54.99" cy="59.62" r="0.25" fill="#111111" opacity="0.05"/>
<circle cx="37.04" cy="26.90" r="0.47" fill="#111111" opacity="0.09"/>
<circle cx="6.70" cy="87.20" r="0.32" fill="#111111" opacity="0.06"/>
<circle cx="60.76" cy="51.50" r="0.18" fill="#111111" opacity="0.11"/>
<circle cx="20.61" cy="61.37" r="0.19" fill="#111111" opacity="0.05"/>
<circle cx="78.01" cy="80.89" r="0.49" fill="#111111" opacity="0.03"/>
<circle cx="3.09" cy="72.37" r="0.56" fill="#111111" opacity="0.13"/>
<circle cx="60.02" cy="65.63" r="0.40" fill="#111111" opacity="0.04"/>
<circle cx="80.11" cy="1.22" r="0.16" fill="#111111" opacity="0.05"/>
<circle cx="82.83" cy="31.69" r="0.48" fill="#111111" opacity="0.09"/>
<circle cx="34.48" cy="1.45" r="0.24" fill="#111111" opacity="0.09"/>
<circle cx="70.70" cy="80.15" r="0.16" fill="#111111" opacity="0.08"/>
<circle cx="46.87" cy="36.31" r="0.31" fill="#111111" opacity="0.12"/>
<circle cx="20.26" cy="30.02" r="0.37" fill="#111111" opacity="0.06"/>
<circle cx="33.21" cy="98.40" r="0.34" fill="#111111" opacity="0.05"/>
<circle cx="54.48" cy="41.96" r="0.32" fill="#111111" opacity="0.04"/>
<circle cx="40.91" cy="92.89" r="0.28" fill="#111111" opacity="0.07"/>
<circle cx="80.84" cy="12.08" r="0.36" fill="#111111" opacity="0.13"/>
<circle cx="47.36" cy="4.74" r="0.33" fill="#111111" opacity="0.05"/>
<circle cx="23.61" cy="93.16" r="0.15" fill="#111111" opacity="0.11"/>
<circle cx="29.96" cy="17.11" r="0.53" fill="#111111" opacity="0.09"/>
<circle cx="42.67" cy="34.78" r="0.19" fill="#111111" opacity="0.08"/>
<circle cx="49.83" cy="85.44" r="0.26" fill="#111111" opacity="0.08"/>
<circle cx="17.91" cy="36.03" r="0.36" fill="#111111" opacity="0.11"/>
<circle cx="77.28" cy="82.16" r="0.28" fill="#111111" opacity="0.08"/>
<circle cx="13.25" cy="12.66" r="0.53" fill="#111111" opacity="0.05"/>
</g>
<rect x="1.6" y="1.6" width="80.8" height="110.8" rx="5.0" ry="5.0" fill="none" stroke="#2a2f3a" stroke-width="1.2"/>
<rect x="3.4" y="3.4" width="77.2" height="107.2" rx="4.2" ry="4.2" fill="none" stroke="#b9bec9" stroke-width="0.9" opacity="0.95"/>
<g>
<rect x="4.0" y="4.0" width="21.5" height="18.5" rx="2.2" ry="2.2" fill="#ffffff" stroke="#c8ccd6" stroke-width="0.6" opacity="0.98"/>

<g>
<rect x="6.20" y="5.90" width="1.22" height="11.78" rx="0.61" ry="0.61" fill="#c40010"/>
<polygon points="8.47,12.44 7.42,11.61 12.25,5.49 13.30,6.31" fill="#c40010"/>
<polygon points="7.44,12.46 8.46,11.59 13.28,17.25 12.26,18.11" fill="#c40010"/>
</g>
<path d="M 17.992 10.33 L 22.282 15.4 L 17.992 20.47 L 13.702000000000002 15.4 Z" fill="#c40010"/>
</g>
<g transform="rotate(180 68.00 97.00)">
<rect x="56.0" y="84.0" width="21.5" height="18.5" rx="2.2" ry="2.2" fill="#ffffff" stroke="#c8ccd6" stroke-width="0.6" opacity="0.98"/>

<g>
<rect x="58.20" y="85.90" width="1.22" height="11.78" rx="0.61" ry="0.61" fill="#c40010"/>
<polygon points="60.47,92.44 59.42,91.61 64.25,85.49 65.30,86.31" fill="#c40010"/>
<polygon points="59.44,92.46 60.46,91.59 65.28,97.25 64.26,98.11" fill="#c40010"/>
</g>
<path d="M 69.99199999999999 90.33000000000001 L 74.282 95.4 L 69.99199999999999 100.47 L 65.70199999999998 95.4 Z" fill="#c40010"/>
</g>
<g>
<ellipse cx="42.00" cy="57.00" rx="13.20" ry="4.84" fill="none" stroke="#9aa0ab" stroke-width="0.7" opacity="0.55"/>
<ellipse cx="42.00" cy="57.00" rx="4.84" ry="13.20" fill="none" stroke="#9aa0ab" stroke-width="0.7" opacity="0.35"/>
<path d="M 42.0 47.275999999999996 L 50.228 57.0 L 42.0 66.724 L 33.772 57.0 Z" fill="#c40010"/>
</g>
</svg>
