<svg xmlns="http://www.w3.org/2000/svg" viewBox="0 0 84 114" width="84" height="114">
  <defs>
    <radialGradient id="nebBack" cx="35%" cy="28%" r="70%">
      <stop offset="0" stop-color="#2b1cff" stop-opacity="0.35"/>
      <stop offset="0.35" stop-color="#ff2bd6" stop-opacity="0.22"/>
      <stop offset="0.75" stop-color="#00e6ff" stop-opacity="0.14"/>
      <stop offset="1" stop-color="#000000" stop-opacity="0"/>
    </radialGradient>
    <linearGradient id="backBase" x1="0" y1="0" x2="0" y2="1">
      <stop offset="0" stop-color="#0b0b12"/>
      <stop offset="1" stop-color="#05050a"/>
    </linearGradient>
    <filter id="softGlow" x="-30%" y="-30%" width="160%" height="160%">
      <feGaussianBlur stdDeviation="0.7" result="b"/>
      <feMerge>
        <feMergeNode in="b"/>
        <feMergeNode in="SourceGraphic"/>
      </feMerge>
    </filter>
  </defs>
<rect x="0" y="0" width="84" height="114" rx="6" ry="6" fill="#ffffff"/>
<g>
<circle cx="71.72" cy="39.42" r="0.33" fill="#111111" opacity="0.08"/>
<circle cx="70.43" cy="19.89" r="0.22" fill="#111111" opacity="0.05"/>
<circle cx="19.75" cy="109.77" r="0.52" fill="#111111" opacity="0.08"/>
<circle cx="2.87" cy="78.09" r="0.53" fill="#111111" opacity="0.08"/>
<circle cx="70.10" cy="31.65" r="0.40" fill="#111111" opacity="0.11"/>
<circle cx="26.19" cy="20.42" r="0.12" fill="#111111" opacity="0.05"/>
<circle cx="79.64" cy="26.08" r="0.13" fill="#111111" opacity="0.07"/>
<circle cx="49.37" cy="28.08" r="0.33" fill="#111111" opacity="0.12"/>
<circle cx="8.76" cy="73.77" r="0.14" fill="#111111" opacity="0.08"/>
<circle cx="37.44" cy="8.06" r="0.18" fill="#111111" opacity="0.08"/>
<circle cx="38.91" cy="48.68" r="0.54" fill="#111111" opacity="0.10"/>
<circle cx="57.35" cy="45.60" r="0.14" fill="#111111" opacity="0.10"/>
<circle cx="34.80" cy="69.17" r="0.23" fill="#111111" opacity="0.04"/>
<circle cx="3.23" cy="78.18" r="0.23" fill="#111111" opacity="0.08"/>
<circle cx="41.37" cy="43.45" r="0.47" fill="#111111" opacity="0.05"/>
<circle cx="26.96" cy="22.76" r="0.35" fill="#111111" opacity="0.13"/>
<circle cx="83.53" cy="3.77" r="0.21" fill="#111111" opacity="0.06"/>
<circle cx="46.82" cy="21.51" r="0.45" fill="#111111" opacity="0.10"/>
<circle cx="25.17" cy="104.37" r="0.20" fill="#111111" opacity="0.12"/>
<circle cx="18.41" cy="92.42" r="0.49" fill="#111111" opacity="0.10"/>
<circle cx="22.26" cy="112.54" r="0.53" fill="#111111" opacity="0.03"/>
<circle cx="2.77" cy="80.11" r="0.47" fill="#111111" opacity="0.08"/>
<circle cx="29.22" cy="41.19" r="0.38" fill="#111111" opacity="0.04"/>
<circle cx="3.24" cy="109.89" r="0.43" fill="#111111" opacity="0.11"/>
<circle cx="16.54" cy="35.37" r="0.14" fill="#111111" opacity="0.07"/>
<circle cx="69.76" cy="8.36" r="0.13" fill="#111111" opacity="0.03"/>
<circle cx="29.27" cy="35.00" r="0.42" fill="#111111" opacity="0.05"/>
<circle cx="11.19" cy="28.70" r="0.34" fill="#111111" opacity="0.10"/>
<circle cx="42.39" cy="99.88" r="0.45" fill="#111111" opacity="0.06"/>
<circle cx="47.53" cy="112.39" r="0.18" fill="#111111" opacity="0.12"/>
<circle cx="33.04" cy="23.78" r="0.52" fill="#111111" opacity="0.10"/>
<circle cx="4.81" cy="18.77" r="0.53" fill="#111111" opacity="0.07"/>
<circle cx="75.62" cy="106.08" r="0.45" fill="#111111" opacity="0.03"/>
<circle cx="80.92" cy="64.69" r="0.34" fill="#111111" opacity="0.09"/>
<circle cx="32.25" cy="91.30" r="0.46" fill="#111111" opacity="0.12"/>
<circle cx="10.51" cy="30.90" r="0.33" fill="#111111" opacity="0.11"/>
</g>
<rect x="1.6" y="1.6" width="80.8" height="110.8" rx="5.0" ry="5.0" fill="none" stroke="#2a2f3a" stroke-width="1.2"/>
<rect x="3.4" y="3.4" width="77.2" height="107.2" rx="4.2" ry="4.2" fill="none" stroke="#b9bec9" stroke-width="0.9" opacity="0.95"/>
<g>
<rect x="4.0" y="4.0" width="21.5" height="18.5" rx="2.2" ry="2.2" fill="#ffffff" stroke="#c8ccd6" stroke-width="0.6" opacity="0.98"/>

<g>
<rect x="6.20" y="5.90" width="1.22" height="11.78" rx="0.61" ry="0.61" fill="#c40010"/>
<polygon points="8.47,12.44 7.42,11.61 12.25,5.49 13.30,6.31" fill="#c40010"/>
<polygon points="7.44,12.46 8.46,11.59 13.28,17.25 12.26,18.11" fill="#c40010"/>
</g>
<path d="M 17.992 18.832 C 13.312000000000001 16.18, 14.482000000000001 11.11, 17.992 13.996 C 21.502000000000002 11.11, 22.672 16.18, 17.992 18.832 Z" fill="#c40010"/>
</g>
<g transform="rotate(180 68.00 97.00)">
<rect x="56.0" y="84.0" width="21.5" height="18.5" rx="2.2" ry="2.2" fill="#ffffff" stroke="#c8ccd6" stroke-width="0.6" opacity="0.98"/>

<g>
<rect x="58.20" y="85.90" width="1.22" height="11.78" rx="0.61" ry="0.61" fill="#c40010"/>
<polygon points="60.47,92.44 59.42,91.61 64.25,85.49 65.30,86.31" fill="#c40010"/>
<polygon points="59.44,92.46 60.46,91.59 65.28,97.25 64.26,98.11" fill="#c40010"/>
</g>
<path d="M 69.99199999999999 98.83200000000001 C 65.31199999999998 96.18, 66.48199999999999 91.11, 69.99199999999999 93.99600000000001 C 73.502 91.11, 74.672 96.18, 69.99199999999999 98.83200000000001 Z" fill="#c40010"/>
</g>
<g>
<ellipse cx="42.00" cy="57.00" rx="13.20" ry="4.84" fill="none" stroke="#9aa0ab" stroke-width="0.7" opacity="0.55"/>
<ellipse cx="42.00" cy="57.00" rx="4.84" ry="13.20" fill="none" stroke="#9aa0ab" stroke-width="0.7" opacity="0.35"/>
<path d="M 42.0 63.5824 C 33.024 58.496, 35.268 48.772, 42.0 54.3072 C 48.732 48.772, 50.976 58.496, 42.0 63.5824 Z" fill="#c40010"/>
</g>
</svg>
