<svg xmlns="http://www.w3.org/2000/svg" viewBox="0 0 84 114" width="84" height="114">
  <defs>
    <radialGradient id="nebBack" cx="35%" cy="28%" r="70%">
      <stop offset="0" stop-color="#2b1cff" stop-opacity="0.35"/>
      <stop offset="0.35" stop-color="#ff2bd6" stop-opacity="0.22"/>
      <stop offset="0.75" stop-color="#00e6ff" stop-opacity="0.14"/>
      <stop offset="1" stop-color="#000000" stop-opacity="0"/>
    </radialGradient>
    <linearGradient id="backBase" x1="0" y1="0" x2="0" y2="1">
      <stop offset="0" stop-color="#0b0b12"/>
      <stop offset="1" stop-color="#05050a"/>
    </linearGradient>
    <filter id="softGlow" x="-30%" y="-30%" width="160%" height="160%">
      <feGaussianBlur stdDeviation="0.7" result="b"/>
      <feMerge>
        <feMergeNode in="b"/>
        <feMergeNode in="SourceGraphic"/>
      </feMerge>
    </filter>
  </defs>
<rect x="0" y="0" width="84" height="114" rx="6" ry="6" fill="#ffffff"/>
<g>
<circle cx="49.83" cy="2.86" r="0.30" fill="#111111" opacity="0.05"/>
<circle cx="70.24" cy="36.27" r="0.49" fill="#111111" opacity="0.10"/>
<circle cx="2.47" cy="5.84" r="0.56" fill="#111111" opacity="0.06"/>
<circle cx="2.90" cy="94.19" r="0.48" fill="#111111" opacity="0.06"/>
<circle cx="74.26" cy="34.78" r="0.30" fill="#111111" opacity="0.07"/>
<circle cx="50.08" cy="95.21" r="0.14" fill="#111111" opacity="0.11"/>
<circle cx="13.45" cy="61.01" r="0.40" fill="#111111" opacity="0.03"/>
<circle cx="28.51" cy="109.61" r="0.39" fill="#111111" opacity="0.04"/>
<circle cx="30.29" cy="82.09" r="0.14" fill="#111111" opacity="0.04"/>
<circle cx="39.56" cy="55.00" r="0.21" fill="#111111" opacity="0.07"/>
<circle cx="76.30" cy="2.93" r="0.18" fill="#111111" opacity="0.10"/>
<circle cx="12.94" cy="74.13" r="0.39" fill="#111111" opacity="0.06"/>
<circle cx="44.53" cy="5.89" r="0.17" fill="#111111" opacity="0.06"/>
<circle cx="9.56" cy="55.96" r="0.23" fill="#111111" opacity="0.09"/>
<circle cx="2.29" cy="50.23" r="0.40" fill="#111111" opacity="0.05"/>
<circle cx="4.48" cy="90.54" r="0.38" fill="#111111" opacity="0.06"/>
<circle cx="17.47" cy="15.75" r="0.30" fill="#111111" opacity="0.10"/>
<circle cx="15.95" cy="33.73" r="0.52" fill="#111111" opacity="0.10"/>
<circle cx="25.79" cy="84.94" r="0.39" fill="#111111" opacity="0.12"/>
<circle cx="14.39" cy="82.60" r="0.37" fill="#111111" opacity="0.11"/>
<circle cx="57.29" cy="78.06" r="0.48" fill="#111111" opacity="0.06"/>
<circle cx="39.30" cy="29.59" r="0.40" fill="#111111" opacity="0.10"/>
<circle cx="44.43" cy="45.12" r="0.31" fill="#111111" opacity="0.11"/>
<circle cx="15.04" cy="53.40" r="0.27" fill="#111111" opacity="0.04"/>
<circle cx="19.81" cy="17.19" r="0.18" fill="#111111" opacity="0.10"/>
<circle cx="40.59" cy="48.60" r="0.53" fill="#111111" opacity="0.07"/>
<circle cx="56.74" cy="85.88" r="0.33" fill="#111111" opacity="0.04"/>
<circle cx="77.60" cy="86.25" r="0.22" fill="#111111" opacity="0.06"/>
<circle cx="42.14" cy="61.31" r="0.45" fill="#111111" opacity="0.11"/>
<circle cx="78.33" cy="62.92" r="0.54" fill="#111111" opacity="0.13"/>
<circle cx="42.53" cy="110.36" r="0.36" fill="#111111" opacity="0.04"/>
<circle cx="22.76" cy="112.67" r="0.16" fill="#111111" opacity="0.08"/>
<circle cx="40.99" cy="46.73" r="0.42" fill="#111111" opacity="0.06"/>
<circle cx="13.50" cy="57.97" r="0.14" fill="#111111" opacity="0.05"/>
<circle cx="44.72" cy="98.47" r="0.43" fill="#111111" opacity="0.03"/>
<circle cx="28.82" cy="78.50" r="0.57" fill="#111111" opacity="0.04"/>
</g>
<rect x="1.6" y="1.6" width="80.8" height="110.8" rx="5.0" ry="5.0" fill="none" stroke="#2a2f3a" stroke-width="1.2"/>
<rect x="3.4" y="3.4" width="77.2" height="107.2" rx="4.2" ry="4.2" fill="none" stroke="#b9bec9" stroke-width="0.9" opacity="0.95"/>
<g>
<rect x="4.0" y="4.0" width="21.5" height="18.5" rx="2.2" ry="2.2" fill="#ffffff" stroke="#c8ccd6" stroke-width="0.6" opacity="0.98"/>

<g>
<rect x="6.20" y="5.90" width="6.99" height="1.22" rx="0.61" ry="0.61" fill="#111111"/>
<rect x="6.20" y="16.46" width="6.99" height="1.22" rx="0.61" ry="0.61" fill="#111111"/>
<rect x="6.20" y="5.90" width="1.22" height="11.78" rx="0.61" ry="0.61" fill="#111111"/>
<rect x="11.98" y="5.90" width="1.22" height="11.78" rx="0.61" ry="0.61" fill="#111111"/>
<polygon points="9.47,13.30 10.62,12.63 13.21,17.11 12.05,17.78" fill="#111111"/>
</g>
<circle cx="17.992" cy="13.450000000000001" r="1.716" fill="#111111"/>
<circle cx="16.042" cy="15.556000000000001" r="1.716" fill="#111111"/>
<circle cx="19.942" cy="15.556000000000001" r="1.716" fill="#111111"/>
<path d="M 17.992 15.790000000000001 C 18.382 17.116, 18.382 19.144, 17.992 20.236 C 17.602 19.144, 17.602 17.116, 17.992 15.790000000000001 Z" fill="#111111"/>
</g>
<g transform="rotate(180 68.00 97.00)">
<rect x="56.0" y="84.0" width="21.5" height="18.5" rx="2.2" ry="2.2" fill="#ffffff" stroke="#c8ccd6" stroke-width="0.6" opacity="0.98"/>

<g>
<rect x="58.20" y="85.90" width="6.99" height="1.22" rx="0.61" ry="0.61" fill="#111111"/>
<rect x="58.20" y="96.46" width="6.99" height="1.22" rx="0.61" ry="0.61" fill="#111111"/>
<rect x="58.20" y="85.90" width="1.22" height="11.78" rx="0.61" ry="0.61" fill="#111111"/>
<rect x="63.98" y="85.90" width="1.22" height="11.78" rx="0.61" ry="0.61" fill="#111111"/>
<polygon points="61.47,93.30 62.62,92.63 65.21,97.11 64.05,97.78" fill="#111111"/>
</g>
<circle cx="69.99199999999999" cy="93.45" r="1.716" fill="#111111"/>
<circle cx="68.04199999999999" cy="95.55600000000001" r="1.716" fill="#111111"/>
<circle cx="71.942" cy="95.55600000000001" r="1.716" fill="#111111"/>
<path d="M 69.99199999999999 95.79 C 70.38199999999999 97.116, 70.38199999999999 99.144, 69.99199999999999 100.236 C 69.60199999999999 99.144, 69.60199999999999 97.116, 69.99199999999999 95.79 Z" fill="#111111"/>
</g>
<g>
<ellipse cx="42.00" cy="57.00" rx="13.20" ry="4.84" fill="none" stroke="#9aa0ab" stroke-width="0.7" opacity="0.55"/>
<ellipse cx="42.00" cy="57.00" rx="4.84" ry="13.20" fill="none" stroke="#9aa0ab" stroke-width="0.7" opacity="0.35"/>
<circle cx="42.0" cy="53.26" r="3.2912000000000003" fill="#111111"/>
<circle cx="38.26" cy="57.2992" r="3.2912000000000003" fill="#111111"/>
<circle cx="45.74" cy="57.2992" r="3.2912000000000003" fill="#111111"/>
<path d="M 42.0 57.748 C 42.748 60.2912, 42.748 64.1808, 42.0 66.2752 C 41.252 64.1808, 41.252 60.2912, 42.0 57.748 Z" fill="#111111"/>
</g>
</svg>
