<svg xmlns="http://www.w3.org/2000/svg" viewBox="0 0 84 114" width="84" height="114">
  <defs>
    <radialGradient id="nebBack" cx="35%" cy="28%" r="70%">
      <stop offset="0" stop-color="#2b1cff" stop-opacity="0.35"/>
      <stop offset="0.35" stop-color="#ff2bd6" stop-opacity="0.22"/>
      <stop offset="0.75" stop-color="#00e6ff" stop-opacity="0.14"/>
      <stop offset="1" stop-color="#000000" stop-opacity="0"/>
    </radialGradient>
    <linearGradient id="backBase" x1="0" y1="0" x2="0" y2="1">
      <stop offset="0" stop-color="#0b0b12"/>
      <stop offset="1" stop-color="#05050a"/>
    </linearGradient>
    <filter id="softGlow" x="-30%" y="-30%" width="160%" height="160%">
      <feGaussianBlur stdDeviation="0.7" result="b"/>
      <feMerge>
        <feMergeNode in="b"/>
        <feMergeNode in="SourceGraphic"/>
      </feMerge>
    </filter>
  </defs>
<rect x="0" y="0" width="84" height="114" rx="6" ry="6" fill="#ffffff"/>
<g>
<circle cx="26.75" cy="64.08" r="0.13" fill="#111111" opacity="0.06"/>
<circle cx="0.61" cy="97.65" r="0.40" fill="#111111" opacity="0.10"/>
<circle cx="5.85" cy="98.22" r="0.55" fill="#111111" opacity="0.12"/>
<circle cx="32.54" cy="104.40" r="0.23" fill="#111111" opacity="0.09"/>
<circle cx="69.32" cy="98.86" r="0.19" fill="#111111" opacity="0.06"/>
<circle cx="62.35" cy="86.37" r="0.45" fill="#111111" opacity="0.06"/>
<circle cx="5.34" cy="25.53" r="0.51" fill="#111111" opacity="0.03"/>
<circle cx="36.17" cy="110.87" r="0.19" fill="#111111" opacity="0.11"/>
<circle cx="31.08" cy="15.13" r="0.18" fill="#111111" opacity="0.04"/>
<circle cx="69.79" cy="18.77" r="0.38" fill="#111111" opacity="0.06"/>
<circle cx="49.66" cy="77.43" r="0.30" fill="#111111" opacity="0.05"/>
<circle cx="10.73" cy="68.86" r="0.38" fill="#111111" opacity="0.07"/>
<circle cx="55.96" cy="68.63" r="0.49" fill="#111111" opacity="0.08"/>
<circle cx="0.24" cy="47.62" r="0.37" fill="#111111" opacity="0.12"/>
<circle cx="9.70" cy="30.57" r="0.15" fill="#111111" opacity="0.06"/>
<circle cx="56.07" cy="1.25" r="0.52" fill="#111111" opacity="0.11"/>
<circle cx="58.62" cy="14.24" r="0.26" fill="#111111" opacity="0.07"/>
<circle cx="70.40" cy="40.13" r="0.26" fill="#111111" opacity="0.09"/>
<circle cx="81.11" cy="81.27" r="0.33" fill="#111111" opacity="0.05"/>
<circle cx="76.89" cy="0.64" r="0.53" fill="#111111" opacity="0.11"/>
<circle cx="71.63" cy="92.21" r="0.28" fill="#111111" opacity="0.08"/>
<circle cx="32.76" cy="106.69" r="0.28" fill="#111111" opacity="0.05"/>
<circle cx="82.03" cy="109.13" r="0.47" fill="#111111" opacity="0.12"/>
<circle cx="71.35" cy="77.48" r="0.52" fill="#111111" opacity="0.07"/>
<circle cx="12.27" cy="37.33" r="0.52" fill="#111111" opacity="0.09"/>
<circle cx="15.78" cy="77.67" r="0.34" fill="#111111" opacity="0.06"/>
<circle cx="81.11" cy="25.33" r="0.40" fill="#111111" opacity="0.07"/>
<circle cx="44.26" cy="22.43" r="0.23" fill="#111111" opacity="0.06"/>
<circle cx="14.46" cy="84.88" r="0.52" fill="#111111" opacity="0.12"/>
<circle cx="29.61" cy="28.32" r="0.53" fill="#111111" opacity="0.07"/>
<circle cx="50.16" cy="31.35" r="0.48" fill="#111111" opacity="0.10"/>
<circle cx="45.66" cy="19.44" r="0.54" fill="#111111" opacity="0.06"/>
<circle cx="60.65" cy="60.78" r="0.49" fill="#111111" opacity="0.07"/>
<circle cx="64.67" cy="37.16" r="0.52" fill="#111111" opacity="0.05"/>
<circle cx="17.07" cy="98.86" r="0.19" fill="#111111" opacity="0.13"/>
<circle cx="2.38" cy="78.85" r="0.44" fill="#111111" opacity="0.08"/>
</g>
<rect x="1.6" y="1.6" width="80.8" height="110.8" rx="5.0" ry="5.0" fill="none" stroke="#2a2f3a" stroke-width="1.2"/>
<rect x="3.4" y="3.4" width="77.2" height="107.2" rx="4.2" ry="4.2" fill="none" stroke="#b9bec9" stroke-width="0.9" opacity="0.95"/>
<g>
<rect x="4.0" y="4.0" width="21.5" height="18.5" rx="2.2" ry="2.2" fill="#ffffff" stroke="#c8ccd6" stroke-width="0.6" opacity="0.98"/>

<g>
<rect x="6.20" y="5.90" width="6.99" height="1.22" rx="0.61" ry="0.61" fill="#c40010"/>
<rect x="6.20" y="16.46" width="6.99" height="1.22" rx="0.61" ry="0.61" fill="#c40010"/>
<rect x="6.20" y="5.90" width="1.22" height="11.78" rx="0.61" ry="0.61" fill="#c40010"/>
<rect x="11.98" y="5.90" width="1.22" height="11.78" rx="0.61" ry="0.61" fill="#c40010"/>
<polygon points="9.47,13.30 10.62,12.63 13.21,17.11 12.05,17.78" fill="#c40010"/>
</g>
<path d="M 17.992 10.33 L 22.282 15.4 L 17.992 20.47 L 13.702000000000002 15.4 Z" fill="#c40010"/>
</g>
<g transform="rotate(180 68.00 97.00)">
<rect x="56.0" y="84.0" width="21.5" height="18.5" rx="2.2" ry="2.2" fill="#ffffff" stroke="#c8ccd6" stroke-width="0.6" opacity="0.98"/>

<g>
<rect x="58.20" y="85.90" width="6.99" height="1.22" rx="0.61" ry="0.61" fill="#c40010"/>
<rect x="58.20" y="96.46" width="6.99" height="1.22" rx="0.61" ry="0.61" fill="#c40010"/>
<rect x="58.20" y="85.90" width="1.22" height="11.78" rx="0.61" ry="0.61" fill="#c40010"/>
<rect x="63.98" y="85.90" width="1.22" height="11.78" rx="0.61" ry="0.61" fill="#c40010"/>
<polygon points="61.47,93.30 62.62,92.63 65.21,97.11 64.05,97.78" fill="#c40010"/>
</g>
<path d="M 69.99199999999999 90.33000000000001 L 74.282 95.4 L 69.99199999999999 100.47 L 65.70199999999998 95.4 Z" fill="#c40010"/>
</g>
<g>
<ellipse cx="42.00" cy="57.00" rx="13.20" ry="4.84" fill="none" stroke="#9aa0ab" stroke-width="0.7" opacity="0.55"/>
<ellipse cx="42.00" cy="57.00" rx="4.84" ry="13.20" fill="none" stroke="#9aa0ab" stroke-width="0.7" opacity="0.35"/>
<path d="M 42.0 47.275999999999996 L 50.228 57.0 L 42.0 66.724 L 33.772 57.0 Z" fill="#c40010"/>
</g>
</svg>
