<svg xmlns="http://www.w3.org/2000/svg" viewBox="0 0 84 114" width="84" height="114">
  <defs>
    <radialGradient id="nebBack" cx="35%" cy="28%" r="70%">
      <stop offset="0" stop-color="#2b1cff" stop-opacity="0.35"/>
      <stop offset="0.35" stop-color="#ff2bd6" stop-opacity="0.22"/>
      <stop offset="0.75" stop-color="#00e6ff" stop-opacity="0.14"/>
      <stop offset="1" stop-color="#000000" stop-opacity="0"/>
    </radialGradient>
    <linearGradient id="backBase" x1="0" y1="0" x2="0" y2="1">
      <stop offset="0" stop-color="#0b0b12"/>
      <stop offset="1" stop-color="#05050a"/>
    </linearGradient>
    <filter id="softGlow" x="-30%" y="-30%" width="160%" height="160%">
      <feGaussianBlur stdDeviation="0.7" result="b"/>
      <feMerge>
        <feMergeNode in="b"/>
        <feMergeNode in="SourceGraphic"/>
      </feMerge>
    </filter>
  </defs>
<rect x="0" y="0" width="84" height="114" rx="6" ry="6" fill="#ffffff"/>
<g>
<circle cx="74.87" cy="83.13" r="0.45" fill="#111111" opacity="0.12"/>
<circle cx="71.91" cy="3.57" r="0.45" fill="#111111" opacity="0.06"/>
<circle cx="30.75" cy="5.44" r="0.30" fill="#111111" opacity="0.07"/>
<circle cx="57.48" cy="13.86" r="0.19" fill="#111111" opacity="0.13"/>
<circle cx="60.43" cy="13.31" r="0.49" fill="#111111" opacity="0.07"/>
<circle cx="0.57" cy="5.02" r="0.56" fill="#111111" opacity="0.05"/>
<circle cx="1.02" cy="41.54" r="0.53" fill="#111111" opacity="0.07"/>
<circle cx="62.34" cy="50.12" r="0.55" fill="#111111" opacity="0.05"/>
<circle cx="66.97" cy="61.95" r="0.44" fill="#111111" opacity="0.05"/>
<circle cx="43.48" cy="29.19" r="0.31" fill="#111111" opacity="0.09"/>
<circle cx="39.96" cy="77.50" r="0.39" fill="#111111" opacity="0.05"/>
<circle cx="23.71" cy="7.52" r="0.44" fill="#111111" opacity="0.06"/>
<circle cx="45.91" cy="28.22" r="0.26" fill="#111111" opacity="0.10"/>
<circle cx="63.90" cy="101.76" r="0.49" fill="#111111" opacity="0.13"/>
<circle cx="1.47" cy="107.99" r="0.44" fill="#111111" opacity="0.03"/>
<circle cx="82.07" cy="39.97" r="0.39" fill="#111111" opacity="0.11"/>
<circle cx="22.57" cy="32.36" r="0.49" fill="#111111" opacity="0.04"/>
<circle cx="47.94" cy="97.11" r="0.14" fill="#111111" opacity="0.07"/>
<circle cx="20.43" cy="22.26" r="0.53" fill="#111111" opacity="0.06"/>
<circle cx="39.36" cy="37.90" r="0.29" fill="#111111" opacity="0.04"/>
<circle cx="41.26" cy="49.10" r="0.50" fill="#111111" opacity="0.10"/>
<circle cx="2.93" cy="47.84" r="0.31" fill="#111111" opacity="0.04"/>
<circle cx="4.01" cy="99.17" r="0.29" fill="#111111" opacity="0.09"/>
<circle cx="55.54" cy="25.55" r="0.41" fill="#111111" opacity="0.05"/>
<circle cx="26.09" cy="113.39" r="0.17" fill="#111111" opacity="0.05"/>
<circle cx="0.07" cy="63.37" r="0.44" fill="#111111" opacity="0.07"/>
<circle cx="59.75" cy="110.20" r="0.48" fill="#111111" opacity="0.04"/>
<circle cx="55.57" cy="97.84" r="0.36" fill="#111111" opacity="0.11"/>
<circle cx="6.97" cy="3.53" r="0.44" fill="#111111" opacity="0.05"/>
<circle cx="24.32" cy="9.70" r="0.14" fill="#111111" opacity="0.07"/>
<circle cx="56.84" cy="51.46" r="0.39" fill="#111111" opacity="0.10"/>
<circle cx="57.72" cy="6.16" r="0.55" fill="#111111" opacity="0.08"/>
<circle cx="31.54" cy="6.26" r="0.14" fill="#111111" opacity="0.11"/>
<circle cx="24.67" cy="39.92" r="0.19" fill="#111111" opacity="0.06"/>
<circle cx="12.03" cy="1.74" r="0.29" fill="#111111" opacity="0.12"/>
<circle cx="27.10" cy="93.54" r="0.40" fill="#111111" opacity="0.13"/>
</g>
<rect x="1.6" y="1.6" width="80.8" height="110.8" rx="5.0" ry="5.0" fill="none" stroke="#2a2f3a" stroke-width="1.2"/>
<rect x="3.4" y="3.4" width="77.2" height="107.2" rx="4.2" ry="4.2" fill="none" stroke="#b9bec9" stroke-width="0.9" opacity="0.95"/>
<g>
<rect x="4.0" y="4.0" width="21.5" height="18.5" rx="2.2" ry="2.2" fill="#ffffff" stroke="#c8ccd6" stroke-width="0.6" opacity="0.98"/>

<g>
<rect x="6.20" y="5.90" width="6.99" height="1.22" rx="0.61" ry="0.61" fill="#111111"/>
<rect x="6.20" y="16.46" width="6.99" height="1.22" rx="0.61" ry="0.61" fill="#111111"/>
<rect x="6.20" y="5.90" width="1.22" height="11.78" rx="0.61" ry="0.61" fill="#111111"/>
<rect x="11.98" y="5.90" width="1.22" height="11.78" rx="0.61" ry="0.61" fill="#111111"/>
<polygon points="9.47,13.30 10.62,12.63 13.21,17.11 12.05,17.78" fill="#111111"/>
</g>
<path d="M 17.992 11.11 C 13.468 15.01, 15.964 18.13, 17.992 16.18 C 20.02 18.13, 22.516000000000002 15.01, 17.992 11.11 Z" fill="#111111"/><path d="M 17.056 16.336 C 17.524 17.584, 17.524 18.832, 16.432000000000002 20.236 L 19.552 20.236 C 18.46 18.832, 18.46 17.584, 18.928 16.336 Z" fill="#111111"/>
</g>
<g transform="rotate(180 68.00 97.00)">
<rect x="56.0" y="84.0" width="21.5" height="18.5" rx="2.2" ry="2.2" fill="#ffffff" stroke="#c8ccd6" stroke-width="0.6" opacity="0.98"/>

<g>
<rect x="58.20" y="85.90" width="6.99" height="1.22" rx="0.61" ry="0.61" fill="#111111"/>
<rect x="58.20" y="96.46" width="6.99" height="1.22" rx="0.61" ry="0.61" fill="#111111"/>
<rect x="58.20" y="85.90" width="1.22" height="11.78" rx="0.61" ry="0.61" fill="#111111"/>
<rect x="63.98" y="85.90" width="1.22" height="11.78" rx="0.61" ry="0.61" fill="#111111"/>
<polygon points="61.47,93.30 62.62,92.63 65.21,97.11 64.05,97.78" fill="#111111"/>
</g>
<path d="M 69.99199999999999 91.11 C 65.46799999999999 95.01, 67.96399999999998 98.13000000000001, 69.99199999999999 96.18 C 72.02 98.13000000000001, 74.51599999999999 95.01, 69.99199999999999 91.11 Z" fill="#111111"/><path d="M 69.05599999999998 96.33600000000001 C 69.52399999999999 97.584, 69.52399999999999 98.83200000000001, 68.43199999999999 100.236 L 71.55199999999999 100.236 C 70.46 98.83200000000001, 70.46 97.584, 70.928 96.33600000000001 Z" fill="#111111"/>
</g>
<g>
<ellipse cx="42.00" cy="57.00" rx="13.20" ry="4.84" fill="none" stroke="#9aa0ab" stroke-width="0.7" opacity="0.55"/>
<ellipse cx="42.00" cy="57.00" rx="4.84" ry="13.20" fill="none" stroke="#9aa0ab" stroke-width="0.7" opacity="0.35"/>
<path d="M 42.0 48.772 C 33.3232 56.252, 38.1104 62.236, 42.0 58.496 C 45.8896 62.236, 50.6768 56.252, 42.0 48.772 Z" fill="#111111"/><path d="M 40.2048 58.7952 C 41.1024 61.1888, 41.1024 63.5824, 39.008 66.2752 L 44.992 66.2752 C 42.8976 63.5824, 42.8976 61.1888, 43.7952 58.7952 Z" fill="#111111"/>
</g>
</svg>
