<svg xmlns="http://www.w3.org/2000/svg" viewBox="0 0 84 114" width="84" height="114">
  <defs>
    <radialGradient id="nebBack" cx="35%" cy="28%" r="70%">
      <stop offset="0" stop-color="#2b1cff" stop-opacity="0.35"/>
      <stop offset="0.35" stop-color="#ff2bd6" stop-opacity="0.22"/>
      <stop offset="0.75" stop-color="#00e6ff" stop-opacity="0.14"/>
      <stop offset="1" stop-color="#000000" stop-opacity="0"/>
    </radialGradient>
    <linearGradient id="backBase" x1="0" y1="0" x2="0" y2="1">
      <stop offset="0" stop-color="#0b0b12"/>
      <stop offset="1" stop-color="#05050a"/>
    </linearGradient>
    <filter id="softGlow" x="-30%" y="-30%" width="160%" height="160%">
      <feGaussianBlur stdDeviation="0.7" result="b"/>
      <feMerge>
        <feMergeNode in="b"/>
        <feMergeNode in="SourceGraphic"/>
      </feMerge>
    </filter>
  </defs>
<rect x="0" y="0" width="84" height="114" rx="6" ry="6" fill="url(#backBase)"/>
<rect x="0" y="0" width="84" height="114" fill="url(#nebBack)" opacity="0.95"/><g>
<circle cx="61.03" cy="51.17" r="0.75" fill="#ffffff" opacity="0.26"/>
<circle cx="27.84" cy="107.89" r="0.59" fill="#ffffff" opacity="0.39"/>
<circle cx="83.65" cy="9.62" r="0.35" fill="#ffffff" opacity="0.48"/>
<circle cx="61.31" cy="17.66" r="0.29" fill="#ffffff" opacity="0.37"/>
<circle cx="63.77" cy="68.06" r="0.30" fill="#ffffff" opacity="0.39"/>
<circle cx="59.87" cy="64.24" r="0.47" fill="#ffffff" opacity="0.50"/>
<circle cx="39.25" cy="14.07" r="0.58" fill="#ffffff" opacity="0.41"/>
<circle cx="35.62" cy="6.73" r="0.68" fill="#ffffff" opacity="0.20"/>
<circle cx="29.41" cy="45.65" r="0.33" fill="#ffffff" opacity="0.45"/>
<circle cx="33.47" cy="43.21" r="0.33" fill="#ffffff" opacity="0.50"/>
<circle cx="80.92" cy="70.32" r="0.32" fill="#ffffff" opacity="0.39"/>
<circle cx="50.78" cy="65.90" r="0.54" fill="#ffffff" opacity="0.33"/>
<circle cx="78.97" cy="97.21" r="0.38" fill="#ffffff" opacity="0.48"/>
<circle cx="81.66" cy="108.85" r="0.48" fill="#ffffff" opacity="0.52"/>
<circle cx="28.14" cy="104.94" r="0.17" fill="#ffffff" opacity="0.32"/>
<circle cx="55.02" cy="1.48" r="0.44" fill="#ffffff" opacity="0.43"/>
<circle cx="41.61" cy="97.16" r="0.36" fill="#ffffff" opacity="0.22"/>
<circle cx="68.08" cy="78.52" r="0.57" fill="#ffffff" opacity="0.38"/>
<circle cx="59.65" cy="107.91" r="0.59" fill="#ffffff" opacity="0.42"/>
<circle cx="71.25" cy="33.41" r="0.49" fill="#ffffff" opacity="0.29"/>
<circle cx="15.72" cy="107.41" r="0.26" fill="#ffffff" opacity="0.13"/>
<circle cx="62.25" cy="49.85" r="0.21" fill="#ffffff" opacity="0.15"/>
<circle cx="4.87" cy="25.69" r="0.38" fill="#ffffff" opacity="0.10"/>
<circle cx="16.12" cy="44.90" r="0.16" fill="#ffffff" opacity="0.13"/>
<circle cx="66.06" cy="112.50" r="0.34" fill="#ffffff" opacity="0.45"/>
<circle cx="15.89" cy="58.72" r="0.44" fill="#ffffff" opacity="0.16"/>
<circle cx="45.50" cy="105.64" r="0.19" fill="#ffffff" opacity="0.15"/>
<circle cx="12.20" cy="14.69" r="0.56" fill="#ffffff" opacity="0.18"/>
<circle cx="21.08" cy="100.62" r="0.64" fill="#ffffff" opacity="0.43"/>
<circle cx="25.03" cy="69.36" r="0.48" fill="#ffffff" opacity="0.48"/>
<circle cx="47.07" cy="100.97" r="0.49" fill="#ffffff" opacity="0.12"/>
<circle cx="78.01" cy="95.44" r="0.72" fill="#ffffff" opacity="0.25"/>
<circle cx="73.68" cy="47.77" r="0.54" fill="#ffffff" opacity="0.53"/>
<circle cx="60.36" cy="27.78" r="0.63" fill="#ffffff" opacity="0.43"/>
<circle cx="60.69" cy="1.56" r="0.43" fill="#ffffff" opacity="0.46"/>
<circle cx="79.00" cy="109.19" r="0.46" fill="#ffffff" opacity="0.15"/>
<circle cx="7.21" cy="73.71" r="0.55" fill="#ffffff" opacity="0.34"/>
<circle cx="18.80" cy="46.86" r="0.32" fill="#ffffff" opacity="0.40"/>
<circle cx="34.99" cy="24.57" r="0.34" fill="#ffffff" opacity="0.27"/>
<circle cx="11.68" cy="105.63" r="0.17" fill="#ffffff" opacity="0.23"/>
<circle cx="72.93" cy="66.32" r="0.73" fill="#ffffff" opacity="0.51"/>
<circle cx="63.36" cy="27.92" r="0.59" fill="#ffffff" opacity="0.43"/>
<circle cx="48.11" cy="37.52" r="0.56" fill="#ffffff" opacity="0.36"/>
<circle cx="61.19" cy="91.09" r="0.73" fill="#ffffff" opacity="0.28"/>
<circle cx="49.65" cy="55.11" r="0.34" fill="#ffffff" opacity="0.42"/>
<circle cx="52.17" cy="108.75" r="0.46" fill="#ffffff" opacity="0.26"/>
<circle cx="18.59" cy="15.58" r="0.49" fill="#ffffff" opacity="0.19"/>
<circle cx="21.97" cy="56.87" r="0.23" fill="#ffffff" opacity="0.34"/>
<circle cx="57.09" cy="72.61" r="0.54" fill="#ffffff" opacity="0.36"/>
<circle cx="76.80" cy="38.76" r="0.17" fill="#ffffff" opacity="0.42"/>
<circle cx="36.44" cy="88.12" r="0.57" fill="#ffffff" opacity="0.13"/>
<circle cx="56.23" cy="17.97" r="0.17" fill="#ffffff" opacity="0.35"/>
<circle cx="81.19" cy="11.41" r="0.21" fill="#ffffff" opacity="0.30"/>
<circle cx="82.38" cy="20.03" r="0.39" fill="#ffffff" opacity="0.16"/>
<circle cx="39.47" cy="100.20" r="0.60" fill="#ffffff" opacity="0.13"/>
<circle cx="25.02" cy="32.49" r="0.31" fill="#ffffff" opacity="0.42"/>
<circle cx="56.35" cy="64.30" r="0.33" fill="#ffffff" opacity="0.13"/>
<circle cx="8.45" cy="80.31" r="0.21" fill="#ffffff" opacity="0.37"/>
<circle cx="19.21" cy="94.43" r="0.28" fill="#ffffff" opacity="0.47"/>
<circle cx="83.03" cy="111.60" r="0.18" fill="#ffffff" opacity="0.19"/>
<circle cx="20.36" cy="18.87" r="0.53" fill="#ffffff" opacity="0.50"/>
<circle cx="26.76" cy="89.57" r="0.41" fill="#ffffff" opacity="0.20"/>
<circle cx="19.94" cy="27.48" r="0.17" fill="#ffffff" opacity="0.19"/>
<circle cx="53.09" cy="49.02" r="0.20" fill="#ffffff" opacity="0.23"/>
<circle cx="64.51" cy="86.08" r="0.21" fill="#ffffff" opacity="0.13"/>
<circle cx="36.57" cy="39.80" r="0.63" fill="#ffffff" opacity="0.18"/>
<circle cx="30.44" cy="2.88" r="0.57" fill="#ffffff" opacity="0.20"/>
<circle cx="69.04" cy="99.49" r="0.54" fill="#ffffff" opacity="0.24"/>
<circle cx="1.75" cy="20.22" r="0.44" fill="#ffffff" opacity="0.55"/>
<circle cx="31.92" cy="65.76" r="0.60" fill="#ffffff" opacity="0.21"/>
<circle cx="27.76" cy="10.61" r="0.49" fill="#ffffff" opacity="0.46"/>
<circle cx="34.36" cy="55.57" r="0.39" fill="#ffffff" opacity="0.25"/>
</g>
<rect x="1.6" y="1.6" width="80.8" height="110.8" rx="5.0" ry="5.0" fill="none" stroke="#2a2f3a" stroke-width="1.2"/>
<rect x="3.4" y="3.4" width="77.2" height="107.2" rx="4.2" ry="4.2" fill="none" stroke="#b9bec9" stroke-width="0.9" opacity="0.95"/>
<g filter="url(#softGlow)"><circle cx="42.00" cy="57.00" r="18" fill="#2fe3ff" opacity="0.18"/><circle cx="42.00" cy="57.00" r="12" fill="#ff3bff" opacity="0.20"/><circle cx="42.00" cy="57.00" r="7" fill="#ffffff" opacity="0.12"/><path d="M 42.00 57.00 L 68.00 57.00 L 76.00 57.00" stroke="#2fe3ff" stroke-width="1.0" opacity="0.55" fill="none"/><circle cx="76.00" cy="57.00" r="1.2" fill="#2fe3ff" opacity="0.75"/><path d="M 42.00 57.00 L 60.38 75.38 L 66.04 81.04" stroke="#ff3bff" stroke-width="1.0" opacity="0.55" fill="none"/><circle cx="66.04" cy="81.04" r="1.2" fill="#ff3bff" opacity="0.75"/><path d="M 42.00 57.00 L 42.00 83.00 L 42.00 91.00" stroke="#2fe3ff" stroke-width="1.0" opacity="0.55" fill="none"/><circle cx="42.00" cy="91.00" r="1.2" fill="#2fe3ff" opacity="0.75"/><path d="M 42.00 57.00 L 23.62 75.38 L 17.96 81.04" stroke="#ff3bff" stroke-width="1.0" opacity="0.55" fill="none"/><circle cx="17.96" cy="81.04" r="1.2" fill="#ff3bff" opacity="0.75"/><path d="M 42.00 57.00 L 16.00 57.00 L 8.00 57.00" stroke="#2fe3ff" stroke-width="1.0" opacity="0.55" fill="none"/><circle cx="8.00" cy="57.00" r="1.2" fill="#2fe3ff" opacity="0.75"/><path d="M 42.00 57.00 L 23.62 38.62 L 17.96 32.96" stroke="#ff3bff" stroke-width="1.0" opacity="0.55" fill="none"/><circle cx="17.96" cy="32.96" r="1.2" fill="#ff3bff" opacity="0.75"/><path d="M 42.00 57.00 L 42.00 31.00 L 42.00 23.00" stroke="#2fe3ff" stroke-width="1.0" opacity="0.55" fill="none"/><circle cx="42.00" cy="23.00" r="1.2" fill="#2fe3ff" opacity="0.75"/><path d="M 42.00 57.00 L 60.38 38.62 L 66.04 32.96" stroke="#ff3bff" stroke-width="1.0" opacity="0.55" fill="none"/><circle cx="66.04" cy="32.96" r="1.2" fill="#ff3bff" opacity="0.75"/><ellipse cx="42.00" cy="57.00" rx="26" ry="10" fill="none" stroke="#2fe3ff" stroke-width="0.9" opacity="0.45"/><ellipse cx="42.00" cy="57.00" rx="10" ry="26" fill="none" stroke="#ff3bff" stroke-width="0.9" opacity="0.35"/></g></svg>
